<svg xmlns="http://www.w3.org/2000/svg" viewBox="0 0 1080 1920"><defs><style>.cls-1,.cls-22{fill:#fff;}.cls-2{fill:#dea896;}.cls-3{fill:#dfdfdf;}.cls-4{fill:#c7c7c6;}.cls-5{fill:#c85957;}.cls-6{opacity:0.9;}.cls-7{fill:#b66a25;}.cls-8{fill:#ecd266;}.cls-9{fill:#711831;opacity:0.7;}.cls-10{fill:#d99388;}.cls-11{fill:#ce726a;}.cls-12{fill:#f3f0a3;}.cls-13{fill:#d4834c;}.cls-14{fill:#822f28;}.cls-15,.cls-16{fill:#ca6564;}.cls-15{stroke:#c0503e;}.cls-15,.cls-21,.cls-22,.cls-23{stroke-miterlimit:10;}.cls-17{fill:#f4efe7;}.cls-18{fill:#ae2c17;}.cls-19{fill:#558fc9;}.cls-20{fill:#b02e16;}.cls-21{fill:#be403d;stroke:#585755;}.cls-22,.cls-23{stroke:#211915;}.cls-23{fill:none;stroke-width:2px;}.cls-24{font-size:36px;}.cls-24,.cls-27,.cls-28{fill:#211915;font-family:ArialNarrow, Arial;}.cls-25{letter-spacing:-0.03em;}.cls-26{letter-spacing:-0.09em;}.cls-27{font-size:33px;}.cls-28{font-size:24px;}</style></defs><title>Mesa de trabajo 1</title><g id="cuerpo"><path class="cls-1" d="M41.92,1680.77s12.46-18.84,14.72-19.07,4.89,1.4,3.64,3.08-8.31,6.58-9.63,12.94S39.15,1686.77,41.92,1680.77Z"/><path class="cls-2" d="M892.67,1104.53c-3-3.62-20.58-27-46-46s-23.12-48.15-25.66-70.1-5.73-60.71-11.24-88.4-24.19-67.95-41.16-101-11-79.68-10-121-4.25-53.47-20-77.75S643.19,554.72,625,543.64s-9.14-41.32-9.14-41.32c8.7-10.23,20.78-50.91,20.78-50.91,5.94,1.7,7.19,0,7.19,0,9.33-4.91,5.88-23.22,6.09-27.27s2.43-3,3.28-12.15-7.88-6.11-7.88-6.11c9.94-102-72.22-88.69-72.22-88.69s-82.16-13.31-72.23,88.69c0,0-8.72-3-7.87,6.11s3.07,8.1,3.28,12.15-3.24,22.36,6.09,27.27c0,0,1.25,1.7,7.18,0,0,0,12.08,40.68,20.78,50.91,0,0,9.12,30.24-9.13,41.32s-98,32.38-113.71,56.67-21,36.42-19.94,77.75,7,88-10,121-35.64,73.27-41.16,101-8.69,66.46-11.24,88.4-.21,51.13-25.67,70.1-43.06,42.38-46,46-5.31,9.16,2.33,10.87,15.06-3.84,16.34-5.33,9.12-8.09,12.3-8.52c0,0-.85,9.17-1.49,14.17s-.42,10.75-1.9,18.63-4.67,22.38-5.94,28.34-10.82,29.39-.22,29.61c0,0,3.4.85,9.34-13.42s9.54-35.37,13.79-37.71c0,0,.84-.85-1.49,9.37s-11,34.32-10.82,41.77.64,8.51,5.31,9.14,7.21-13,9.12-19,12.94-37.5,17.18-42.6c0,0-5.94,13.83-6.36,19.59s-11.67,41.15-3.82,42,10.39-14.72,12.09-19.84,12.52-40.47,12.52-40.47-3.4,14.48-3,19.39-4.24,30.89,3.4,32,17.21-26.22,18.27-31.12,4.84-19.87,9.51-26.47,4.62-49.4,5-57.71-1.56-36.36,11.8-53.19,37.78-96.25,40.74-106.69,22.18-60.58,21.76-87.42,1.29-56.42,2.34-59.4,2.55,10.86,5.73,19,13.16,47.08,6.15,73.49-18.66,47.72-23.54,93.31-35.22,149.54-28.64,196.62,15.06,84.36,22.06,117.16S447.53,1369.75,448,1390s.21,62.84-6.16,97.14-13.36,86.48-3.81,132.28,21,95.65,23.33,112-6.57,34.73-2.55,38.78-16.67,25.84-19.43,30.1-33,25.07-27,37.85a3.49,3.49,0,0,0,3,1.06s-1.91,9.37,8.92,8.73c0,0,.21,14.07,13.36,4.06,0,0,2.33,15.12,17,4.9,0,0,15.91,15.75,27.79,5.32s9.12-21.08,16.76-29.82,15.91-29.4,15.06-46c0,0,1.8-10.19,7.32-18.07s-4.74-35.33-1.56-46.42-.25-49.06,1-59.28,12.52-89.68,13.16-102-11.25-96.28-2.34-116.31,11.46-64.76,12.73-76.48.21-62,4-76,10.82-90.53,13.58-106.08.88-68.81.88-73.49,2-8.31,10.09-8.31,10.08,3.62,10.08,8.31-1.87,57.94.89,73.49,9.76,92,13.58,106.08,2.76,64.33,4,76,3.82,56.45,12.73,76.48-3,104-2.34,116.31,11.89,91.81,13.16,102,1.06,36.22,4.24,47.29-10.74,42.16-5.22,50,7.77,26.44,7.77,26.44c-.85,16.61,7.42,37.27,15.06,46s4.88,19.39,16.76,29.82,27.78-5.32,27.78-5.32c14.64,10.22,17-4.9,17-4.9,13.16,10,13.37-4.06,13.37-4.06,10.82.64,8.91-8.73,8.91-8.73a3.47,3.47,0,0,0,3-1.06c5.94-12.78-24.46-36.07-27.21-40.34s-9.88-18.47-15.23-25.87c-9.11-12.58-9.94-16.78-6.56-40.52,2.33-16.4,13.78-66.25,23.33-112s2.54-98-3.81-132.28-6.59-76.9-6.16-97.14,17.6-87.13,24.6-119.94,15.49-70.08,22.07-117.16-23.76-151-28.64-196.62S699.62,889.38,692.62,863s3-65.4,6.16-73.49,4.66-22,5.72-19,10.4,23.43,10,50.27,15.69,76.69,18.66,87.13,22.48,105.77,35.84,122.6,11.55,47.66,12,56,.38,45.66,5,52.27,8.44,31.46,9.5,36.36,10.82,18.47,18.47,17.4,3-27,3.39-32-3-19.39-3-19.39,10.82,35.36,12.52,40.47,4.23,20.67,12.09,19.84-3.4-36.24-3.82-42-6.36-19.59-6.36-19.59c4.24,5.1,15.27,36.63,17.19,42.6s4.44,19.59,9.11,19,5.1-1.7,5.3-9.14-8.49-31.54-10.82-41.77-1.48-9.37-1.48-9.37c4.24,2.34,7.85,23.43,13.79,37.71s9.33,13.42,9.33,13.42c10.61-.22,1.07-23.65-.21-29.61s-4.46-20.45-5.94-28.34-1.27-13.62-1.91-18.63-1.49-14.17-1.49-14.17c3.19.43,11,7,12.31,8.52s8.69,7,16.33,5.33S895.64,1108.15,892.67,1104.53Z"/><path class="cls-1" d="M585.86,527c-1.52-.82-2.85-4.93-2.85-4.93a24.88,24.88,0,0,0-10.1-.25,24.93,24.93,0,0,0-10.11.25S561.47,526.2,560,527s-4.57,3-3.05,4.29,2.67,3.47,4.77,3.47,3.23-.33,5,0c1,.19,3,.39,4.76.56a9,9,0,0,0,3,0c1.79-.17,3.73-.37,4.76-.56,1.72-.33,2.86,0,5,0s3.23-2.15,4.76-3.47S587.38,527.85,585.86,527Z"/><path class="cls-3" d="M472.07,1435.62s-11.23,2-12.31,8.89-.87,11.5,6.15,21.47,3.56,31.45,4.43,48.58,2.16,62,1.94,79.81,4.54,109.08,2,118-11.89,57.29,3.23,42.74,4.11-97,4.11-108.67-3-105.18-3-105.18-4.49-90.22,3.58-97.37S478.76,1430.42,472.07,1435.62Z"/><path class="cls-1" d="M470.4,1409.82s-8.26,17.57-7.19,24.29,11.45,6.07,16.41,18,4.75,52.91,3.89,74.6,1.09,97.8.86,117.53,1.74,61.16-.86,66.8-22.89,41.63,8.42,36.86c0,0,12.1-6.28,14,2.18s10.37,5.2,10.15-2.39-13.38-60.51-11.87-91.74-1.08-115.16,2.58-145.52,9.07-58.77,16.2-68.74,7.35-29.92,2.38-32.75-24.56-2.16-29.45-6.5S474.36,1400.33,470.4,1409.82Z"/><path class="cls-4" d="M503.78,1041.43c0,.47-.3,13.23-2.81,17.84s-3.11,14.71,5,18.89,36,10.85,43.24,4,17.77-11.3,19.69-11.6,1.19-11-1-12.79-16.29-12-20.44-6.39-1.63,10.22-6.37,11.88-23.54,9.53-24.13-5,6.66-17.25,2.66-18.89S504.49,1031.64,503.78,1041.43Z"/><path class="cls-4" d="M639.7,1041.43c0,.47.3,13.23,2.82,17.84s3.11,14.71-5,18.89-36,10.85-43.23,4-17.77-11.3-19.7-11.6-1.18-11,1-12.79,16.29-12,20.43-6.39,1.64,10.22,6.37,11.88,23.55,9.53,24.14-5-6.67-17.25-2.67-18.89S639,1031.64,639.7,1041.43Z"/><path class="cls-1" d="M558,748.74s-2.72-1.27-7.61,1.46-21.54,19-30.59,20.68-14.66,33.86-5.43,21.31,21.72-20.9,28.24-26.54,9.79-6.18,14.13-7.45S562.17,749.65,558,748.74Z"/><path class="cls-1" d="M559.45,773.47a63,63,0,0,1-12.32,7.09c-6.87,2.91-40,19.07-43.62,24.17s-5.78,16.34,3.9,10.54,37.11-26,44-28.71S570.85,770.2,559.45,773.47Z"/><path class="cls-1" d="M564.62,798s-6.67-3.09-15,5.64-20.3,11.46-27.44,21.27-21.6,18.36-9.75,18.18,16.84-16,24.84-21.45S571.66,805.1,564.62,798Z"/><path class="cls-1" d="M558.7,833.75s-12.86-.22-13.89-2-1.76-4.06.35-4.8,13.08-1.54,14.28,0S561.54,833.47,558.7,833.75Z"/><path class="cls-1" d="M559.84,854.72s-8.88-1.94-11.67-2.29-14.11.92-10.92,3.72,6.77,2.69,12.69,4.52,11.16,3.93,11.5,1.88S563.06,855.76,559.84,854.72Z"/><path class="cls-1" d="M559.32,880.84s-3.87,2.85-7.88,2.63S534.34,881,537,886.78s19.69,5.31,21.91,4.23S564.9,877.41,559.32,880.84Z"/><path class="cls-1" d="M557.39,909.75s-7.23-.57-8.93-1.14-13.54-3.94-11.39.57.4,6.46,2.91,7,16.21,1.83,18.09.8S560.51,910,557.39,909.75Z"/><path class="cls-1" d="M555.11,937.12s-5.8-2.63-7.57-3.83-9.5-1.88-8.64,1.2,5.79,5.37,8.07,6.29,8.88,3.71,9,.74S556.3,938.43,555.11,937.12Z"/><path class="cls-1" d="M583.39,833.75s12.86-.22,13.88-2,1.77-4.06-.34-4.8-13.09-1.54-14.28,0S580.54,833.47,583.39,833.75Z"/><path class="cls-1" d="M582.25,854.72s8.88-1.94,11.66-2.29,14.11.92,10.93,3.72-6.77,2.69-12.69,4.52-11.17,3.93-11.51,1.88S579,855.76,582.25,854.72Z"/><path class="cls-1" d="M582.76,880.84s3.87,2.85,7.88,2.63,17.1-2.52,14.48,3.31-19.68,5.31-21.91,4.23S577.19,877.41,582.76,880.84Z"/><path class="cls-1" d="M584.7,909.75s7.22-.57,8.93-1.14,13.54-3.94,11.38.57-.4,6.46-2.9,7S585.89,918,584,917,581.58,910,584.7,909.75Z"/><path class="cls-1" d="M587,937.12a83.89,83.89,0,0,0,7.57-3.83c1.76-1.2,9.5-1.88,8.65,1.2s-5.79,5.37-8.08,6.29-8.88,3.71-9.05.74S585.78,938.43,587,937.12Z"/><path class="cls-4" d="M439.41,631s3.18,8.77,9.27,12.11,3.19,10.69,5.29,19.09,36.72,77,50.51,47.38,15.3-55.07,17.91-58.29.27-23.11,0-26.21-5-13.94-15.29-16-26.67-4.19-29.23,0-8.9,1.29-12-.64-18.29-5.5-20.41,1.61S436.23,621,439.41,631Z"/><path class="cls-3" d="M583.53,573.77c-3.22-3.24-9.93.17-11.58,1.09-1.72-.92-8.76-4.33-12.14-1.09,0,0-3.07,15.94-2.15,19.26A73.85,73.85,0,0,0,572,594.47,67.34,67.34,0,0,0,585.59,593C586.45,589.71,583.53,573.77,583.53,573.77Z"/><path class="cls-1" d="M450.61,607.67c-.69,0-11.87.66-14.07-1.55s-5.28-3.81-3.3-4.55a41.1,41.1,0,0,0,6.17-3.84s3.78-8.09-6.8-5.26-14.1,5.7-6.18,13,8.37,10.81,13,11.25,7.69,1.11,9.22-1.1S458.52,607.51,450.61,607.67Z"/><path class="cls-1" d="M443.36,617.16s5.49,4,3.07,11.91-15.82,15.9-20.22,64.25-10.77,115-6.6,127.59,16.71,24.29,5.06,29.81-11-.22-14.51-1.32-9.45.87-14.07,2-12.53-2.87-9.89-10.6-1.5-6.4-.53-10.15,13.94-14.79,17.9-44.37,4.39-73.74,5.27-89.63,9.9-46.8,3.3-60,3.74-18.52,7.47-19.42S437,609.22,443.36,617.16Z"/><path class="cls-1" d="M397.85,869.48s4.39-11,4.39-13.68,3.09-6.1,8.14-2.72,11.87,1.17,10.55,6.47S397,918.71,387.08,960s-25.94,92.71-27.7,92.93-.22-2.21-1.76-4-11.87-3.31-7.25-10.6,24.4-68.43,28.13-79.69,20.23-72.85,19.79-76.82S395.68,875.25,397.85,869.48Z"/><path class="cls-1" d="M385.52,871.25s-1-6-.38-9.27,1.94-11.34,6.11-10.31,12-.1,11,4.13-8,11-8.61,17.88.48,21-6.77,30-22.2,55.2-27,71.09-12.53,56.74-12.1,67.34-7.91-.44-9.67-1.33-17.36,5.74-11.65-6.4,16.93-39.52,24.4-59.61S383.53,879.42,385.52,871.25Z"/><path class="cls-1" d="M313.87,1066.84s-6.59-.22-5.28-5.3,10.34-11.83,14.74-14.86,10.55-5.23,14.72-1.92,13.64,4,16.27,5.74,8.14,5.08,6.82,8.61-6.16,12.14-6.82,15-7.47,2.65-11.65,1.33-5.5-1.76-9-1.33-4-.88-5.5-2.87-2.64-4.63-5.06-3.31S315.85,1065.73,313.87,1066.84Z"/><path class="cls-1" d="M347.29,1077.44s-2.64,6.62,0,11,1,20.3-.59,22.29-6.59,15.23-.59,15.68,6-3.32,5.79-7.07.88-20.53,3.3-23.62,4.4-10.6,3.08-13.25S354.1,1070.82,347.29,1077.44Z"/><path class="cls-1" d="M343.23,1126.48s.12,1.07,0,6.37a55.18,55.18,0,0,1-2.32,13c-.66,2.43-2.47,7.29,1.19,7.73s5.62.22,6.07-7.73,1.64-13.25,2.79-15.23-1.25-6.84-3.24-6.63S343.19,1122.33,343.23,1126.48Z"/><path class="cls-1" d="M339.88,1153.73s-1.61,14-2.48,16.2,2.63,3.76,4.61-1.32,5.59-16.12,3.56-17S340.37,1149.61,339.88,1153.73Z"/><path class="cls-1" d="M337.26,1170.82s-4.76,12.58,0,12.8S341.07,1166.18,337.26,1170.82Z"/><path class="cls-1" d="M335.14,1075.06s.5,6.13-1.7,7.9,4,6.62,1.44,13.24-12.3,27-9.73,30.28,5.9,5.26,9.73-1.58,2.13-19.21,6.83-27.26,4.33-15.39,4.7-17S342.78,1071.37,335.14,1075.06Z"/><path class="cls-1" d="M324.72,1128.66s-2.93-.89-2.5,4-.22,11.92-1.75,14.8-3.36,10.15,4.25,9.93,1.24-6,1.9-9.5,8.6-18.35,5.72-18.36S327,1127.4,324.72,1128.66Z"/><path class="cls-1" d="M320.63,1156.29s-3.47,2.6-3.68,8.79-5.06,11.69-3.08,14.12,5.38,4.2,6.76-3.31,4.81-11.34,5.4-14.5S323.28,1152.48,320.63,1156.29Z"/><path class="cls-1" d="M314.73,1180.12s-1.81.2-1.33,3.5-.63,4.19-1.51,6,2.64,6.62,4.4,2.87,1.66-5.3,2.81-6.84S319.11,1176.83,314.73,1180.12Z"/><path class="cls-1" d="M326,1068.43a29.54,29.54,0,0,1-2.26,8c-1.76,3.7-2,3.92-2,9.21s-10.9,32.23-13.37,34.66c-1.46,1.44-2.05,5.76-.52,8,1.06,1.54,3.13,2.09,6.63,0,8.57-5.12,4.18-9.76,6.59-15.27s5.74-25,8.8-26.93,5.92-10.12,4-11S326,1068.43,326,1068.43Z"/><path class="cls-1" d="M307,1129.62s-3.68,1-3,4.55,0,12-1.76,16.6-.27,10.33,2.39,9.22.56-.65,3.81-8.38,2.74-12.36,5-15.45,2.82-7.55,0-6.54S308,1129.18,307,1129.62Z"/><path class="cls-1" d="M302.47,1159.19s-2-.82-2.44,2.2-.67,11.64-1.77,14.28,1.12,6.54,3.2,3.6.54-9.12,2.52-11.11,3.27-9.18.88-9.08Z"/><path class="cls-1" d="M298,1179.27s-1.69,2.37-1.47,4.35-2.19,4.41-2.41,6,2.27,3.75,3.88,2,.73-3,2.28-5S301.41,1177.57,298,1179.27Z"/><path class="cls-1" d="M315.3,1068.43c-.29.24-5.6,3.6-5.82,8s-.89,14.29-5.5,20.25-15.42,20.31-9.91,23,7.22-6,12.08-13.47,12.49-21.57,14.61-24.72,6.91-12.78,4-13S317.9,1066.37,315.3,1068.43Z"/><path class="cls-1" d="M293.31,1119.05a34.28,34.28,0,0,0-3.18,10.42c-.66,5.58-8.13,20.92-2,21.3s4.59-8.21,5.92-13.07,8.79-11.31,7-13.93-.46-3.28-7-4.17"/><path class="cls-1" d="M285.74,1150.77s-1.33.4-2,5.26-4.83,14.54,0,13.67,2.2-4.75,5.5-9.44,4.26-10.74,1.58-10.11S287.5,1152.15,285.74,1150.77Z"/><path class="cls-1" d="M281.45,1169.7a12.23,12.23,0,0,1,0,3.76c-.34,1.77-2.74,6,0,6.86s.11-1.22,2.52-3.49,6-6.45,1.77-6.79Z"/><path class="cls-1" d="M307,1063.75s-4.78,2.21-7.2,5.74-18.24,13.24-11,19.21,5.13-3.1,9.16-6.19,11.79-9.08,13.78-11S312.66,1066,307,1063.75Z"/><path class="cls-1" d="M286.92,1086.48s-2.72-.22-5.47,2.65-14.41,8-5.39,11.64c0,0,1.55.5,5.39-5.45s6.17-3.84,7.58-4.64"/><path class="cls-1" d="M271.66,1097.64a48.26,48.26,0,0,0-4.62,4.14c-1.54,1.7-8.13,7.23-2,7.45s5.5-2.22,6.59-4.2S275.17,1094.62,271.66,1097.64Z"/><path class="cls-1" d="M476.77,828.92s-8.17-9.44-1.2-16.89,30.05-31.46,31.38-33.61-5.84-7.95-17.1,4.47-30.06,23-21.32,40.23S477.76,833.72,476.77,828.92Z"/><path class="cls-1" d="M487.74,774.3s-22.51,8.09-20.53,19.68S479.77,808.56,479.5,811s-5.53,9.6-13.94-3.15-6.84-33.28,11.08-38.58,14.47,3.35,11.83,5.15"/><path class="cls-1" d="M486.17,792.66s-4.95-4.8-10.39-10.6S462.43,770,468,764.18s25.06-13.57,23.74-16.72-3.93-7.46-12.27-2.82-24.66,9.94-19.05,25.67,13.19,29.63,25.55,28.8C486,799.11,490.15,796.61,486.17,792.66Z"/><path class="cls-1" d="M489.63,765.5s-4-1.81-11.21-8.27-18.95-10.78-7.58-18.22,30.5-14.46,30-17.49-10.66-4.86-17.36-1.55-27.67,10.77-25.11,23,15.68,27.89,24.34,30S495.24,770.47,489.63,765.5Z"/><path class="cls-1" d="M506.62,744.48a33.14,33.14,0,0,1-15.34-6.79c-7.58-6-27.38-15.44-22.42-22s13.52-13.77,27.53-15.76,12.14-5.63,11-6.62-9.42-3.48-19.29,0S449.73,703.58,461,721.46s29.35,32.13,43.36,29.81S506.62,744.48,506.62,744.48Z"/><path class="cls-1" d="M554.42,710.64s-25,13.54-32,14.46-32.8-2.77-41.69-10.46-30-20-19.62-34.78,46.27-15.69,51-15.38,4.46,7.07-7.8,8.92-39.54,9.24-36.47,16.31S494.48,718,512.1,714,565.63,687.55,554.42,710.64Z"/><path class="cls-1" d="M552.72,678.94s-15,4.31-20.84,6.46-32.49,3.08-43.21-6.46-20.46-11-13-16.75,28.31-11.26,34.44-13.72,16.86-11.08,15-12-20.84,1.84-26.05,4.61-35.24,10.47-33.1,22.78,19.92,31.39,40.45,32.31,40.19-1.23,48-6.46S556.58,677.82,552.72,678.94Z"/><path class="cls-3" d="M524.59,945s.38-8.18-3.93-12.7-55.76-22.73-76.2,22c0,0-10.55,40.07,12.2,37.09,0,0,11.21-2,11.54,6.62s8.12,11.26,15.11,13.25,14.56,14.24,14.24,29.47,8.9,8.7,15.5,6,27.65,1,34.43,13.07,19.64,5.54,21.95,4,6.68-17.21-7.21-20.64-39.94-18-36.31-36.87-7.26-13.57-9.24-16.23,9.24-16.56,14.51-20.86S526.11,949,524.59,945Z"/><path class="cls-1" d="M472.72,1106.64s2.81-8,6-15-1.3-10.63-1.95-20.17-3.87-17.77,8.42-24.83,19-13.34,8.86-28.74-20.73-4.33-24.83,6.94-11.88,1.3-14.48-.87-35.84-5-22.45,34.5,16.19,52.47,19.87,88.69,20.3,115.38,20.51,144.22-1.51,75.24-7.12,82.83-11.24,42.5,7.77,42.07,11.66-14.53,29.8-6.08,31.1,9.34,29.59-3.68,6.69-23.42-1.08-29.49-22-23.2-30-72.86S470.35,1118.57,472.72,1106.64Z"/><path class="cls-4" d="M480.63,1742.36s-4.9,15.66-5.81,19.5,3.63.91,7.62,0,3.08,2.37,5.81,3.09,18.15,1.46,16.15-5.1,2-7.11,3.63-12S486.25,1733.79,480.63,1742.36Z"/><path class="cls-4" d="M478.63,1758.76s-16.87,12.21-15.51,14.58,8.61,1.09,14.24.91,14,2.91,18.6,5.46,9,.73,9.35-4.91,2.72-5.66,3.81-8.57S489.49,1750.14,478.63,1758.76Z"/><path class="cls-1" d="M500.9,1777.64s4.18,3.15,1.68,7.24-7.63,11.64-5.75,18.88,1.25,8.5-1.26,6.71-13.57.73-12.32-6.09,4.39-9.75,4.49-13.94-.42-18.36,6.79-18.46S500,1776.73,500.9,1777.64Z"/><path class="cls-1" d="M486.1,1805.86s-4.2,1.33-3.48,5.34a18.73,18.73,0,0,1-.08,8.81c-.64,2.63,2.69,10.38,6.45,4.62s6.69-7.55,7.84-9.13.73-8.38-2.41-9.64A12.7,12.7,0,0,0,486.1,1805.86Z"/><path class="cls-1" d="M485.13,1822.43s-5.64-1-5.85,1.37-1.25,2.93-1.67,6.39,1.06,5.88,5.54,3.46,6.78-3.57,6.36-5.77S485.13,1822.43,485.13,1822.43Z"/><path class="cls-1" d="M487.12,1770s-6,.1-9.57,8.71-17.07,27.78-8,28.62,5.05-1,7.23-6.29,8.12-17.61,10.32-19.5S494.42,1768.94,487.12,1770Z"/><path class="cls-1" d="M473.54,1805.15s2.82,3.86.73,7.31-6.17,12.59-8.88,6.61,1.15-15.62,3-16.46S471.9,1803.17,473.54,1805.15Z"/><path class="cls-1" d="M471.86,1818.55s-4.3,8.49-5.39,8.81-5.51.15-3.43-4.41S468.94,1813.09,471.86,1818.55Z"/><path class="cls-1" d="M466.47,1829.35s-7.56,7.23-7.87,3.36,2-8.39,4.44-8.5S466.93,1825.57,466.47,1829.35Z"/><path class="cls-1" d="M475.73,1769.92s-19.32,27.44-18.8,31,3.55,6.89,5.22,4.23,5.3-15.66,12.89-20.48S482.31,1763,475.73,1769.92Z"/><path class="cls-1" d="M456.92,1804.28s-5.84,8.29-4.38,10.28,1.15,5,5.33,0,5.53-9.54,3.76-11.22S458.61,1801.68,456.92,1804.28Z"/><path class="cls-1" d="M456.09,1817.31s-7.1,13.5-9.71,12.25-.31-9.23,6.89-15S457.16,1815.37,456.09,1817.31Z"/><path class="cls-1" d="M468.4,1772s-16.2,23-15.76,26,3,5.77,4.38,3.55,4.44-13.13,10.81-17.18S473.92,1766.17,468.4,1772Z"/><path class="cls-1" d="M452.63,1800.77s-4.9,7-3.68,8.62,1,4.23,4.47,0,4.64-8,3.16-9.4S454.05,1798.59,452.63,1800.77Z"/><path class="cls-1" d="M451.94,1811.7s-6,11.33-8.15,10.28-.26-7.74,5.77-12.59S452.83,1810.08,451.94,1811.7Z"/><path class="cls-1" d="M461.2,1773.05s-14.67,18.8-14.27,21.25,2.69,4.71,4,2.9,4-10.73,9.79-14S466.2,1768.33,461.2,1773.05Z"/><path class="cls-1" d="M446.92,1796.6s-4.44,5.67-3.32,7,.87,3.44,4,0,4.2-6.54,2.85-7.69S448.21,1794.81,446.92,1796.6Z"/><path class="cls-1" d="M446.3,1805.52s-5.4,9.25-7.38,8.38-.24-6.32,5.23-10.26S447.1,1804.19,446.3,1805.52Z"/><path class="cls-1" d="M586,945.82s11.52.11,15.15-1.71S618,936.18,619,941s3.42,8.68,1.92,12.53-1.7,16.29-4.7,16.51-8.1,3.17-10.87,4.74-11.29,5-10.76,19.57-20.49,19.18-25.19,20l.92-68.57S581.28,945.91,586,945.82Z"/><path class="cls-1" d="M549.57,622s-10.64-1.53-16.77,0-53,15.73-49.17,21.1,23.43,22.61,64.49,14.3c0,0,24.87,3.38,6.3,12,0,0-14.26-1.85-20.7-1.23s-15.32,6.15-27.89-1.85-36.65-13.66-28.5-30.47,44.22-23.38,51.22-23.69S561.75,608.46,549.57,622Z"/><path class="cls-1" d="M543.83,632.78s14.41-2.77,15.94,0,4.29,10.15-8,9.84S502.15,648.16,489,626s1.54-26.15,6.75-29.23,15.63-3.38,15.93,0-10.72,7.08-13.17,9.23-12.27,4.21-4,12.72S522.69,634,543.83,632.78Z"/><path class="cls-1" d="M540.86,614.94s-55.46.29-32.68-35.09c0,0,13.83-20.15,45.46-7.44,0,0,5.21,13.59-14.4,4.67,0,0-21.52,1.42-19.62,11.69s-2.38,13.26,22.26,16.94S548.61,619.57,540.86,614.94Z"/><path class="cls-5" d="M554.42,716.79S530.35,730,525.75,735.57s-18.25,6.76-23.07,8.3-3.9,3.39-3.9,6.78,11.34,3.69,15.63,4.61,0,4.31-4.29,6.46-19.61.93-21.15,1.23-7.35,8.62-4,10.47,20.23,2.77,19.92,6.46,3.37,13.23-15.32,10.47c0,0-7.36-2.47-8.89,5.22s5.52,4.62,10.42,6.78,3.07,4.31.61,5.84-5.82,4.32-12.56,0-8.23,10.47,4.46,14.78,1.36,8.3-2.93,7.08-5.6-6.47-6.64-3.7-4.66,12,9.57,10.47,21.59-28,27.11-43.09,42-61.6,47.67-67.57S561.27,712.9,554.42,716.79Z"/><path class="cls-1" d="M585.48,748.74s2.72-1.27,7.61,1.46,21.54,19,30.6,20.68,14.66,33.86,5.43,21.31-21.73-20.9-28.25-26.54-9.79-6.18-14.12-7.45S581.32,749.65,585.48,748.74Z"/><path class="cls-1" d="M584,773.47a62.68,62.68,0,0,0,12.31,7.09c6.87,2.91,40,19.07,43.63,24.17s5.77,16.34-3.9,10.54-37.12-26-44-28.71S572.63,770.2,584,773.47Z"/><path class="cls-1" d="M583.88,798s6.68-3.09,15,5.64,20.3,11.46,27.44,21.27,21.61,18.36,9.76,18.18-16.84-16-24.85-21.45S576.84,805.1,583.88,798Z"/><path class="cls-4" d="M704.08,631s-3.18,8.77-9.28,12.11-3.19,10.69-5.28,19.09-36.73,77-50.52,47.38-15.3-55.07-17.91-58.29-.27-23.11,0-26.21,5-13.94,15.3-16,26.66-4.19,29.23,0,8.89,1.29,12-.64,18.29-5.5,20.41,1.61S707.26,621,704.08,631Z"/><path class="cls-1" d="M692.87,607.67c.7,0,11.88.66,14.07-1.55s5.28-3.81,3.3-4.55a40.85,40.85,0,0,1-6.16-3.84s-3.78-8.09,6.8-5.26,14.09,5.7,6.18,13-8.37,10.81-13,11.25-7.69,1.11-9.23-1.1S685,607.51,692.87,607.67Z"/><path class="cls-1" d="M700.13,617.16s-5.49,4-3.08,11.91,15.83,15.9,20.23,64.25,10.76,115,6.59,127.59-16.7,24.29-5,29.81,11-.22,14.51-1.32,9.45.87,14.07,2,12.52-2.87,9.88-10.6,1.5-6.4.53-10.15-13.93-14.79-17.89-44.37-4.4-73.74-5.28-89.63-9.89-46.8-3.3-60-3.73-18.52-7.47-19.42S706.5,609.22,700.13,617.16Z"/><path class="cls-1" d="M745.63,869.48s-4.4-11-4.4-13.68-3.07-6.1-8.12-2.72-11.88,1.17-10.56,6.47,24,59.16,33.86,100.45,25.94,92.71,27.69,92.93.22-2.21,1.76-4,11.88-3.31,7.26-10.6S768.71,969.93,765,958.67s-20.23-72.85-19.78-76.82S747.8,875.25,745.63,869.48Z"/><path class="cls-1" d="M758,871.25s1-6,.39-9.27-1.93-11.34-6.11-10.31-12-.1-11,4.13,8,11,8.62,17.88-.48,21,6.77,30,22.2,55.2,27,71.09,12.52,56.74,12.09,67.34,7.91-.44,9.67-1.33,17.37,5.74,11.65-6.4-16.93-39.52-24.4-59.61S760,879.42,758,871.25Z"/><path class="cls-1" d="M829.62,1066.84s6.59-.22,5.27-5.3-10.34-11.83-14.73-14.86-10.55-5.23-14.73-1.92-13.63,4-16.27,5.74-8.13,5.08-6.81,8.61,6.15,12.14,6.81,15,7.48,2.65,11.66,1.33,5.49-1.76,9-1.33,4-.88,5.5-2.87,2.64-4.63,5.06-3.31S827.63,1065.73,829.62,1066.84Z"/><path class="cls-1" d="M796.19,1077.44s2.64,6.62,0,11-1,20.3.59,22.29,6.6,15.23.59,15.68-6-3.32-5.79-7.07-.88-20.53-3.3-23.62-4.39-10.6-3.07-13.25S789.38,1070.82,796.19,1077.44Z"/><path class="cls-1" d="M800.26,1126.48s-.12,1.07,0,6.37a54.75,54.75,0,0,0,2.31,13c.66,2.43,2.47,7.29-1.18,7.73s-5.63.22-6.08-7.73-1.63-13.25-2.78-15.23,1.25-6.84,3.23-6.63S800.3,1122.33,800.26,1126.48Z"/><path class="cls-1" d="M803.61,1153.73s1.6,14,2.48,16.2-2.63,3.76-4.62-1.32-5.58-16.12-3.56-17S803.11,1149.61,803.61,1153.73Z"/><path class="cls-1" d="M806.22,1170.82s4.76,12.58,0,12.8S802.41,1166.18,806.22,1170.82Z"/><path class="cls-1" d="M808.34,1075.06s-.49,6.13,1.71,7.9-4,6.62-1.44,13.24,12.3,27,9.73,30.28-5.9,5.26-9.73-1.58-2.14-19.21-6.84-27.26-4.33-15.39-4.69-17S800.7,1071.37,808.34,1075.06Z"/><path class="cls-1" d="M818.76,1128.66s2.93-.89,2.5,4,.22,11.92,1.76,14.8,3.36,10.15-4.26,9.93-1.24-6-1.9-9.5-8.59-18.35-5.71-18.36S816.49,1127.4,818.76,1128.66Z"/><path class="cls-1" d="M822.86,1156.29s3.46,2.6,3.67,8.79,5.06,11.69,3.09,14.12-5.39,4.2-6.76-3.31-4.82-11.34-5.41-14.5S820.2,1152.48,822.86,1156.29Z"/><path class="cls-1" d="M828.76,1180.12s1.8.2,1.33,3.5.62,4.19,1.5,6-2.64,6.62-4.39,2.87-1.67-5.3-2.81-6.84S824.38,1176.83,828.76,1180.12Z"/><path class="cls-1" d="M817.45,1068.43a29.34,29.34,0,0,0,2.27,8c1.76,3.7,2,3.92,2,9.21s10.91,32.23,13.38,34.66c1.45,1.44,2,5.76.51,8-1.05,1.54-3.12,2.09-6.63,0-8.57-5.12-4.18-9.76-6.59-15.27s-5.74-25-8.8-26.93-5.91-10.12-3.95-11S817.45,1068.43,817.45,1068.43Z"/><path class="cls-1" d="M836.48,1129.62s3.68,1,3,4.55,0,12,1.76,16.6.27,10.33-2.39,9.22-.56-.65-3.8-8.38-2.75-12.36-5-15.45-2.82-7.55,0-6.54S835.47,1129.18,836.48,1129.62Z"/><path class="cls-1" d="M841,1159.19s2-.82,2.44,2.2.66,11.64,1.76,14.28-1.11,6.54-3.19,3.6-.55-9.12-2.53-11.11-3.26-9.18-.88-9.08Z"/><path class="cls-1" d="M845.51,1179.27s1.69,2.37,1.47,4.35,2.2,4.41,2.42,6-2.28,3.75-3.89,2-.73-3-2.27-5S842.06,1177.57,845.51,1179.27Z"/><path class="cls-1" d="M828.18,1068.43c.3.24,5.61,3.6,5.83,8s.88,14.29,5.49,20.25,15.42,20.31,9.91,23-7.22-6-12.08-13.47-12.49-21.57-14.61-24.72-6.91-12.78-4-13S825.59,1066.37,828.18,1068.43Z"/><path class="cls-1" d="M850.17,1119.05a34,34,0,0,1,3.18,10.42c.67,5.58,8.14,20.92,2,21.3s-4.59-8.21-5.93-13.07-8.78-11.31-7-13.93.45-3.28,7-4.17"/><path class="cls-1" d="M857.75,1150.77s1.32.4,2,5.26,4.84,14.54,0,13.67-2.2-4.75-5.5-9.44-4.26-10.74-1.58-10.11S856,1152.15,857.75,1150.77Z"/><path class="cls-1" d="M862,1169.7a12.6,12.6,0,0,0,0,3.76c.34,1.77,2.75,6,0,6.86s-.1-1.22-2.52-3.49-6-6.45-1.76-6.79Z"/><path class="cls-1" d="M836.48,1063.75s4.78,2.21,7.2,5.74,18.25,13.24,11,19.21-5.13-3.1-9.16-6.19-11.79-9.08-13.77-11S830.82,1066,836.48,1063.75Z"/><path class="cls-1" d="M856.56,1086.48s2.72-.22,5.47,2.65,14.41,8,5.39,11.64c0,0-1.55.5-5.39-5.45s-6.17-3.84-7.58-4.64"/><path class="cls-1" d="M871.82,1097.64a48.26,48.26,0,0,1,4.62,4.14c1.54,1.7,8.13,7.23,2,7.45s-5.49-2.22-6.59-4.2S868.32,1094.62,871.82,1097.64Z"/><path class="cls-1" d="M666.71,828.92s8.17-9.44,1.21-16.89-30.06-31.46-31.38-33.61,5.83-7.95,17.09,4.47,30.06,23,21.33,40.23S665.73,833.72,666.71,828.92Z"/><path class="cls-1" d="M655.75,774.3s22.51,8.09,20.53,19.68S663.72,808.56,664,811s5.54,9.6,13.94-3.15,6.85-33.28-11.08-38.58-14.46,3.35-11.83,5.15"/><path class="cls-1" d="M657.32,792.66s4.94-4.8,10.38-10.6,13.35-12.08,7.75-17.88-25.06-13.57-23.74-16.72,3.93-7.46,12.27-2.82,24.66,9.94,19.06,25.67-13.2,29.63-25.56,28.8C657.48,799.11,653.34,796.61,657.32,792.66Z"/><path class="cls-1" d="M653.85,765.5s4-1.81,11.21-8.27,19-10.78,7.59-18.22-30.51-14.46-30-17.49S653.31,716.66,660,720s27.67,10.77,25.1,23-15.67,27.89-24.33,30S648.25,770.47,653.85,765.5Z"/><path class="cls-1" d="M636.87,744.48a33.18,33.18,0,0,0,15.34-6.79c7.57-6,27.38-15.44,22.42-22s-13.53-13.77-27.54-15.76-12.14-5.63-11-6.62,9.42-3.48,19.28,0,38.39,10.26,27.18,28.14-29.35,32.13-43.36,29.81S636.87,744.48,636.87,744.48Z"/><path class="cls-1" d="M589.06,710.64s25,13.54,32,14.46,32.81-2.77,41.69-10.46,30-20,19.62-34.78-46.27-15.69-51-15.38-4.46,7.07,7.81,8.92,39.53,9.24,36.46,16.31S649,718,631.38,714,577.86,687.55,589.06,710.64Z"/><path class="cls-1" d="M590.77,678.94s15,4.31,20.83,6.46,32.49,3.08,43.21-6.46,20.47-11,13-16.75-28.31-11.26-34.44-13.72-16.85-11.08-15-12,20.84,1.84,26,4.61,35.24,10.47,33.09,22.78S657.57,695.25,637,696.17s-40.18-1.23-48-6.46S586.91,677.82,590.77,678.94Z"/><path class="cls-3" d="M618.9,945s-.39-8.18,3.93-12.7,55.75-22.73,76.2,22c0,0,10.55,40.07-12.2,37.09,0,0-11.22-2-11.54,6.62s-8.12,11.26-15.11,13.25-14.57,14.24-14.24,29.47-8.91,8.7-15.5,6-27.66,1-34.44,13.07-19.64,5.54-22,4-6.67-17.21,7.22-20.64,39.93-18,36.31-36.87,7.25-13.57,9.23-16.23-9.23-16.56-14.51-20.86S617.37,949,618.9,945Z"/><path class="cls-1" d="M593.91,622s10.65-1.53,16.77,0,53,15.73,49.17,21.1-23.42,22.61-64.48,14.3c0,0-24.87,3.38-6.31,12,0,0,14.26-1.85,20.7-1.23s15.33,6.15,27.89-1.85,36.66-13.66,28.5-30.47-44.22-23.38-51.22-23.69S581.74,608.46,593.91,622Z"/><path class="cls-1" d="M599.65,632.78s-14.4-2.77-15.93,0-4.3,10.15,8,9.84,49.64,5.54,62.82-16.62-1.53-26.15-6.74-29.23-15.63-3.38-15.94,0S642.56,603.85,645,606s12.26,4.21,4,12.72S620.8,634,599.65,632.78Z"/><path class="cls-1" d="M602.63,614.94s55.46.29,32.68-35.09c0,0-13.84-20.15-45.46-7.44,0,0-5.21,13.59,14.4,4.67,0,0,21.51,1.42,19.61,11.69s2.39,13.26-22.25,16.94S594.88,619.57,602.63,614.94Z"/><path class="cls-5" d="M589.06,716.79s24.07,13.24,28.67,18.78,18.25,6.76,23.07,8.3,3.9,3.39,3.9,6.78-11.34,3.69-15.63,4.61,0,4.31,4.29,6.46,19.62.93,21.15,1.23,7.35,8.62,4,10.47-20.23,2.77-19.92,6.46-3.36,13.23,15.33,10.47c0,0,7.35-2.47,8.88,5.22s-5.51,4.62-10.42,6.78-3.06,4.31-.61,5.84,5.82,4.32,12.57,0,8.23,10.47-4.47,14.78-1.36,8.3,2.93,7.08,5.61-6.47,6.64-3.7,4.66,12-9.57,10.47-21.59-28-27.11-43.09-42-61.6-47.67-67.57S582.21,712.9,589.06,716.79Z"/><path class="cls-1" d="M539.43,601.48s-40.23-5.37-47.93-7-32.09.23-37.59,3.5-18.69.26-13.19-5.52,19.12-4.09,32.09-9,29,2.58,36.06,2.58,31.43-.88,34.29.44,6.82,3.68,6.38,8S544.34,602.14,539.43,601.48Z"/><path class="cls-1" d="M604.06,601.48s40.23-5.37,47.92-7,32.1.23,37.59,3.5,18.69.26,13.19-5.52-19.12-4.09-32.09-9-29,2.58-36,2.58-31.44-.88-34.3.44-6.82,3.68-6.37,8S599.15,602.14,604.06,601.48Z"/><path class="cls-3" d="M561.26,728.27s.63,77.3,0,89.56.22,42,.29,46.68-1.92,50.67-2.25,56.63-6.92,30.13,0,33.44,38.92,7.71,39.24-2.27a116.29,116.29,0,0,0-2.64-26.54c-1.32-6.28-1.32-15.56-2.63-21.85s-1-15.23-1-23.18-1.32-30.13-2-34.44-3.3-31.48-3.63-41.57-2.31-62.07-1-69-3.3-13.13-6.26-14.18S563.21,714.21,561.26,728.27Z"/><path class="cls-5" d="M620.42,941c-1.06-4.82-14.29,1.29-17.92,3.11s-15.14,1.71-15.14,1.71c-4.69.09-15.62,0-15.62,0s-10.93.09-15.62,0c0,0-11.51.11-15.14-1.71s-16.85-7.93-17.92-3.11-3.42,8.68-1.92,12.53,1.71,16.29,4.7,16.51,8.1,3.17,10.88,4.74,9.67,5,9.14,19.57c-.46,13.16,16.29,18.18,21.74,19.67v.37s1-.11,1.36-.18,1.36.13,1.36.18V1014c10.9-1.49,25-6.51,24.51-19.67-.52-14.56,8.58-18,11.35-19.57s8.19-4.53,11.18-4.74,3.34-12.65,4.84-16.51S621.49,945.82,620.42,941Z"/><path class="cls-5" d="M495.82,1412.86s-14.47,8-19.86-5.86-10.37-24.94,3-28.2,19.43-1.07,21.38,7S502.3,1408.73,495.82,1412.86Z"/><path class="cls-4" d="M591.64,676.12c0-3.09-4-6.27-3.85-14.43s-7.61-20.89-1.47-28.05,14.29-16.91,13.11-18.7-1.24-10.44-.74-12.63-2.76-7.07-5.63-9.25-20.57,2.46-20.57,2.46-17.69-4.65-20.56-2.46-6.13,7.06-5.63,9.25.45,10.84-.73,12.63,7,11.54,13.1,18.7-1.67,19.9-1.47,28.05-3.86,11.34-3.86,14.43,1.3,11.44-.49,17.21.4,9.45,1.88,12.93-.53,11.24,8.38,19.9c0,0,4.11,5.76,9.38,5.76s9.38-5.76,9.38-5.76c8.91-8.66,6.9-16.42,8.38-19.9s3.67-7.16,1.89-12.93S591.64,679.2,591.64,676.12Z"/><path class="cls-3" d="M585.86,527c-1.52-.82-2.85-4.93-2.85-4.93a24.88,24.88,0,0,0-10.1-.25,24.93,24.93,0,0,0-10.11.25S561.47,526.2,560,527s-4.57,3-3.05,4.29,2.67,3.47,4.77,3.47,3.23-.33,5,0c1,.19,3,.39,4.76.56a9,9,0,0,0,3,0c1.79-.17,3.73-.37,4.76-.56,1.72-.33,2.86,0,5,0s3.23-2.15,4.76-3.47S587.38,527.85,585.86,527Z"/><path class="cls-1" d="M585.86,540.27c-1.52-.82-2.85-4.93-2.85-4.93a25.1,25.1,0,0,0-10.1-.26,25.15,25.15,0,0,0-10.11.26s-1.33,4.11-2.85,4.93-4.57,3-3.05,4.29,2.67,3.46,4.77,3.46,3.23-.33,5,0c1,.2,3,.4,4.76.56a9,9,0,0,0,3,0c1.79-.16,3.73-.36,4.76-.56,1.72-.33,2.86,0,5,0s3.23-2.14,4.76-3.46S587.38,541.09,585.86,540.27Z"/><path class="cls-3" d="M585.86,553.51c-1.52-.82-2.85-4.92-2.85-4.92a24.74,24.74,0,0,0-10.1-.26,24.79,24.79,0,0,0-10.11.26s-1.33,4.1-2.85,4.92-4.57,3-3.05,4.3,2.67,3.45,4.77,3.45,3.23-.32,5,0c1,.2,3,.41,4.76.57a9,9,0,0,0,3,0c1.79-.16,3.73-.37,4.76-.57,1.72-.32,2.86,0,5,0s3.23-2.14,4.76-3.45S587.38,554.34,585.86,553.51Z"/><path class="cls-1" d="M585.86,566.76c-1.52-.82-2.85-4.93-2.85-4.93a25.1,25.1,0,0,0-10.1-.26,25.15,25.15,0,0,0-10.11.26s-1.33,4.11-2.85,4.93-4.57,3-3.05,4.29,2.67,3.46,4.77,3.46,3.23-.33,5,0c1,.2,3,.4,4.76.56a8.38,8.38,0,0,0,3,0c1.79-.16,3.73-.36,4.76-.56,1.72-.33,2.86,0,5,0s3.23-2.14,4.76-3.46S587.38,567.58,585.86,566.76Z"/><path class="cls-2" d="M527.36,421.08s-.19,9.22,10.67,9.41,15.55-2.45,20.23-10.91,6-16.55,0-19.37-17.23-2.07-23.6,2.07-5.43,7.33-5.8,9S527.36,421.08,527.36,421.08Z"/><path class="cls-2" d="M574,425.22a85,85,0,0,1,0,13c-.57,6.77,0,14.3-3,15.05s-8.62-3-6.09-9.59S571.2,420,574,425.22Z"/><path class="cls-2" d="M616.12,421.08s.19,9.22-10.67,9.41-15.54-2.45-20.23-10.91-6-16.55,0-19.37,17.23-2.07,23.6,2.07,5.43,7.33,5.8,9S616.12,421.08,616.12,421.08Z"/><path class="cls-2" d="M572.11,425.22a85,85,0,0,0,0,13c.57,6.77,0,14.3,3,15.05s8.63-3,6.1-9.59S574.92,420,572.11,425.22Z"/><path class="cls-3" d="M598.9,473s.52-3,1.34-1.91,1.07,4.2.82,5.73-1.57,5.47-2.47,2.26A10.15,10.15,0,0,1,598.9,473Z"/><path class="cls-3" d="M597,483s-1.68-7-1.3-8.79,2.11-2.78,2.94-1.74a8.27,8.27,0,0,1,1,5.06C599.34,478.87,599.58,482.38,597,483Z"/><path class="cls-3" d="M592.11,485.47s-1.5-4.25-1.09-7.08,1-5,2.72-5.77,2.3,2.59,2.39,4.71S596.83,487.24,592.11,485.47Z"/><path class="cls-3" d="M584.51,483s1.32,3.38,2.22,4,4.46,2.24,4.29-6.6-3.57-8-4.67-6.14S583.93,474.72,584.51,483Z"/><path class="cls-3" d="M580.33,477.5s1.71-3.57,4.18-1.28c0,0,1.79,12.07-1.44,12.28s-3.42-.51-3.75-1.53S579.91,478.18,580.33,477.5Z"/><path class="cls-3" d="M574.05,488.66c-.37-.25-.78-11,.5-11.8s5.27-1.88,5.6,2.71S581.13,493.26,574.05,488.66Z"/><path class="cls-3" d="M548.43,473s-.5-3-1.33-1.91-1.07,4.2-.82,5.73,1.58,5.47,2.47,2.26A10,10,0,0,0,548.43,473Z"/><path class="cls-3" d="M550.39,483s1.68-7,1.3-8.79-2.11-2.78-2.94-1.74a8.34,8.34,0,0,0-1,5.06C548,478.87,547.76,482.38,550.39,483Z"/><path class="cls-3" d="M555.23,485.47s1.49-4.25,1.09-7.08-1-5-2.71-5.77-2.31,2.59-2.39,4.71S550.51,487.24,555.23,485.47Z"/><path class="cls-3" d="M562.83,483s-1.32,3.38-2.23,4-4.45,2.24-4.28-6.6,3.57-8,4.67-6.14S563.41,474.72,562.83,483Z"/><path class="cls-3" d="M567,477.5s-1.71-3.57-4.18-1.28c0,0-1.78,12.07,1.44,12.28S567.68,488,568,487,567.44,478.18,567,477.5Z"/><path class="cls-3" d="M573.29,488.66c.37-.25.78-11-.5-11.8s-5.27-1.88-5.6,2.71S566.21,493.26,573.29,488.66Z"/><path class="cls-3" d="M599.21,471a12.81,12.81,0,0,1-1.36-3.51c-.15-1.38-.07-5.76,1.36-6s2.06,1.34,2.14,4.19S601.59,471.45,599.21,471Z"/><path class="cls-3" d="M594.83,470.28s-.42-6.45,0-7.39,2-3.07,2.91-1.48,1.13,4.72.71,7.54S595.38,473.2,594.83,470.28Z"/><path class="cls-3" d="M590.34,468.54s.68,3.81,1.72,3.93,2.54-.57,2.38-6.49-1.35-5.41-2.63-4.53S590.51,467,590.34,468.54Z"/><path class="cls-3" d="M586.87,471.18s.91,2.2,1.54,2.31,2.89-1.7,2.52-6.37-1.19-7.29-3.93-4.56S586.4,470.2,586.87,471.18Z"/><path class="cls-3" d="M580.49,466.09s.28-4,1.7-4.33a3.91,3.91,0,0,1,4.37,3.19c.32,2.39,1,10.14-2.38,10.25S580.54,471.79,580.49,466.09Z"/><path class="cls-3" d="M580,463.74s.76,7.35.43,8.64-.62,3.82-3.74,3.46-2.5-5.58-2.73-6.93.17-7.88,1.85-7.71S578.86,460.43,580,463.74Z"/><path class="cls-3" d="M548.13,471a12.48,12.48,0,0,0,1.36-3.51c.15-1.38.07-5.76-1.36-6s-2.07,1.34-2.14,4.19S545.75,471.45,548.13,471Z"/><path class="cls-3" d="M552.52,470.28s.41-6.45,0-7.39-2.06-3.07-2.91-1.48-1.13,4.72-.71,7.54S552,473.2,552.52,470.28Z"/><path class="cls-3" d="M557,468.54s-.68,3.81-1.71,3.93-2.55-.57-2.38-6.49,1.35-5.41,2.62-4.53S556.83,467,557,468.54Z"/><path class="cls-3" d="M560.47,471.18s-.91,2.2-1.54,2.31-2.88-1.7-2.52-6.37,1.19-7.29,3.93-4.56S560.94,470.2,560.47,471.18Z"/><path class="cls-3" d="M566.85,466.09s-.28-4-1.71-4.33a3.92,3.92,0,0,0-4.37,3.19c-.32,2.39-.95,10.14,2.39,10.25S566.8,471.79,566.85,466.09Z"/><path class="cls-3" d="M567.36,463.74s-.76,7.35-.42,8.64.6,3.82,3.73,3.46,2.5-5.58,2.73-6.93-.17-7.88-1.86-7.71S568.48,460.43,567.36,463.74Z"/><g class="cls-6"><path class="cls-7" d="M569.76,821c0-.07-.08-.11-.11-.18a22.68,22.68,0,0,1-1.25-4.91,1.94,1.94,0,0,0-.17-.53,75.31,75.31,0,0,0-5.87-20.63,25,25,0,0,0-1.8-3.38c.37-2.87.37-5.37,1.55-8.18,1.28-3,3-6,4.54-8.88.83-1.55-1.29-2.56-2.38-1.54-3.17,3-7.75,7.65-9.24,12.59-3.53-2.79-7.65-4.87-12-7.69-1.39-.91-3.12,1-1.72,2,5.52,4.23,10.38,7.43,14.07,12.5,0,0,0,.09.05.13a2.75,2.75,0,0,0,.57.77,29.65,29.65,0,0,1,3,5.62c2.35,5.9,2.52,12.45,4.19,18.49-.65-.52-1.3-1-1.94-1.42-3.87-2.52-8.66-3.25-13.35-2.91a10,10,0,0,0-1-.72,1.8,1.8,0,0,0-.57-.71C536,804,523.34,806.56,516.34,817A19.4,19.4,0,0,0,520,843a10.3,10.3,0,0,0,11.32,1.15,14.19,14.19,0,0,0,5.26-4.8,40.42,40.42,0,0,1,8-9.28c3.87-3.3,6.68-8.31,6.06-12.53A19.38,19.38,0,0,1,560,822c3.72,3.24,4.61,8.57,9.21,10.88a1.86,1.86,0,0,0,1.37.09,2.69,2.69,0,0,0,2.66-2.27C573.42,826.83,571,824.39,569.76,821Z"/><path class="cls-8" d="M574.47,873.16s-24.28,2.77-20.7-14.68,16.55-26.6,30.9-24.11,58,0,65.11-1.66,19.05-6.37,17.67-1.38S653.63,852.94,643,852.94s-9.48,5.62-15.3,8.59-12.12,6.92-17.24,7.76S574.47,873.16,574.47,873.16Z"/><path class="cls-5" d="M638.78,758c0-.64.24-1.29.23-1.95,0-.4.25-.8.25-1.19v0a9.41,9.41,0,0,0-3.62-6.93,10.35,10.35,0,0,0-4.85-2.21,12.58,12.58,0,0,0-7.5,1.5c-11.81-7.21-24.19-13.93-31.89-24.52-11.29-15.54-7.2-45.84-8.14-63.93-1.28-24.48-2.85-48.92-3.38-73.43-.21-9.55,3.19-76.12,3.82-85.67H572c-.78,9.94-4.22,76.89-4.5,86.82-.8,28,1.7,56.08,2.73,84,.68,18.39-1.76,40.5,7.65,57.17,8.21,14.54,23.75,22.26,37.91,31.31a11.3,11.3,0,0,0,3.9,8,11.57,11.57,0,0,0,8.55,2.72,12.48,12.48,0,0,0,1.64-.29c.94.85,1.86,1.72,2.74,2.63,6.48,6.69,16.06-4.53,9.39-11.08C641,760,639.89,759,638.78,758Z"/><path class="cls-5" d="M547.91,878.46a36.12,36.12,0,0,1-6.28-9.93c-2.29-5.35-3.86-14-1.82-19.71,3-8.43,12.78-13.59,19.09-19.31s11.76-12.82,18.6-18.13C583.57,806.67,609,799.46,615,792s-2.76-20.5,2.48-26.87,19-25.49,38.91-15.79,24,32.48,19.31,44.22-28.42,45.27-45,47.48-50.44,1.39-57.5,3.05-17,9.71-14.21,18.1c2.61,7.89,14.13,7.17,20.54,6.9,9.77-.4,19.47-2.31,29.1-3.91,3.09-.52,6.48-1.39,9.65-1.14,14.15,1.1,23.07,9.81,20.7,25.21-3.17,20.51-28.7,6.65-28.7,6.65S623,881.75,613.64,879s-13.24,4.71-24.28,5.82c-8.68.87-17.38,2.82-26.16,1.92C557.1,886.1,551.92,882.89,547.91,878.46Z"/><path class="cls-9" d="M496.94,854.32s-12.7,10.26-16.56-28.81,0-75.92,20.14-86.72,51.59-6.65,68.15-5.26,48-1.69,56.83-2,18.77.85,17.39,10.26-21.52,42.67-41.66,46.55-40.84,23.27-51.87,28.54S504.66,851,496.94,854.32Z"/><path class="cls-10" d="M626.26,944.86c8.14-1.67,11.06-8.67,8.38-16.84-2.31-7-10.7-15.68-18.72-13.84-4.42,1-7.13,3.59-9.71,7.25-.75,1.06-8.35,14.54-8.44,14.36-3.76-7.9-1.28-21-10.67-25.83-8.17-4.2-14.33.15-18.29,7.59-.49.94-.93,1.93-1.35,2.93a36.47,36.47,0,0,0-3.71-8.05c-3.53-5.58-11.77-7.28-16.22-1.71-.42.51-.79,1-1.15,1.55A40,40,0,0,0,539,901.51c-5-5-13.61-8.42-16.19,1.1-1.84,6.81-1.67,13.95-2.22,21-.05.58-.12,1.15-.18,1.73a15.4,15.4,0,0,0-12.07-3.72C493,923,497.22,947.65,506.6,953.71c4.36,2.81,8,2.76,11,.95a35.47,35.47,0,0,0-4.47,10.17c-.88,3,1.49,5.5,4.2,6.19-2,4.53-1.14,9.5,2.5,15,6.33,9.53,6.84,16.87,8.49,27.78.66,4.38,3.49,7.48,6.44,10.46.46.46,1.15-.23.81-.74-6-9-3.79-19-5.66-29a13.16,13.16,0,0,0-1.71-4.62c-.73-1.16-1.47-2.31-2.2-3.46q-8-7.31,8.49-11c2.38,12.65-3.46,27.61,4.84,38.65,5.67,7.55,15.57.81,18.4-5.65a40.58,40.58,0,0,0,3.19-12.08c-.15,7,.85,14,5.6,17.34,9.64,6.75,14-4.91,16.41-12.72,1.78-5.85,6.18-21.52,4.15-26,2.1,4.64,1.68,11.42,2.2,16.41.8,7.62,2.82,19.57,12.05,21.14,15.09,2.57,16.91-17,16.22-32.36a13.24,13.24,0,0,0,4.12-.09C642,976.15,641.61,952.72,626.26,944.86Zm-9.74-9.52c-1.95,0-3.71.11-5.4.29,1-2.27,1.84-4.41,2.61-6C618.53,919.52,631.46,935,616.52,935.34ZM543.77,956.8a14.47,14.47,0,0,1-5-3.28c4.85-2.62,9.34-5.62,11-11.66a14.93,14.93,0,0,0,7,3.79C554.49,953.27,550.31,959.23,543.77,956.8ZM575,944.1c5-1.08,7.41,2.45,7.82,7,0,.25-2.16,14.52-4.18,11.75-3.48-4.74-3.58-13-4-18.72Zm9.25-21c1.56,3.71,2.06,9.14,3.27,14.06a15.89,15.89,0,0,0-10.41-3.68,16.48,16.48,0,0,0-2,.11c0-.1,0-.21,0-.32C575.62,929.93,579.39,911.42,584.28,923.06Zm-26.34.94c.83,2.26,1.09,6.54.69,11.29a12.49,12.49,0,0,1-6.32-10.52C550.16,910,557.17,921.9,557.94,924Zm-27-6.23q.15-3.37.38-6.73c.6-9.68,5,5,5.86,6.82,4.6,9.48,5.48,21.38-4.78,26.47-1.49-2.81-2.9-5.76-4.41-8.59A103.55,103.55,0,0,0,531,917.77ZM508.38,935c.48-5.38,5.45-.78,9.06,3.46C514.22,946.08,507.55,944.31,508.38,935Zm18.13,26.89a18.87,18.87,0,0,1,3.68-3.46c.2.28.37.57.57.84a24.48,24.48,0,0,0,2.13,2.54A11.17,11.17,0,0,0,526.51,961.91Zm24.56,36.7q-6.72,7.73-5.79.41c-.21-3.49.16-7,.24-10.52.16-6.32,0-12.32-2.41-18.2a12.47,12.47,0,0,0-1.69-2.83,15.28,15.28,0,0,0,8.54.66C547,976.52,552.07,991.38,551.07,998.61Zm11.13-16.8c-.19,2.3-.62,5.4-.92,8.79a50.73,50.73,0,0,0-1-9C559.1,975.43,563.36,968.23,562.2,981.81Zm-1-21.66a33.85,33.85,0,0,0,4-6.22c.29,1.62.63,3.2,1,4.71a22.94,22.94,0,0,0,1.49,4.1A8.8,8.8,0,0,0,561.2,960.15Zm11,39.89a31.37,31.37,0,0,1-.5-4.33c-.58-5.22.61-11.41.82-16.71a29.68,29.68,0,0,0-1.2-10.49,17.06,17.06,0,0,0,7,5.55C574.93,982.07,574.49,991.76,572.18,1000Zm34.48-7.82c-.09.57-3.15,10.68-4.64,7.5-1.33-2.87-1.63-6.22-2.08-9.31-.7-4.85-.9-9.7-1.79-14.53-.56-3.11-3.37-9.93-7.29-12.06a34.43,34.43,0,0,0,1.65-17.22,9.42,9.42,0,0,0,2.55,1.42c-1.73,8.5,3.43,19.4,10.77,26.11C606.37,981.79,607.19,988.76,606.66,992.22Zm10-23.7a1.48,1.48,0,0,1-.13-.08c-.14-1.16-.27-2.2-.38-3-.43-3.43-2.16-17.08,8-9.71C621.72,960,619.21,964.24,616.7,968.52Z"/><path class="cls-5" d="M519.8,964.61c2.53-3.46,4.2-7.34,4-10.6a8.7,8.7,0,0,0-4.34-7.56,13.28,13.28,0,0,0,1.07-4.41c.29-4.2-1-7.08-3.2-9,3-4.49,5-9.87,1.9-14.41a9.22,9.22,0,0,0-2.84-2.69c1.94-4.22,1.57-9.32-2.14-12.7a6.18,6.18,0,0,0-1-.71c-.18-3.5-2.18-6.86-6-9.12-4.9-2.9-8.63-5.36-11.33-10.53a38.21,38.21,0,0,0-6.16-9.07c-4.71-4.88-9.09-.67-11.14,4a3.54,3.54,0,0,0-1.28,3c0,.26.09.51.14.75a33.48,33.48,0,0,0,.3,13.63,7.18,7.18,0,0,0-5.55,4.5c-1.66,3.76-.89,8.89.7,13.35a11.28,11.28,0,0,0-2.39,1.47c-5.57,4.58-4.22,12.34-.67,17.8a13.59,13.59,0,0,0-2.26,1.81c-4.84,4.93-2.06,14.5,2.09,20.16a6.07,6.07,0,0,0-2.26,2.67c-3.05,7.28,1,14.5,7.06,18.71a14.89,14.89,0,0,0-1.65,9.86c1.34,8.54,8.4,16.55,15.81,20.37,14.47,7.43,37-8.73,38-23.63C527.28,974.24,524.44,968.39,519.8,964.61Z"/><path class="cls-5" d="M664.12,964.49c-.25-.27-.54-.53-.82-.79,3.17-3.21,4.84-7.3,4.22-13a10.05,10.05,0,0,0-2.51-5.94c3.41-4.72,5.86-11.66,2.57-15.41a13.92,13.92,0,0,0-1.42-1.37,14.8,14.8,0,0,0,0-3.52c4-5.49,7.83-12.13,4.77-18.92-3-6.59-10.56-7-16.15-4-1.79.95-3.53,2-5.39,2.79-2.16.95-5.53-.39-7.86-.32a9.87,9.87,0,0,0-7.3,3,8.52,8.52,0,0,0-2.15,8.37,9.52,9.52,0,0,0-6.64,5.07,16.59,16.59,0,0,0-1,11.59c-1.54,1-2.59,2.65-2.77,5.57-.14,2.14,1,6.21,2.86,9.4-7.57,3.83-4.81,11.72-.38,17.16a10,10,0,0,0-1.7,7.83,14.7,14.7,0,0,0,5.57,9.3,18.9,18.9,0,0,0-4.48,6.37,11.06,11.06,0,0,0-5,7,5.71,5.71,0,0,0-.88,4.39,50.56,50.56,0,0,0-7.69,0c-5.5-5.14-13.49-7-19.71-4a13.1,13.1,0,0,0-4-1.46c-22.33-3.85-32.16,20-33.07,38.12-.79,15.84-1.9,32,2.07,47,.14,3.67,1,5.94,2.33,7.13a58.35,58.35,0,0,0,6.53,12.23,2.13,2.13,0,0,0,3.68-.2,3.9,3.9,0,0,0,2.43-.77c4.89-3.9,6.7-12.27,8.54-18,3.58-11.15,2.69-22.33,4.74-33.32a40.69,40.69,0,0,1,5-7.78c6,2.39,12,4.5,17.4,1.86a32.21,32.21,0,0,0,15.54,3.26,27.2,27.2,0,0,0,8.3-.53,21.75,21.75,0,0,0,10.51-5.61,11,11,0,0,0,2.23-.68,21.36,21.36,0,0,0,17.77-11,15.13,15.13,0,0,0,1.72-9.08c4.95-4.09,9.37-9.09,9.5-15.82A26.61,26.61,0,0,0,664.83,983C667.65,976.94,668.89,969.55,664.12,964.49Z"/><path class="cls-11" d="M671.45,873.62c-2.47-3.27-3.81-5.16-4.36-9.37-.34-2.64-.68-5.62-2.27-7.84-5.06-7.1-12-5-16.31.92-4.89-1.82-9.89,1.19-13,5.38-5.12-2.68-10.09,0-13.38,4.8a19.63,19.63,0,0,0-9.1-3.31c-4.68-.56-9.85,3.64-12.06,8.47-4.28-.58-7.94,2.84-11.19,6.73-4.2-6.68-15.51-4.09-20.19,1.83-3.53-2.67-8.73-3-12,.13a10.86,10.86,0,0,0-5-4.77c-3.2-1.51-5.65-1.29-7.36-.11a10.22,10.22,0,0,0-5-7.25,11.57,11.57,0,0,0-8.2-1.3c-.06-11.6-13.87-11.89-22.23-12-9.66-.17-19.87,1.23-22.89,11.8-2.86,10,6.3,20.63,14.89,24.7.19,4.59,4.87,10.12,8.91,12.74,3.8,2.46,7.53,3.74,12,2.55.16,0,.26-.13.41-.18,3.95,5.28,8.5,10,15.44,10.67a7.24,7.24,0,0,0,5-1.27c3.85,5.26,13.71,6.1,19.2,4.7a7.81,7.81,0,0,0,2.8-1.38c7.24,4.64,15.77,6.11,20.2-1.09,3.15,4,7.89,6.53,13.3,4.9,4.36-1.3,7-3.76,8.4-6.86,6,2.09,16.73,4,19.46-3.91.12-.34.17-.66.28-1,7.08,4.7,16.88,2.75,21.77-2.93,4.22,0,8.48-4.05,11.18-9.25a11.5,11.5,0,0,0,1.54,1.13c10,5.86,15.69-4.86,15.66-13.52C677.33,882.61,674.39,877.53,671.45,873.62Z"/></g><path class="cls-12" d="M544.59,1018.63c0-.16-.05-.33-.08-.49a22.62,22.62,0,0,0-7.41,3.9c-2,1.51-3.84,3.17-5.76,4.75a36.36,36.36,0,0,1-5.31,3.77c-1.44-3.23-5.18-5.53-9.57-5.53-5.64,0-10.21,3.79-10.21,8.46s4.57,8.46,10.21,8.46,10.2-3.79,10.2-8.46a3.17,3.17,0,0,0,0-.44,33.28,33.28,0,0,0,5.25-3.65c3.7-3.09,7.14-6.81,11.52-9q.65-.31,1.32-.57A7.24,7.24,0,0,1,544.59,1018.63Z"/><path class="cls-13" d="M623.71,1009.22c-16.08,13-22.57,3.75-22.57,3.75-17.86-13.8-32-12-32-12s-14.11-1.77-32,12c0,0-6.48,9.26-22.57-3.75,0,0-16.88-7.49-11.58,12,0,0,3.14,9.06,3.53,16A18.67,18.67,0,0,1,514,1026s-10-4.89-5.49-11,7.46-.22,11.78,2.14,9,7.1,20.81-.58c0,0,5.1-4.54,3.14,9.46s10.8,20.69,11.58,23.26-7.06,10.44-4.91,20.69,10.21,16.73,11.59,22,1.37,4.71,1.37,4.71h10.56s0,.62,1.37-4.71,9.42-12.1,11.58-22.35-5.69-18-4.9-20.55,13.54-9.18,11.58-23.18,3.14-9.42,3.14-9.42c11.77,7.69,16.49,3,20.8.61s7.27-8.27,11.79-2.14-5.5,11-5.5,11a18.59,18.59,0,0,1,7.45,11.24c.4-6.9,3.53-16,3.53-16C640.59,1001.73,623.71,1009.22,623.71,1009.22Z"/><path class="cls-14" d="M567.64,1094a15.36,15.36,0,0,1-.44-2.13c-.77-3-2.64-6-4.81-9.18-2.64-3.91-5.63-8.45-6.72-13.61s1.17-9.52,3-13.08c1.43-2.86,2.67-5.36,1.83-8.12-.57-1.88-1.92-3.16-3.77-4.92a31,31,0,0,1-5.7-6.62,14.34,14.34,0,0,1-2-9.64c1-7,.51-11.09-1.6-13.53a5.59,5.59,0,0,0-.78-.76,51.36,51.36,0,0,1,10.87-4.93,33.85,33.85,0,0,1,10-1.71c.62,0,1,0,1.09,0l.67.1.5-.1c.1,0,.48,0,1.08,0a33.85,33.85,0,0,1,10,1.71,51.36,51.36,0,0,1,10.87,4.93,5.59,5.59,0,0,0-.78.76c-2.11,2.44-2.59,6.49-1.61,13.53a14.31,14.31,0,0,1-1.94,9.63,31,31,0,0,1-5.7,6.62c-1.85,1.75-3.2,3-3.77,4.9-.85,2.76.4,5.23,1.83,8.09,1.79,3.57,4,8,3,13s-4.08,9.58-6.72,13.49c-2.17,3.21-4.05,6.43-4.81,9.41a17.05,17.05,0,0,1-.44,2.13Z"/><path class="cls-12" d="M593.75,1018.63c0-.16,0-.33.08-.49a22.72,22.72,0,0,1,7.41,3.9c2,1.51,3.83,3.17,5.75,4.75a36.44,36.44,0,0,0,5.32,3.77c1.43-3.23,5.18-5.53,9.57-5.53,5.64,0,10.2,3.79,10.2,8.46s-4.56,8.46-10.2,8.46-10.2-3.79-10.2-8.46c0-.15,0-.3,0-.44a33.66,33.66,0,0,1-5.24-3.65c-3.7-3.09-7.14-6.81-11.51-9-.45-.21-.88-.4-1.33-.57A7.24,7.24,0,0,0,593.75,1018.63Z"/><path class="cls-15" d="M478.6,760.74c-8.77-7.48-10.54-20.53-10.68-31.9-.44-35.43,7.87-73.89,23.19-105.84a95.42,95.42,0,0,1,9.24-15.77c6.14-8.21,11.23-18.28,19.16-24.93,8.56-7.18,19-5.13,24.17,4.87,5.69,11,5.43,24.8,4.65,36.82-.56,8.86,3.92,15.45,8.49,22.55a44.28,44.28,0,0,1,7.51,22.57,392,392,0,0,1,0,42.4c-.66,11.72-1.11,24.37-4.69,35.64-.9,2.84-2.53,7.55-5.37,9.17-10.35,5.89-22.57,8-34.27,9.3s-24.77,3.73-36-1.46A23.27,23.27,0,0,1,478.6,760.74Z"/><path class="cls-16" d="M659.73,760.74c8.78-7.48,10.55-20.53,10.69-31.9.43-35.43-7.88-73.89-23.19-105.84A96.13,96.13,0,0,0,638,607.23C631.85,599,626.75,589,618.83,582.3c-8.56-7.18-19-5.13-24.17,4.87C589,598.13,589.23,612,590,624c.57,8.86-3.91,15.45-8.49,22.55a44.27,44.27,0,0,0-7.5,22.57,394.53,394.53,0,0,0,0,42.4c.66,11.72,1.11,24.37,4.7,35.64.9,2.84,2.53,7.55,5.36,9.17,10.36,5.89,22.58,8,34.27,9.3s24.77,3.73,36-1.46A23.27,23.27,0,0,0,659.73,760.74Z"/><path class="cls-17" d="M663.66,693.84c-10.46-2.1-17.39-10.48-24.69-17.57-.1-.19-.19-.38-.3-.56a1.91,1.91,0,0,0-.14-.21,11.57,11.57,0,0,1,1.75-.77c2.48-.82,4,.1,5.86,1.59a9.45,9.45,0,0,0,6.13,2.34c.25,0,.23-.34,0-.4-3.75-1.13-4.95-5.23-8.43-6.72a11.12,11.12,0,0,0-9.5.62c-6.44-5.24-14.61-9.48-22.85-6.35-.47-.86-.94-1.77-1.43-2.63-1-1.74-2-3.73-3-5.16h0c3.89,0,7-1,11-.43a37.5,37.5,0,0,0,9.22.47c.84,1.07,2.1,2.08,2.87,2.9a30.27,30.27,0,0,0,5.23,4.63c2.89,1.89,6.1,2.61,9.07.47a.49.49,0,0,0-.44-.86c-3.55,1.27-6.74-2.27-9-4.59-.84-.86-1.82-2.26-2.9-3.53,3.86-1.25,7.56-3.56,8.95-7.35a.32.32,0,0,0-.4-.44c-2.89.64-5.23,2.83-8,3.81a22.86,22.86,0,0,1-10.71.85c-5.39-.73-11.06-2.33-16.14.4a1.58,1.58,0,0,0-.61.59q-2.62-4.19-5.45-8.24c2.94-1.25,5.09-4.48,7.94-6.06,4.06-2.25,8.29-2.28,12.79-2.32,7.39-.08,12.68-1.49,15.57-8.8,0,0,0-.06-.07,0-5.83,7-14,4.28-21.7,4.85.12-2.61,0-5.24.7-7.78.89-3.15,1.88-6.22,2.47-9.46a.09.09,0,0,0-.16-.05c-1.3,3.1-3.5,5.63-4.93,8.66s-1.69,6.25-2.81,9.35v0a21,21,0,0,0-6.27,2.64c-2.17,1.38-4.83,2.9-6.3,5.09a130.64,130.64,0,0,1-11.38-17.73c-6.38-12.56-13.23-27.16-14.62-41.07-.78-7.73,2.16-47.92,2.31-54.86h-5c-1.07,3.1-1.25,27.58-1.24,30.79.26,8.69.16,17.75,0,24.81-.31,14-6.21,25.23-11.6,38.24a130.45,130.45,0,0,1-10,18.57c-1.64-2.07-4.41-3.38-6.69-4.58a20.79,20.79,0,0,0-6.44-2.14l0,0c-1.36-3-1.87-6.2-3.53-9.1s-4-5.26-5.59-8.25a.08.08,0,0,0-.15.06,96,96,0,0,0,3.2,9.24c.92,2.48,1,5.11,1.3,7.7-7.76,0-15.65,3.38-22-3.12,0,0-.07,0-.05,0,3.44,7.06,8.82,8,16.19,7.54,4.5-.3,8.72-.61,12.94,1.32,3,1.35,5.36,4.4,8.39,5.42-1.67,2.83-3.27,5.72-4.8,8.64a1.43,1.43,0,0,0-.66-.54c-5.27-2.32-10.8-.28-16.11.86a22.85,22.85,0,0,1-10.75,0c-2.85-.76-5.35-2.76-8.28-3.18a.33.33,0,0,0-.36.48c1.68,3.67,5.54,5.69,9.49,6.62-1,1.35-1.84,2.82-2.61,3.75-2.07,2.49-5,6.27-8.61,5.28a.49.49,0,0,0-.37.9c3.13,1.9,6.27.93,9-1.17a30,30,0,0,0,4.86-5,37.93,37.93,0,0,0,2.63-3.09,37,37,0,0,0,9.15-1c3.89-.88,7.06-1.6,11-.18h0c-.88,0-1.77,3.32-2.62,5.13-.42.89-.83,1.66-1.23,2.56-8.46-2.47-16.26,2.35-22.28,8.09a11.1,11.1,0,0,0-9.52.1c-3.35,1.76-4.23,5.94-7.88,7.35-.2.08-.2.42,0,.4a9.52,9.52,0,0,0,5.93-2.82c1.78-1.64,3.19-2.67,5.72-2.05a13.75,13.75,0,0,1,1.81.63,1.59,1.59,0,0,0-.13.22,6.14,6.14,0,0,0-.25.59c-6.73,7.64-13,16.53-23.24,19.46a0,0,0,0,0,0,.07c9-1,15.45-7.3,21.63-13.37-.8,6.15.08,12.61-1.92,18.57,0,.08.1.14.15.06,4.25-7.26,3-16,6.72-23.37a42.4,42.4,0,0,1,7.95-5.93,25.2,25.2,0,0,1,6.49-2.44,19.94,19.94,0,0,1,6.4-.08c-1.62,4-3.15,8.08-4.69,12.14C522.69,691,520,698.71,519,706.84c0,.16.2.22.24.07,1.59-8,4.78-15.48,8.06-22.9,1.9-4.3,3.8-8.58,5.81-12.82a2.58,2.58,0,0,0,.64-.25,133.67,133.67,0,0,0,3.7,16.26,2.47,2.47,0,0,0-.24.29c-4.08,6.28-2.66,12.2-1.78,19.09,0,.15.25.16.24,0-.21-5,.51-10.94,3-15.52.07.24.14.48.22.71,2.53,7.86,6.61,15,8,23.23,0,.17.27.14.32,0,2.19-7.33-1-14.18-3.51-21a105.69,105.69,0,0,1-3.73-12.56,37.81,37.81,0,0,1,3.63,1.35c2.84,1.37,5.11,2.78,6.19,5.9.12.34.65.21.55-.15a16.24,16.24,0,0,0-3.73-6.71c-1-1-2.13-1.79-3.15-2.73a19,19,0,0,0-3.49-3,2.24,2.24,0,0,0-1.19-.26c-.58-3.07-1.07-6.14-1.46-9.19a2.19,2.19,0,0,0-1.1-1.65c.3-.56.59-1.13.89-1.7a209.68,209.68,0,0,1,12.14-19.79c4.18-6.09,8.51-11.85,11.78-18.51a105,105,0,0,0,8.2-24.12,107.13,107.13,0,0,0,11,26.63c3.79,6.39,8.54,11.8,13.18,17.54A206.11,206.11,0,0,1,607,663.76l1,1.63a2.17,2.17,0,0,0-1,1.73c-.15,3.07-.39,6.17-.73,9.27a2.24,2.24,0,0,0-1.17.35,18.47,18.47,0,0,0-3.24,3.31c-1,1-2,1.89-2.93,3a16.42,16.42,0,0,0-3.2,7c-.07.36.47.46.57.1.83-3.19,3-4.77,5.7-6.37,1.12-.65,2.35-1.09,3.51-1.62a105.21,105.21,0,0,1-2.73,12.81c-2,7-4.62,14.11-1.87,21.24.06.14.3.15.32,0,.75-8.32,4.26-15.76,6.18-23.79.06-.24.11-.48.17-.73,2.8,4.38,4,10.21,4.16,15.24a.12.12,0,0,0,.24,0c.34-6.94,1.3-13-3.26-18.89a1.72,1.72,0,0,0-.27-.27,129.45,129.45,0,0,0,2.43-16.5,2.31,2.31,0,0,0,.66.2c2.34,4.07,4.57,8.2,6.8,12.33,3.85,7.14,7.6,14.34,9.81,22.19,0,.16.27.07.23-.08-1.7-8-5-15.54-8.45-22.92-1.86-3.93-3.7-7.86-5.63-11.74a20.37,20.37,0,0,1,6.39-.42,25.05,25.05,0,0,1,6.66,1.93,42.12,42.12,0,0,1,8.38,5.28c4.25,7.1,3.72,15.87,8.53,22.78.05.07.18,0,.14-.08-2.46-5.78-2.08-12.29-3.36-18.35,6.63,5.56,13.58,11.38,22.6,11.62C663.7,693.93,663.7,693.85,663.66,693.84Z"/><path class="cls-18" d="M619.17,671.67c1-.36,2.1-.73,3.27-1a15.74,15.74,0,0,0-3,.41,3,3,0,0,0,1.58-2.3c-.35,1.32-1.91,2.19-2.79,2.59a26.7,26.7,0,0,0-7.1,3.19,23.08,23.08,0,0,0,1.73-8.77,9.78,9.78,0,0,0-2.12.25C609.12,679.45,600,680.72,600,680.72c-1.7-3.64-6.22-5.7-6.22-5.7-3,2.6-3.41,8.91-3.88,10.44s-2.4,1.64-6.49,2.39-3.88,2.12-7.68,2.34c-5.31.31-8.38-6.26-6-10.94,2.06-4,7.89-3.84,7.89-3.84,1.37-.34,2.49-2.37,4.05-5.21a12.23,12.23,0,0,1,4.71-4.44s-3.78-8.47-18-5.48-22.33,11.28-22.82,23.38c0,0-7.78,3.28-10.52,9.58s-2.46,35.82,11.77,46c0,0,4.09,15.91,15.82,20.11s16.13-3.21,22.8,3.16,16,13,29.65,8.3c10.24-3.55,20.82-9.51,19-25-1.25-10.75-6.32-22.71-11.46-31.88s-11.44-17.21-18-25.08l-1.37-1.67-.41-1.65a8.77,8.77,0,0,0,4.41-3.89,50.58,50.58,0,0,0,2.83-4.92,29.79,29.79,0,0,1,7.24-4.28,9.29,9.29,0,0,1,7.86,2A7.6,7.6,0,0,0,619.17,671.67Z"/><path class="cls-19" d="M641.49,684.16s-5.06,1.31-10.91-4.12a86.13,86.13,0,0,0-7.92-6.67,12.53,12.53,0,0,0,11.75-4.08c-5.14,4.58-12,2.94-14.8,2-1.24-.77-2.53-1.51-3.86-2.17,9.39,1.27,11.33-5.09,11.33-5.09-3.46,6.45-13.54,3.42-13.54,3.42a10.76,10.76,0,0,0,3.61-1.76c4.64-3.18,4.26-8.36,4-8.69s-.5,4.81-4.5,7.65c-2.45,1.75-5.9,2-8.18,1.9a21.09,21.09,0,0,0-9.41.12c-12.27,3.12-24.51,13.7-24.51,13.7a11.43,11.43,0,0,0-2.64,5.45c-.42,3-.72,5.15-1.82,5.9,0,0-5.15,1.78-5.62,6-.55,4.9,4.32,9.62,8.86,7.59,3.25-1.46,2.62-2.57,5.95-4.6s5-2.76,4.89-4.26-1.85-7.14-.09-10.42c2-6.57,8.69-11.56,11.8-13.53a9.25,9.25,0,0,1,1.77-.92s5.06-3.38,7.85-2.39a27.09,27.09,0,0,1,9.91,7.18c1.33,2,3,6.13-.86,10.53a7.6,7.6,0,0,0,2.65-8.26,23.28,23.28,0,0,1,4.13,10.79s2-11.29-10.91-19.52a45.9,45.9,0,0,1,13.33,8.19c.3,2.49,1.75,12.32,6.84,17.6a45.48,45.48,0,0,1-4.35-10.06,11.58,11.58,0,0,0,5.21,5.26,18.82,18.82,0,0,1-5.92-8.28,25.9,25.9,0,0,1-.32-3.14c4.76,4.73,8.73,11.31,8.34,20a9.87,9.87,0,0,0,.58-2.36c.06.88.15,1.91.23,3.15a23,23,0,0,0,1.41,7.09,37.93,37.93,0,0,1-.87-7.84,25.8,25.8,0,0,0-.73-6.12,22.3,22.3,0,0,0-.4-2.38c5.25,6.81,10.16,9.11,10.16,9.11a36,36,0,0,1-6.5-6c5.3,3.24,8.71,1.38,8.71,1.38-3.84,1.14-7.69-1.08-9.95-2.81-1.21-1.41-2.23-2.71-2.94-3.62a31.4,31.4,0,0,0-4.09-8.15S637.27,686.27,641.49,684.16Z"/><path class="cls-20" d="M699,1843.76c-4.08-7.16-8.73-25.22-12.36-39.51-2.91-11.39-6.82-23.21-8.29-27.56-.72-2.89-1.48-5.69-2.24-8.27,1.33,1.87,2,1,4.28,3.32,3.07,3,3.64,8.38,4.28,12.64s.13-1,.13-1c-.74-10.79-4-13.26-6.69-15.49a15.09,15.09,0,0,1-3.56-4.61c-1.71-5.42-3.15-9.49-3.58-11.15-1.12-4.3-1.65-8.32-2.65-18s-4.36-30-4.91-33.36a35.31,35.31,0,0,1-.31-4c0-.33.09-.66.12-1,.86,9.18,5,10.41,6.94,14.26,2.73,5.37,4.36,8.85,4.18,16.19-1.39,9.33-2.21,22.12-1.76,27.46.47,5.75.24.75.24.75-.4-5.57.66-16.62,1.32-22.68a74.78,74.78,0,0,0,.93,16.29c1.3,7.69,3.48,12.12,1.81,6.93s-2.65-16.29-1.62-28.72a34.59,34.59,0,0,0,0-5.94,51.25,51.25,0,0,1,3.88,17.62c.36-7-2.91-17-4.48-21.43-1.48-6.4-5-10.71-8-15.17-2-3-2.56-9.11-2.57-14.44,1.1-11.74,1.75-23.31,1.95-34.81a468.32,468.32,0,0,0-2.49-62.21c-.56-6.24-1.37-12.52-2.29-18.81,2.16,7.53,5.83,18.18,9.49,35.23l0,.25s1.81,7.89,2.17,22.36c-8,46.89-6.06,59.27-6.06,59.27-1.19-12.88,4.48-46.64,6.12-56a244.17,244.17,0,0,1-2.37,34.93s4.38-24.37,2.86-47a197.73,197.73,0,0,1,2.16,50.9c3.23-29.74-1.32-63.73-9.65-88.77a249.38,249.38,0,0,1-6.9-26c0,.35.05.63.08,1-2.43-15-5-29.85-6.3-44.26-.25-3-.48-5.92-.61-8.84a122.87,122.87,0,0,1,1.28-22.49c-.17,4.41.15,12.55,3.32,23.77,3,10.5,7.71,22.49,11.65,34.53-.62,53.54,6.33,61.44,6.33,61.44-5.71-20-5.66-51.33-5.55-59A147.76,147.76,0,0,1,674,1560.8c2.85,16,1.3,24,5.84,35.75a77.52,77.52,0,0,1-3.18-18.34,159.34,159.34,0,0,0-2.39-23.55,203.08,203.08,0,0,1,7.33,31.69c-.51-11.43-5.8-28.92-8.59-37.5-.84-3.44-1.85-7.07-3.18-11-3.47-10.19-8.7-25.79-11.71-41.79,1.73-6.47,3.07-11.87,4.09-16.47,3.69-14.78,5-23.07,1.06-41.64-2.07-12.32-1.46-11-5.32-32.27-.64-3.7-1.19-7.46-1.71-11.26-2.63-20.06-3.82-43.55-3.82-43.55s0,.72,0,2.07c-1.08-18.63-1.59-37.56-2.39-55.9-1.45-33.26,3.18-66-.15-98.85-2.26-22.42-4-45.27-4.11-68.23,1.91,8.38,5,21.35,7.87,31.47,6.46,22.64,13.61,47.74,10,73.86-1.34,9.8-2.59,20.52-3.28,31.5-.47,6.81-.67,13.69-.54,20.48,0,.28,0,.56,0,.84,0,.84,0,1.68.08,2.52a146.49,146.49,0,0,0,3.42,28.45,164,164,0,0,1,3.52,22.49,38.2,38.2,0,0,1-.7,7.65c-1.13,5.41-3.53,12.55-4.88,21-1.06,4.67-2.33,10.23-3.33,14.45,0,0,1-3.21,2.91-11.42a64.7,64.7,0,0,0,.79,21.48s-1.5-12.14.08-22.88c.07-.52.17-1,.25-1.51-2.65,17.58,3.22,29.15,3.22,29.15-6.26-15.14-1.6-36-.76-39.49a96.74,96.74,0,0,0,2.91-11.74c.65,10.53.7,21.35.78,32.77.05,5.84.27,11.59.44,17.17.12,4.19.5,9.91-.57,13-1,2.79-2.7,1.41-4.43-.26,1.82,3.63,3.75,4.36,4.75.84-.63,4-3,5.8-5.19,1.52-2.71-5.37-4.63-14.12-5.79-20.71,1.1,7.12,2.87,16.88,5.95,22.49.91,1.62,1.5,3.07,4.1,3.71-3.56,2-6.91-9.25-8.33-13.59a40.91,40.91,0,0,0,4.56,12.8c3.24,5.52,5.82,2.72,7-2.57a50.91,50.91,0,0,0,.83-8.43c.46,5.79.07,11.6-2.33,14,4.73-1.53,3.33-15.23,2.76-23.25-1.39-19.59.06-40.6-2.54-60,1.21,4.48,2.8,10.09,4.81,18.18,3.4,13.65,4.35,35.86,4.35,35.86.07-8.71-.63-24.89-2.92-35.15-1.94-8.71-7.29-27.65-8.87-33.2-1.19-5.29-2.43-10.52-3.37-16.36a146.23,146.23,0,0,1-1.74-26.78c.2-7.13.84-14.25,1.59-21.35-.38,9.44,0,19.36,2.38,27.93l.72,2.56a179,179,0,0,1,2.16,23,162.43,162.43,0,0,0-1.2-19.6c3,10.87,4.79,18.26,4.79,18.26-.3-4.17-3.45-15.84-5-22.65s-3.35-13.49-2.58-30.93,2.15-33.12,2.15-33.12c-.14,1.63-.28,3-.42,4.33.26-4.11.4-8.21.38-12.32,1.39,4.15,2.92,8.46,4.47,13.19,4.77,14.6,4,37.79,3.86,40.9a150.31,150.31,0,0,0-2.76-41,19,19,0,0,0,3.07,3.66c2.76,2.7,4.63,11.2,4.63,11.2-.6-3.85-1.84-9.51-4.79-12.76-1.87-2-3.79-6.89-4.48-8.76-.72-2.69-1.47-5.33-2.32-7.87-.75-2.27-1.39-4.57-2-6.86a103.36,103.36,0,0,0-2.55-17.3q-1.46-6.06-3-12.11c-.52-2.16-1-4.08-1.45-5.71-5.27-20.68-10.68-41.61-13.2-63.8.41-18.22.36-32.71.24-43.53,0-4.12,0-6.93,0-7.31s0-.79,0-1.18c.42,1.5.88,3,1.37,4.45,2.83,8.81,6.66,17,10.26,25,.83,4,1.68,11.26.81,23.16-1.46,19.75-3,35.65,1.53,54.5a124.24,124.24,0,0,1-2.42-32.94c.44-6.35,1.17-12.62,1.7-18.73-.17,16.25-1.56,27-.41,16.75.12-1.07.22-2.17.31-3.3.23,2.82.55,6,1.08,9.46,1.91,12.38,4.39,17.57,4.39,17.57-3-8.9-4.63-22.42-5.24-30v0c.49-7.64.5-15.71.47-19.7a78.79,78.79,0,0,0-.52-13c1.41,3.16,2.75,6.29,4,9.4.28.73.54,1.46.81,2.19,1.27,5.47,3.4,17.2,4,35.44A76.83,76.83,0,0,1,666.8,1151c-1.61,7.69-3,16.06-1.41,22.61a49.24,49.24,0,0,1,.4-13.93c1-5.61,2.22-9.5,2.78-15.08.48,15.93,1.8,25.2,2.61,29.4,0,0-1.5-12.84-1.81-26.73-.24-10.5.23-23.27-1.93-36.29,4.2,13.71,6.36,28,6.2,49.67a192.76,192.76,0,0,0,1.47,26.84c-2.59,25.63-.48,32.24-.48,32.24-1.47-8.18.18-24.29.82-29.85a62.38,62.38,0,0,0,2.17,10.06c-3-13.61-1.92-39.67-3-61.23.09.61.18,1.18.28,1.83,1.16,7.46,2.21,10.88,3.47,13.55a106.23,106.23,0,0,1,2.86,24.18s.84-9.4-2.12-22.73c.73,1.35,1.54,2.67,2.48,4.46a36.34,36.34,0,0,1,3.62,12c0-5.9-2.94-12.8-5.16-16.47s-3.17-7.43-4.61-17c-1-6.65-1.94-12.67-2.37-15.43a1.3,1.3,0,0,0,0-.21l-.22-1.41,0,0a147.29,147.29,0,0,0-6.14-22.85,62,62,0,0,0,7.23,8.37c8.52,8.17,9.91,21.94,10.06,23.85-1-18.2-8.71-23.59-14-30a58.52,58.52,0,0,1-5.56-8.4c-4.21-10.86-9.1-21-13.43-30.57a34.84,34.84,0,0,1-1.64-4.57h0a88.27,88.27,0,0,1-2.8-17c2.36,11.5,7.51,15.84,10.85,19.35,1.22,1.28,2.43,2.74,3.62,4.21a100.58,100.58,0,0,1,3.3,18.81s.36,2.86.08-1.28a118,118,0,0,0-2.26-16.16,51.31,51.31,0,0,0,4.57,5.16,27.77,27.77,0,0,1,3.65,9.5c1.19,6.56,1.85,21.65,4.37,24.25,0,0-1.62-3.14-2.54-13.08-.63-6.91-1-10.77-1.69-13.57-.32-1.22-.35-1.2,1,1.31s5.87,12.34,6.88,14.38-2.53-7-5-12.34c-1.46-3.06-3.5-6.62-5-9.1a4.07,4.07,0,0,0,2.51.85c6.7-.67,11.84,9.19,11.84,9.19-4.75-11.88-10.81-10.47-12.95-11.23s-6.26-7-14.42-15.83c-5.26-5.73-7.78-19.35-8.92-28.32,0-1.2,0-2.38,0-3.52,0-6.24,0-12.41-.08-17.87-.1-4.65-1.22-11.81-2.74-19.57-.26-1.63-.55-3.26-.86-4.89,2.3-5.93,8.94-21.17,16.28-20.57,9.1.74,1.59,29.65,1.59,29.65a38.39,38.39,0,0,0,1.89-5.54c6.54,16-5.85,39.61-5.85,39.61s9.24-12.24,10-25.82c.57-10.25-2.08-15.48-3.3-17.31,2.19-10.15,2.85-23.71-4.55-24.25-8.4-.6-15.35,12.53-17.51,17.1-2.35-10.91-5.33-21.83-8.1-32.23-7.5-30.95-10.45-67.66-11.6-101-1.74-50.57-.83-94.75-.57-143.91.24-12.44.52-20.77.52-20.77-4.62,0-5.23,0-9.85,0h-.45c1.15,81.32-1.68,138,1.81,188.51,1.24,23.63,3.57,43.77,8,60.93,5.65,22,9.88,43.24,13.57,61.31,1.07,6.58,2,13.31,2.72,20.6,2.16,24.43,2.51,43.8,2.56,50.29,0-.14.06-.31.08-.46.12,6.29.19,13,.23,20.28,0,4.32.11,8.71.22,13.13q-.08,9.16,0,18.28a107.49,107.49,0,0,1-5.18,28l-1,2.87c-1,2.35-3.25,7.44-5.42,9.85-3.61,4-5.51,9.36-6.33,12.79,0,0,2.68-7.68,6.06-11.08a33.32,33.32,0,0,0,3.13-3.55c-4.19,13.88-7,28-5.28,42.85,0,0-1.18-19.93,5.37-37.66,3.21-8.67,6.07-16.06,8.06-23.14-.62,8.66-1.64,21.89-3.15,37.6a256.41,256.41,0,0,1-3.67,26.15c0,.22-.1.48-.16.69l.07-.23a136.21,136.21,0,0,0-3,21.63s.74-8.21,5-27.6c.18-.81.31-1.58.47-2.38-.11,4.11-.43,11.4-1.34,20.82-1.44,14.85-2.85,23.47-2.83,27.88a211.78,211.78,0,0,0,3-21.92c1.3-14,2.25-21.84,2.21-31.78.44-2.45.81-4.83,1.15-7.17,0,6,0,12.36,0,19,0,13.64-1,33.11-2.06,50.66-.36,4.14-.75,8.42-1.21,13,0,0,.44-3.81,1-10-1.37,21.06-2.87,38.61-2.85,38.62s2.66-22.3,4.67-51.25c.15,3.6.73,7.52,1.4,16.51,1.4,18.9,1.33,43.75,1.33,43.75,1.32-16.1-.62-51.06-1.38-57.38a122.7,122.7,0,0,1-.62-14.26c.84-14.27,1.44-29.56,1.46-44.27,0-9.15.12-17.08.22-23.14.36-4.74.61-8.89.88-12.31.28,2.34,1,8.39,1.85,16.52.78,11.47,1.79,23,3.11,34.47.13,1.16.26,2.3.39,3.43.22,3,.43,6,.62,9,.33,12.7.33,25.11-.29,37C643,1302.16,648,1362.66,655,1422.28c1.67,14.2.11,26.64-1.91,38.77a69.79,69.79,0,0,1-4,12.83,70.93,70.93,0,0,0-4.94,14.07c-1.44,4.77-3.73,13.73-3.56,21.81a90.6,90.6,0,0,1,2.62-16.78,57.66,57.66,0,0,0,1.72,24.19,65.08,65.08,0,0,1,2-34.15c1.56-4.46,3-8.14,4.36-11.43-2.08,12.21-3.82,24.51-2.34,38.41,1.85,15.83,4.1,31.45,6.28,47L659,1691.1c-.32,4.85-.49,9.36-.42,13.13,0,0,.12-4.1.5-10.26l.35,12.27c-1.77,14.28-3.81,28.42-5.45,43.21,0,0,0,.48-.07,1.26a143.86,143.86,0,0,0-.52,20.84c.64,14.51,0,18.87.84,23.32.08.44.14.76.18,1a70.94,70.94,0,0,1-.35-10.33c.17-5.56-.06-9.91-.19-14,0,.4.1.79.16,1.13,1.11,6.44,2.6,9.76,3.83,21.93s3.23,24.9,6.31,35.4c3.75,12.76,4.74,26.54,4.69,23.79-.08-4-1.94-16.26-4.75-26.32-.17-.59-.33-1.23-.5-1.92,1.59,4.55,3.56,6.16,5,8.59a29.45,29.45,0,0,1,3,7.15c-.91-6.12-3.81-9.48-6-13.31a42,42,0,0,1-3.37-9.21,300.93,300.93,0,0,1-3.94-31.33s3.07,5.29,6.82,25.61c2.29,12.38,4.37,16.12,8.23,20.16,3.57,3.72,12.73,12.68,18,27.57a54.74,54.74,0,0,0-4.54-11.82,114.35,114.35,0,0,1-3.16-18.52c2.28,16.37,7,26.38,4.34,18.18-3.22-9.81-4.23-19.39-4.82-29.36,0-.47,0-.73,0-.73s-.05-.25-.07-.38c-.41-7.28-.64-14.78-1.37-22.72-.24-2.68-.62-5.39-1.09-8.08,1.53,4.67,3.73,11.61,5.15,16.56.87,3,2.08,7.48,3.4,12.25,0-.1-.07-.17-.11-.29,1.81,20.74,8.82,32.61,8.82,32.61-5.91-12.1-7.6-25.94-8-29.64,2.15,7.67,4.47,15.62,6.06,19.29C698.7,1844.58,703.05,1850.88,699,1843.76Zm-42.71-378.84a157.33,157.33,0,0,0,2.89-23.25,119.16,119.16,0,0,0-.11-18.29c1.07,6.47,3,16.26,4.68,27.09,2.51,16-2.64,30.25-4.14,36.74-.48,2-1.16,5.09-1.71,7.62C656,1484.52,655.13,1474.13,656.26,1464.92ZM640.44,1141.6c0-.2,0-.45,0-.65.26-3.09.37-6.44.39-9.59.28,8.05.71,16.07,1.23,24.1C641.32,1148.57,640.7,1143.61,640.44,1141.6Zm5.56,56.53c.09.89.19,1.78.28,2.64,0,1.14.07,2.26.1,3.4C646.26,1202.15,646.13,1200.13,646,1198.13ZM655.22,1557c4,28.5,7.68,56.89,8.15,86.28-.33,4.89-.86,11.77-1.69,19.35-1,9.35-2.1,19.4-2.69,28.24C657.92,1652.67,655.78,1576.8,655.22,1557Zm3.85,136.75c.34-5.35.89-12.22,1.76-19.35,1-7.75,1.94-14.66,2.57-21,0,3.88-.13,7.77-.3,11.69-.62,14.22-2,27.68-3.68,41C659.33,1703,659.21,1698.74,659.07,1693.79Zm14.63,129c0,.22-.05.42-.08.64-2.64,14.81-1.92,24.23-1.6,27-2.27-8.07-5.81-15-8.22-20.66-3.8-8.94-3.94-6.91-3.7-28.53s-1.69-18.48-2.17-32.32c-.48-13.44,8.75-34.08,18.24-61.3.44,2.49,1.23,5.7-.47,23.72-.1,1-.19,2-.28,3.06-.52,1.85-1.29,4.62-2.18,8-.11.3-9.11,25.38-11.91,41.56s3.75-18.74,8.93-30.12c1.13-4.61,1.74-6.94,2.9-11.17-1.85,7-4.2,16.42-5.87,25-3.19,16.37-4.31,28.19-3.18,35.78s-1.32-7.26,1.89-24.2c2.4-12.6,6.79-30,8.77-37.18-.06.79-.13,1.57-.18,2.37a77.92,77.92,0,0,0-.17,12.32c.56,5.83,1.61,10.87,2.22,17.73a112.94,112.94,0,0,1,.68,16.91,76.67,76.67,0,0,1-2.45,10.17c-3.2,10.57-7.78,25.42-7.51,33.62,0-1.17.34-6.14,2.69-15.39,2.63-10.3,5.35-16.54,7-23.65C676.48,1803.26,675.5,1810.34,673.7,1822.83Z"/><path class="cls-21" d="M586.35,411.16h0l5.88-2.59c14.51-6.43,31.36-5.8,37.5-5.29,3.53-2.17,7.15-7.73,6.52-21.59a57.43,57.43,0,0,0-5.3-21.47c-.58.71-1.17,1.39-1.77,2.06-2,2.23-4,4.53-5.08,8.27a1.87,1.87,0,0,1-1.76,1.4,1.46,1.46,0,0,1-.54-.09,2,2,0,0,1-1.22-2.49c1.32-4.64,3.78-7.41,5.95-9.85a29.45,29.45,0,0,0,2.47-3,51.9,51.9,0,0,0-19.28-19.32,34.93,34.93,0,0,0-6.39,9.56,1.84,1.84,0,0,1-1.66,1.13,1.66,1.66,0,0,1-.8-.2A2.08,2.08,0,0,1,600,345a39,39,0,0,1,6.24-9.7,68.19,68.19,0,0,0-6.39-2.74,2,2,0,0,1-.37.35,15.75,15.75,0,0,1-8.9,3,10.75,10.75,0,0,1-6.68-2.15,2.09,2.09,0,0,1-.42-2.78,1.75,1.75,0,0,1,2.57-.46c2.18,1.7-1,17.8,8.86.47s-10.51-2.51-16.69-3.09l-.36,0c-.77,6.81-5.45,12.78-11.18,16.65,2.9,1.33,6.81,2.22,10.08-.25a1.76,1.76,0,0,1,2.57.49,2.11,2.11,0,0,1-.46,2.78,11.15,11.15,0,0,1-6.87,2.25,17.66,17.66,0,0,1-8.75-2.64c-1.67,2.22-1.54,5-1.18,9,.3,3.29.63,7-.87,10.4a1.85,1.85,0,0,1-1.66,1.13,1.66,1.66,0,0,1-.8-.2,2.06,2.06,0,0,1-.86-2.66c1-2.26.82-5,.57-7.83-1.94-1.06-4.58-2-6.61-1.08-1.49.71-2.58,2.43-3.24,5.12a1.87,1.87,0,0,1-1.78,1.48,1.84,1.84,0,0,1-.47-.06,2,2,0,0,1-1.31-2.45c1-3.92,2.75-6.52,5.32-7.74,2.22-1.06,4.84-1,7.8.25,0-3.54.69-7.1,4.19-9.89l0,0a.12.12,0,0,1,.05-.05l.13-.08.11-.08c5.84-3.24,10.73-8.62,11.49-14.8a79.59,79.59,0,0,0-10.65.2c-1.44,5.31-5.67,8.66-9.54,11.7-3.2,2.52-6.23,4.9-7.92,8.22a1.83,1.83,0,0,1-1.62,1,1.68,1.68,0,0,1-.88-.25,2.09,2.09,0,0,1-.73-2.71c2.09-4.09,5.6-6.85,9-9.52,3.21-2.52,6.15-4.83,7.59-8A67.52,67.52,0,0,0,534.18,337c1.58,5.49-.95,9.64-3.83,13.12,5.26,2.89,7.51,7.58,6.36,13.4a1.89,1.89,0,0,1-1.8,1.58,1.74,1.74,0,0,1-.39-.05,2,2,0,0,1-1.41-2.37c.85-4.33-.94-7.43-5.41-9.48-3.17,3.71-4.91,6.43-3.76,10.13a2,2,0,0,1-1.16,2.52,1.76,1.76,0,0,1-.59.11,1.85,1.85,0,0,1-1.74-1.36c-2.05-6.6,1.94-11.14,5.45-15.15s5.61-6.7,5-10.38A65.19,65.19,0,0,0,509.43,363a22.54,22.54,0,0,1,8.66,7.48,2.11,2.11,0,0,1-.35,2.8,1.74,1.74,0,0,1-1.11.4,1.81,1.81,0,0,1-1.47-.78,18.68,18.68,0,0,0-7.38-6.36,39,39,0,0,0-2.48,8.05c-1.45,8.13-.78,15.78,3.46,21.39a10.93,10.93,0,0,0,2.12-4.15,1.83,1.83,0,0,1,2.26-1.41,2,2,0,0,1,1.29,2.45,15,15,0,0,1-3,5.92A24.87,24.87,0,0,0,522.86,404c-1.16-2.94-1.51-7.64,1.65-14.72.83-1.88,1.62-4.43.64-5.95-1.42-2.19-6-2.2-7.54-2a1.87,1.87,0,0,1-2-1.77,2,2,0,0,1,1.64-2.19c.81-.1,8-.79,10.93,3.7a7.28,7.28,0,0,1,1.1,3.4c3.35.62,5.84.07,7-1.58,1.28-1.81,1.05-4.94-.63-8.6a2.08,2.08,0,0,1,.83-2.68,1.79,1.79,0,0,1,2.47.9c2.33,5.08,2.42,9.75.25,12.81-1,1.39-3.16,3.4-7.5,3.4a17.86,17.86,0,0,1-2.91-.3,19.86,19.86,0,0,1-1,2.64c-4.66,10.45-.13,13.58.06,13.71l0,0a63.23,63.23,0,0,0,9,.09,51.79,51.79,0,0,1,13.68-8.45,12.43,12.43,0,0,0-4.51-.76h0a2.16,2.16,0,0,1-1.84-2.2,2.06,2.06,0,0,1,1.81-2.15,14.69,14.69,0,0,1,4.92.76c-1.13-5.24.52-9.83,5-14.15a1.75,1.75,0,0,1,2.6.17,2.1,2.1,0,0,1-.16,2.82c-4.5,4.33-5.26,8.24-2.62,13.83l.22-.06a88.24,88.24,0,0,0,17.38-6.15,23,23,0,0,1,0-7.5h0c-5.38-1.33-8-6.37-6.93-13.29a1.81,1.81,0,0,1,2.12-1.56,2,2,0,0,1,1.52,2.33c-.51,3.4-.2,7.73,4.2,9,.07,0,.13.07.19.09a17.52,17.52,0,0,1,3.65-5.62,1.76,1.76,0,0,1,2.61.09,2.11,2.11,0,0,1-.08,2.82,15,15,0,0,0-3.82,12.1c7.5-4,12.35-8.24,13-10.82a1.84,1.84,0,0,1,2.26-1.41,2,2,0,0,1,1.3,2.45c-2.6,10.46-27.78,19.36-36.66,21.42-7.46,1.74-13.88,6.38-17,9-1.12,3-1.77,7.73,2.7,11.49,7.15,6,25.43,0,25.43,0l.09,0c5-2.12,11.49-4.89,18.37-7.89Zm30.56-46.73a1.74,1.74,0,0,1,2.58-.35,2.11,2.11,0,0,1,.33,2.8c-2.4,3.35-3.33,6.29-2.78,8.76.5,2.2,2.23,4.13,5.13,5.77,2.13-1.8,3.9-3.59,4.81-6.15a1.81,1.81,0,0,1,2.38-1.14,2,2,0,0,1,1,2.58c-1.51,4.25-4.64,6.8-7.67,9.26-3.57,2.9-6.94,5.64-8.15,11.15a1.88,1.88,0,0,1-1.79,1.53,1.65,1.65,0,0,1-.43-.06,2,2,0,0,1-1.36-2.4c1.31-6,4.68-9.37,8-12.15a12.33,12.33,0,0,1-5.54-7.45C612.63,372.88,613.79,368.79,616.91,364.43Zm-25.48-5c-4.89-2.19-8.06-3.37-11.59,0a1.75,1.75,0,0,1-2.6-.17,2.12,2.12,0,0,1,.16-2.82c5.43-5.2,10.74-2.81,15.44-.71,1,.47,2,.92,3,1.28a8,8,0,0,0-1.53-5.16,7.23,7.23,0,0,0-5.44-2.25,2,2,0,0,1,.17-4,10.62,10.62,0,0,1,8,3.55c1.8,2.14,2.64,5.07,2.51,8.7,2.81.11,5.54-1.33,8.55-6.2a1.76,1.76,0,0,1,2.56-.55,2.1,2.1,0,0,1,.5,2.77c-3.8,6.14-7.63,8-11.25,8C596.88,361.84,594,360.55,591.43,359.39Zm-37,53.36a1.75,1.75,0,0,1-1.24.52,1.77,1.77,0,0,1-1.36-.65,2.11,2.11,0,0,1,.12-2.82c5.42-5.36,14.49-7.2,24.08-9.15,6.06-1.23,12.24-2.49,17.41-4.68a12.81,12.81,0,0,1,4.32-13.75,1.38,1.38,0,0,1-.18-.34,12.32,12.32,0,0,1-.22-9,10.5,10.5,0,0,1,6-5.67,1.8,1.8,0,0,1,2.37,1.17A2.05,2.05,0,0,1,604.7,371a6.7,6.7,0,0,0-4,3.55,8.13,8.13,0,0,0,.27,5.9,1.9,1.9,0,0,1,.12.62,2.66,2.66,0,0,0,2.39-.82,1.74,1.74,0,0,1,2.6-.1,2.12,2.12,0,0,1,.09,2.82,6,6,0,0,1-4.67,2.11,6.82,6.82,0,0,1-1-.07c-3.24,2.48-4.56,5.8-3.69,9.31a21.72,21.72,0,0,0,3.65-2.62,1.75,1.75,0,0,1,2.6.25,2.11,2.11,0,0,1-.24,2.81c-6.48,5.85-16.47,7.88-26.14,9.84C567.65,406.42,559.08,408.15,554.43,412.75Z"/></g><g id="cuadro"><rect class="cls-22" x="13.34" y="1232.2" width="316.75" height="59.59" rx="20.8"/><rect class="cls-22" x="7.97" y="988.35" width="316.75" height="59.59" rx="20.8"/><rect class="cls-22" x="7.97" y="691.73" width="316.75" height="59.59" rx="20.8"/><rect class="cls-22" x="15.38" y="299.63" width="316.75" height="59.59" rx="20.8"/><line class="cls-23" x1="330.09" y1="1263.79" x2="559.6" y2="1066.87"/><rect class="cls-22" x="24.33" y="1594.18" width="316.75" height="59.59" rx="20.8"/><line class="cls-23" x1="341.08" y1="1625.77" x2="497.41" y2="1627.54"/><rect class="cls-22" x="754.89" y="1527.25" width="316.75" height="59.59" rx="20.8" transform="translate(1826.54 3114.09) rotate(-180)"/><rect class="cls-22" x="761.62" y="1219.82" width="316.75" height="59.59" rx="20.8" transform="translate(1839.98 2499.22) rotate(-180)"/><rect class="cls-22" x="741.15" y="1012.15" width="316.75" height="59.59" rx="20.8" transform="translate(1799.05 2083.89) rotate(-180)"/><rect class="cls-22" x="748.86" y="453.25" width="316.75" height="59.59" rx="20.8" transform="translate(1814.47 966.08) rotate(-180)"/><line class="cls-23" x1="741.15" y1="1037.22" x2="574.66" y2="1034.41"/><line class="cls-23" x1="490.62" y1="949.13" x2="322.16" y2="1018.14"/><line class="cls-23" x1="484.79" y1="688.51" x2="324.72" y2="725.24"/><line class="cls-23" x1="522.78" y1="365.82" x2="332.13" y2="329.42"/><line class="cls-23" x1="715.85" y1="1246.46" x2="761.62" y2="1246.01"/><line class="cls-23" x1="591.02" y1="478.39" x2="748.86" y2="485.73"/><line class="cls-23" x1="754.89" y1="1553.7" x2="653.69" y2="1546.14"/></g><g id="txt"><text class="cls-24" transform="translate(143.16 1635.38)">Huesos</text><text class="cls-24" transform="translate(33.33 1274.2)"><tspan class="cls-25">T</tspan><tspan x="16.96" y="0">racto genito urinario</tspan></text><text class="cls-24" transform="translate(113.63 1030.04)">Abdomen</text><text class="cls-24" transform="translate(842.02 1052.94)">Prostata</text><text class="cls-24" transform="translate(823.33 1259.61)"><tspan class="cls-26">T</tspan><tspan x="14.77" y="0">ejidos blandos</tspan></text><text class="cls-24" transform="translate(897.38 1564.45)">Sangre</text><text class="cls-24" transform="translate(18.93 732.25)">Pulmones y va area</text><text class="cls-27" transform="translate(25.09 341.58)">Sistema nervioso central</text><text class="cls-28" transform="translate(756.86 489.92)">Boca, senos paranasales y cuello</text></g></svg>