<svg xmlns="http://www.w3.org/2000/svg" viewBox="0 0 644.86 1549.21"><defs><style>.cls-1{fill:#e4ab99;}.cls-2{fill:#fff;}.cls-3{fill:#ddd;}.cls-4{fill:#c7c7c7;}.cls-5{fill:#df5a59;}.cls-6{opacity:0.9;}.cls-7{fill:#be6d22;}.cls-8{fill:#f5d965;}.cls-9{fill:#760b32;opacity:0.7;}.cls-10{fill:#ea9493;}.cls-11{fill:#e3706f;}.cls-12{fill:#ffffa3;}.cls-13{fill:#df874c;}.cls-14{fill:#873028;}.cls-15,.cls-16{fill:#d66767;}.cls-15{stroke:#cb4f3d;}.cls-15,.cls-21{stroke-miterlimit:10;}.cls-17{fill:#f4f0e8;}.cls-18{fill:#b82408;}.cls-19{fill:#579adc;}.cls-20{fill:#bb2408;}.cls-21{fill:#ca3d3d;stroke:#585755;}</style></defs><title>Recurso 4</title><g id="Capa_2" data-name="Capa 2"><g id="Capa_1-2" data-name="Capa 1"><path class="cls-1" d="M642.05,787.92c-3-3.63-20.58-27.06-46-46s-23.12-48.15-25.66-70.09-5.73-60.71-11.24-88.41-24.19-67.95-41.16-101-11-79.67-10-121S503.74,308,488,283.69,392.58,238.1,374.33,227s-9.13-41.33-9.13-41.33c8.7-10.23,20.78-50.91,20.78-50.91,5.94,1.7,7.18,0,7.18,0,9.33-4.9,5.88-23.22,6.09-27.27s2.43-3,3.28-12.14-7.88-6.12-7.88-6.12C404.59-12.73,322.43.57,322.43.57s-82.16-13.3-72.22,88.69c0,0-8.72-3-7.88,6.12s3.07,8.09,3.28,12.14-3.24,22.37,6.1,27.27c0,0,1.24,1.7,7.18,0,0,0,12.08,40.68,20.77,50.91,0,0,9.12,30.25-9.12,41.33s-98,32.38-113.72,56.66-21,36.43-19.94,77.75,7,88-10,121-35.64,73.28-41.15,101-8.7,66.47-11.25,88.41-.21,51.12-25.66,70.09-43.07,42.38-46,46-5.3,9.15,2.33,10.86,15.07-3.84,16.34-5.33,9.12-8.09,12.3-8.51c0,0-.85,9.16-1.48,14.16s-.42,10.76-1.91,18.64-4.67,22.37-5.94,28.33-10.82,29.4-.21,29.61c0,0,3.39.85,9.33-13.42s9.55-35.36,13.79-37.71c0,0,.85-.85-1.49,9.38s-11,34.31-10.81,41.77.63,8.5,5.3,9.14,7.21-13,9.12-19,12.94-37.49,17.18-42.6c0,0-5.94,13.84-6.36,19.59s-11.67,41.16-3.82,42,10.4-14.72,12.1-19.83,12.51-40.48,12.51-40.48-3.4,14.49-3,19.39-4.24,30.89,3.4,32,17.2-26.22,18.26-31.13,4.84-19.87,9.52-26.46,4.61-49.4,5-57.71-1.57-36.36,11.79-53.19,37.78-96.25,40.75-106.7,22.18-60.57,21.75-87.41,1.29-56.42,2.35-59.41,2.54,10.87,5.72,19,13.16,47.08,6.16,73.49-18.67,47.73-23.55,93.31S144.09,789.2,150.67,836.28s15.06,84.35,22.06,117.16,24.19,99.7,24.61,119.93.21,62.84-6.15,97.15-13.37,86.48-3.82,132.28,21,95.64,23.33,112-6.57,34.74-2.54,38.78-16.68,25.84-19.44,30.1-33,25.08-27,37.86a3.48,3.48,0,0,0,3,1.05s-1.91,9.38,8.91,8.74c0,0,.21,14.06,13.37,4.05,0,0,2.33,15.12,17,4.9,0,0,15.9,15.76,27.79,5.32s9.12-21.08,16.75-29.82,15.91-29.4,15.07-46c0,0,1.79-10.18,7.31-18.07s-4.74-35.33-1.55-46.41-.25-49.06,1-59.29,12.52-89.68,13.15-102-11.24-96.28-2.33-116.31,11.45-64.75,12.73-76.47.21-62,4-76.05,10.81-90.53,13.57-106.09.89-68.8.89-73.49,2-8.31,10.08-8.31,10.09,3.62,10.09,8.31-1.87,57.94.88,73.49,9.76,92,13.58,106.09,2.76,64.33,4,76.05,3.81,56.45,12.72,76.47-3,104-2.33,116.31,11.88,91.82,13.15,102,1.06,36.22,4.24,47.3-10.73,42.15-5.22,50,7.77,26.44,7.77,26.44c-.85,16.61,7.42,37.28,15.06,46s4.88,19.39,16.76,29.82,27.79-5.32,27.79-5.32c14.63,10.22,17-4.9,17-4.9,13.15,10,13.37-4.05,13.37-4.05,10.82.64,8.9-8.74,8.9-8.74a3.48,3.48,0,0,0,3-1.05c5.95-12.78-24.45-36.08-27.21-40.34s-9.87-18.48-15.23-25.88c-9.11-12.58-9.94-16.77-6.55-40.52,2.32-16.4,13.78-66.25,23.32-112s2.55-98-3.81-132.28-6.59-76.91-6.16-97.15,17.61-87.12,24.61-119.93,15.48-70.09,22.06-117.16-23.76-151-28.64-196.63S449,572.76,442,546.34s3-65.4,6.15-73.49,4.67-21.94,5.73-19,10.39,23.43,10,50.27,15.69,76.69,18.66,87.13S505,697.07,518.37,713.9s11.54,47.66,12,56,.38,45.67,5,52.27,8.44,31.47,9.51,36.37,10.82,18.46,18.46,17.4,3-27.06,3.39-32-3-19.39-3-19.39,10.81,35.37,12.51,40.48,4.24,20.66,12.09,19.83-3.39-36.23-3.82-42-6.36-19.59-6.36-19.59c4.24,5.11,15.27,36.64,17.19,42.6s4.44,19.59,9.11,19,5.1-1.7,5.3-9.14-8.49-31.55-10.82-41.77-1.48-9.38-1.48-9.38c4.24,2.35,7.85,23.44,13.79,37.71s9.34,13.42,9.34,13.42c10.6-.21,1.06-23.65-.22-29.61s-4.45-20.45-5.94-28.33-1.27-13.63-1.91-18.64-1.48-14.16-1.48-14.16c3.18.42,11,7,12.3,8.51s8.7,7,16.33,5.33S645,791.54,642.05,787.92Z"/><path class="cls-2" d="M335.24,210.41c-1.52-.83-2.85-4.93-2.85-4.93a24.87,24.87,0,0,0-10.09-.26,25,25,0,0,0-10.11.26s-1.33,4.1-2.86,4.93-4.57,3-3,4.29,2.67,3.46,4.76,3.46,3.24-.33,5,0c1,.2,3,.39,4.76.56a9,9,0,0,0,3.05,0c1.79-.17,3.72-.36,4.75-.56,1.72-.33,2.86,0,5,0s3.24-2.15,4.77-3.46S336.77,211.23,335.24,210.41Z"/><path class="cls-3" d="M221.45,1119s-11.23,1.94-12.31,8.89-.86,11.49,6.16,21.47,3.56,31.44,4.42,48.57,2.16,62,1.94,79.82,4.54,109.08,2,118-11.88,57.29,3.24,42.75,4.1-97,4.1-108.67-3-105.19-3-105.19-4.49-90.21,3.59-97.37S228.14,1113.8,221.45,1119Z"/><path class="cls-2" d="M219.79,1093.2s-8.27,17.57-7.19,24.3,11.44,6.07,16.41,18,4.75,52.92,3.88,74.6,1.09,97.81.87,117.53,1.73,61.16-.87,66.8-22.88,41.64,8.43,36.87c0,0,12.1-6.29,14,2.17s10.36,5.2,10.15-2.39-13.39-60.51-11.88-91.74-1.08-115.15,2.59-145.51,9.07-58.77,16.2-68.74,7.34-29.93,2.37-32.75-24.55-2.17-29.45-6.51S223.74,1083.71,219.79,1093.2Z"/><path class="cls-4" d="M253.16,724.82c0,.46-.29,13.22-2.81,17.83s-3.11,14.72,5,18.89,36,10.85,43.24,4,17.77-11.3,19.69-11.6,1.19-11-1-12.79-16.29-12-20.43-6.38-1.64,10.22-6.37,11.87-23.55,9.54-24.14-5S273,724.37,269,722.73,253.87,715,253.16,724.82Z"/><path class="cls-4" d="M389.09,724.82c0,.46.29,13.22,2.81,17.83s3.11,14.72-5,18.89-36,10.85-43.24,4-17.77-11.3-19.69-11.6-1.18-11,1-12.79,16.29-12,20.43-6.38S347,745,351.78,746.65s23.54,9.54,24.13-5-6.67-17.25-2.67-18.89S388.38,715,389.09,724.82Z"/><path class="cls-2" d="M307.39,432.13s-2.72-1.27-7.61,1.45-21.55,19-30.6,20.69-14.66,33.85-5.43,21.31S285.47,454.67,292,449s9.79-6.18,14.12-7.46S311.55,433,307.39,432.13Z"/><path class="cls-2" d="M308.83,456.86a62.94,62.94,0,0,1-12.31,7.08c-6.88,2.91-40,19.08-43.63,24.17s-5.78,16.34,3.9,10.54,37.12-26,44-28.71S320.24,453.58,308.83,456.86Z"/><path class="cls-2" d="M314,481.4s-6.66-3.1-15,5.63-20.3,11.46-27.43,21.28-21.6,18.35-9.76,18.17,16.84-16,24.85-21.45S321.05,488.48,314,481.4Z"/><path class="cls-2" d="M308.08,517.14s-12.86-.23-13.88-2-1.77-4.05.34-4.8,13.08-1.54,14.28,0S310.92,516.85,308.08,517.14Z"/><path class="cls-2" d="M309.22,538.11s-8.88-2-11.67-2.29-14.11.91-10.92,3.71,6.77,2.7,12.69,4.52,11.17,3.94,11.5,1.89S312.45,539.14,309.22,538.11Z"/><path class="cls-2" d="M308.71,564.22s-3.87,2.86-7.88,2.63-17.1-2.52-14.48,3.31,19.68,5.31,21.9,4.23S314.28,560.79,308.71,564.22Z"/><path class="cls-2" d="M306.77,593.13s-7.23-.56-8.93-1.14-13.54-3.94-11.38.58.4,6.45,2.9,7,16.22,1.83,18.09.8S309.89,593.42,306.77,593.13Z"/><path class="cls-2" d="M304.5,620.5s-5.81-2.63-7.57-3.82-9.5-1.89-8.65,1.19,5.8,5.38,8.08,6.29,8.87,3.72,9,.74S305.69,621.82,304.5,620.5Z"/><path class="cls-2" d="M332.77,517.14s12.86-.23,13.88-2,1.77-4.05-.34-4.8-13.08-1.54-14.27,0S329.93,516.85,332.77,517.14Z"/><path class="cls-2" d="M331.63,538.11s8.88-2,11.67-2.29,14.11.91,10.92,3.71-6.77,2.7-12.68,4.52S330.37,548,330,545.94,328.41,539.14,331.63,538.11Z"/><path class="cls-2" d="M332.14,564.22s3.87,2.86,7.88,2.63,17.1-2.52,14.48,3.31-19.68,5.31-21.9,4.23S326.57,560.79,332.14,564.22Z"/><path class="cls-2" d="M334.09,593.13s7.22-.56,8.93-1.14,13.53-3.94,11.37.58-.4,6.45-2.9,7-16.21,1.83-18.09.8S331,593.42,334.09,593.13Z"/><path class="cls-2" d="M336.35,620.5s5.81-2.63,7.57-3.82,9.5-1.89,8.65,1.19-5.79,5.38-8.07,6.29-8.88,3.72-9.06.74S335.16,621.82,336.35,620.5Z"/><path class="cls-4" d="M188.79,314.37s3.19,8.77,9.28,12.12,3.19,10.68,5.28,19.09,36.73,77,50.52,47.37,15.3-55.07,17.91-58.29.27-23.1,0-26.2-5-13.95-15.3-16-26.66-4.19-29.23,0-8.9,1.28-12-.65-18.28-5.5-20.4,1.61S185.61,304.39,188.79,314.37Z"/><path class="cls-3" d="M332.91,257.16c-3.22-3.25-9.93.17-11.57,1.08-1.73-.91-8.77-4.33-12.15-1.08,0,0-3.06,15.93-2.15,19.25a74.4,74.4,0,0,0,14.3,1.45A67.78,67.78,0,0,0,335,276.41C335.83,273.09,332.91,257.16,332.91,257.16Z"/><path class="cls-2" d="M200,291.05c-.68,0-11.87.66-14.06-1.55s-5.28-3.8-3.3-4.55a40.85,40.85,0,0,0,6.16-3.84s3.78-8.09-6.8-5.26-14.09,5.7-6.18,13,8.37,10.82,13,11.26,7.69,1.1,9.22-1.1S207.91,290.89,200,291.05Z"/><path class="cls-2" d="M192.74,300.55s5.5,4,3.07,11.91S180,328.35,175.59,376.7s-10.77,115-6.59,127.6,16.7,24.29,5.05,29.8-11-.22-14.51-1.32-9.45.88-14.07,2-12.53-2.87-9.89-10.6-1.49-6.4-.52-10.16S149,499.22,153,469.64s4.39-73.73,5.27-89.63,9.9-46.8,3.31-60,3.73-18.53,7.47-19.42S186.37,292.61,192.74,300.55Z"/><path class="cls-2" d="M147.24,552.87s4.39-11,4.39-13.69,3.08-6.09,8.13-2.72,11.88,1.17,10.56,6.47-24,59.17-33.86,100.45-25.94,92.72-27.7,92.93-.21-2.21-1.76-4S95.13,729,99.75,721.75s24.4-68.44,28.14-79.7,20.23-72.84,19.78-76.82S145.07,558.63,147.24,552.87Z"/><path class="cls-2" d="M134.91,554.63s-1-6-.38-9.27,1.93-11.34,6.11-10.3,12-.1,11,4.12-8,11-8.61,17.88.48,21-6.78,30-22.2,55.19-27,71.09S96.67,714.9,97.11,725.5s-7.91-.44-9.67-1.33-17.37,5.74-11.65-6.4,16.92-39.52,24.4-59.6S132.92,562.8,134.91,554.63Z"/><path class="cls-2" d="M63.25,750.22s-6.59-.22-5.27-5.3,10.33-11.83,14.73-14.85,10.55-5.23,14.73-1.93,13.63,4,16.27,5.75,8.13,5.07,6.81,8.6-6.15,12.15-6.81,15-7.48,2.65-11.66,1.32-5.49-1.76-9-1.32-4-.89-5.5-2.87-2.63-4.64-5.05-3.32S65.23,749.12,63.25,750.22Z"/><path class="cls-2" d="M96.67,760.82s-2.64,6.63,0,11,1,20.31-.59,22.29-6.59,15.24-.58,15.68,6-3.32,5.79-7.07.88-20.52,3.29-23.62,4.4-10.59,3.08-13.24S103.48,754.2,96.67,760.82Z"/><path class="cls-2" d="M92.61,809.86s.12,1.07,0,6.37a55.17,55.17,0,0,1-2.31,13c-.67,2.43-2.47,7.29,1.18,7.73s5.63.22,6.07-7.73S99.19,816,100.35,814s-1.26-6.84-3.24-6.62S92.57,805.72,92.61,809.86Z"/><path class="cls-2" d="M89.26,837.11s-1.61,14-2.48,16.21,2.64,3.75,4.62-1.32S97,835.87,95,835,89.76,833,89.26,837.11Z"/><path class="cls-2" d="M86.64,854.2s-4.76,12.58,0,12.81S90.46,849.57,86.64,854.2Z"/><path class="cls-2" d="M84.53,758.44s.49,6.13-1.71,7.9,4,6.62,1.44,13.24-12.3,27-9.72,30.28,5.89,5.27,9.72-1.58,2.14-19.2,6.83-27.26,4.34-15.38,4.7-17S92.17,754.75,84.53,758.44Z"/><path class="cls-2" d="M74.11,812s-2.94-.89-2.5,4-.22,11.92-1.76,14.79-3.36,10.15,4.26,9.93,1.24-6,1.9-9.49,8.59-18.36,5.71-18.37S76.37,810.79,74.11,812Z"/><path class="cls-2" d="M70,839.68s-3.46,2.59-3.68,8.78-5,11.7-3.08,14.12,5.39,4.2,6.76-3.3,4.81-11.35,5.4-14.51S72.67,835.86,70,839.68Z"/><path class="cls-2" d="M64.11,863.5s-1.81.2-1.33,3.51-.63,4.19-1.5,6,2.63,6.63,4.39,2.88,1.66-5.3,2.81-6.85S68.49,860.21,64.11,863.5Z"/><path class="cls-2" d="M75.41,751.82a29,29,0,0,1-2.26,7.95c-1.76,3.7-2,3.92-2,9.22s-10.9,32.23-13.36,34.65c-1.46,1.44-2.06,5.76-.53,8,1.06,1.54,3.13,2.09,6.63,0,8.58-5.12,4.18-9.76,6.6-15.28s5.74-24.94,8.8-26.93,5.91-10.11,4-11S75.41,751.82,75.41,751.82Z"/><path class="cls-2" d="M56.38,813s-3.68,1-3,4.55,0,12-1.76,16.6-.27,10.33,2.4,9.22.56-.66,3.81-8.38,2.74-12.37,5-15.46,2.82-7.55,0-6.53S57.4,812.57,56.38,813Z"/><path class="cls-2" d="M51.85,842.57s-2-.82-2.44,2.2-.67,11.64-1.77,14.29,1.12,6.53,3.2,3.59.55-9.12,2.52-11.1,3.27-9.19.88-9.08Z"/><path class="cls-2" d="M47.35,862.65S45.67,865,45.89,867s-2.2,4.4-2.42,6,2.27,3.75,3.88,2,.73-3,2.28-5S50.8,861,47.35,862.65Z"/><path class="cls-2" d="M64.69,751.82c-.3.23-5.61,3.59-5.83,7.95S58,774.07,53.36,780s-15.42,20.3-9.91,23,7.22-6,12.08-13.47S68,767.94,70.14,764.8s6.92-12.79,4-13S67.28,749.75,64.69,751.82Z"/><path class="cls-2" d="M42.69,802.43a34.28,34.28,0,0,0-3.18,10.43c-.66,5.58-8.13,20.91-2,21.3s4.59-8.22,5.92-13.07,8.79-11.32,7-13.94-.46-3.28-7-4.16"/><path class="cls-2" d="M35.12,834.16s-1.32.4-2,5.25-4.83,14.54,0,13.67,2.21-4.75,5.5-9.43,4.27-10.74,1.59-10.11S36.88,835.53,35.12,834.16Z"/><path class="cls-2" d="M30.84,853.08a12.66,12.66,0,0,1,0,3.77c-.34,1.76-2.75,6,0,6.85s.1-1.22,2.52-3.48,6-6.45,1.76-6.8Z"/><path class="cls-2" d="M56.38,747.13s-4.78,2.21-7.19,5.74-18.25,13.25-11,19.21,5.13-3.09,9.16-6.19,11.8-9.07,13.78-11S62.05,749.34,56.38,747.13Z"/><path class="cls-2" d="M36.3,769.87s-2.71-.22-5.46,2.65-14.41,8-5.4,11.64c0,0,1.56.5,5.4-5.45s6.17-3.84,7.57-4.64"/><path class="cls-2" d="M21.05,781a48.26,48.26,0,0,0-4.62,4.14c-1.54,1.71-8.13,7.23-2,7.45s5.49-2.21,6.59-4.2S24.55,778,21.05,781Z"/><path class="cls-2" d="M226.15,512.3S218,502.86,225,495.42,255,464,256.33,461.8s-5.83-7.94-17.09,4.48-30.07,23-21.33,40.23S227.14,517.1,226.15,512.3Z"/><path class="cls-2" d="M237.12,457.68s-22.5,8.1-20.53,19.69,12.56,14.57,12.3,17.05-5.53,9.6-13.95-3.14S208.1,458,226,452.69s14.46,3.35,11.83,5.15"/><path class="cls-2" d="M235.55,476s-4.94-4.8-10.39-10.59-13.35-12.09-7.74-17.88,25.06-13.58,23.74-16.73-3.93-7.45-12.27-2.81-24.66,9.93-19.06,25.66S223,483.33,235.38,482.5C235.38,482.5,239.53,480,235.55,476Z"/><path class="cls-2" d="M239,448.89s-4-1.82-11.21-8.28-19-10.78-7.59-18.22,30.5-14.45,30-17.49-10.67-4.85-17.37-1.54-27.67,10.76-25.1,23,15.67,27.9,24.33,30S244.63,453.86,239,448.89Z"/><path class="cls-2" d="M256,427.86a33.06,33.06,0,0,1-15.34-6.79c-7.58-6-27.38-15.43-22.42-22s13.52-13.77,27.54-15.76,12.13-5.62,11-6.62-9.42-3.48-19.28,0-38.4,10.27-27.18,28.15,29.35,32.12,43.36,29.8S256,427.86,256,427.86Z"/><path class="cls-2" d="M303.81,394s-25,13.54-32,14.47S239,405.71,230.08,398s-30-20-19.61-34.77,46.26-15.7,51-15.39,4.45,7.07-7.81,8.93-39.53,9.23-36.47,16.3,26.65,28.32,44.28,24.32S315,370.94,303.81,394Z"/><path class="cls-2" d="M302.1,362.33s-15,4.3-20.83,6.46-32.49,3.07-43.21-6.46-20.46-11-13-16.75,28.31-11.26,34.43-13.73,16.86-11.07,15-12-20.84,1.85-26,4.62-35.24,10.46-33.09,22.77,19.92,31.4,40.45,32.31,40.18-1.22,48-6.46S306,361.2,302.1,362.33Z"/><path class="cls-3" d="M274,628.37s.38-8.19-3.94-12.71-55.75-22.73-76.2,22c0,0-10.55,40.07,12.21,37.09,0,0,11.2-2,11.53,6.63s8.12,11.26,15.11,13.24,14.57,14.24,14.24,29.48,8.9,8.69,15.5,6,27.65,1,34.44,13.07,19.64,5.53,21.95,4,6.67-17.21-7.22-20.63-39.94-18-36.31-36.87-7.26-13.58-9.24-16.23,9.24-16.56,14.52-20.86S275.49,632.34,274,628.37Z"/><path class="cls-2" d="M222.11,790s2.8-8,6-15-1.29-10.62-1.94-20.17-3.88-17.77,8.42-24.82,19-13.35,8.86-28.75-20.74-4.33-24.84,6.95-11.88,1.29-14.47-.88-35.84-5-22.46,34.51,16.2,52.46,19.87,88.68S221.89,946,222.11,974.8s-1.52,75.25-7.13,82.84-11.23,42.5,7.77,42.06,11.66-14.52,29.81-6.07,31.09,9.33,29.58-3.68,6.7-23.43-1.08-29.5-22-23.2-30-72.85S219.73,802,222.11,790Z"/><path class="cls-4" d="M230,1425.74s-4.9,15.67-5.8,19.5,3.63.91,7.62,0,3.08,2.37,5.8,3.1,18.15,1.45,16.16-5.1,2-7.11,3.63-12S235.64,1417.17,230,1425.74Z"/><path class="cls-4" d="M228,1442.14s-16.87,12.21-15.51,14.58,8.62,1.09,14.24.91,14,2.92,18.6,5.46,9,.73,9.35-4.91,2.73-5.65,3.81-8.57S238.88,1433.52,228,1442.14Z"/><path class="cls-2" d="M250.29,1461s4.17,3.15,1.67,7.23-7.63,11.65-5.75,18.88,1.25,8.5-1.25,6.71-13.58.74-12.33-6.08,4.39-9.75,4.49-14-.42-18.35,6.8-18.45S249.34,1460.11,250.29,1461Z"/><path class="cls-2" d="M235.48,1489.24s-4.2,1.34-3.47,5.34a18.62,18.62,0,0,1-.09,8.82c-.64,2.62,2.7,10.38,6.46,4.62s6.69-7.56,7.83-9.13.73-8.39-2.4-9.65A12.87,12.87,0,0,0,235.48,1489.24Z"/><path class="cls-2" d="M234.52,1505.81s-5.64-1-5.86,1.37-1.25,2.93-1.66,6.39,1.05,5.88,5.54,3.46,6.78-3.56,6.36-5.77S234.52,1505.81,234.52,1505.81Z"/><path class="cls-2" d="M236.5,1453.37s-6,.11-9.57,8.71-17.06,27.79-8,28.63,5.05-1,7.23-6.3,8.12-17.61,10.32-19.5S243.81,1452.33,236.5,1453.37Z"/><path class="cls-2" d="M222.92,1488.54s2.82,3.85.73,7.31-6.16,12.59-8.88,6.61,1.15-15.63,3-16.47S221.28,1486.56,222.92,1488.54Z"/><path class="cls-2" d="M221.25,1501.93s-4.31,8.49-5.39,8.81-5.52.16-3.44-4.4S218.33,1496.48,221.25,1501.93Z"/><path class="cls-2" d="M215.86,1512.74s-7.56,7.23-7.87,3.35,2-8.39,4.43-8.49S216.32,1509,215.86,1512.74Z"/><path class="cls-2" d="M225.11,1453.3s-19.32,27.45-18.8,31,3.56,6.88,5.22,4.23,5.3-15.66,12.89-20.48S231.69,1446.41,225.11,1453.3Z"/><path class="cls-2" d="M206.3,1487.66s-5.84,8.29-4.37,10.29,1.15,5,5.33,0,5.53-9.55,3.75-11.22S208,1485.06,206.3,1487.66Z"/><path class="cls-2" d="M205.48,1500.7s-7.1,13.5-9.71,12.24-.32-9.23,6.89-15S206.55,1498.76,205.48,1500.7Z"/><path class="cls-2" d="M217.79,1455.33s-16.21,23-15.77,26,3,5.78,4.38,3.55,4.45-13.13,10.81-17.18S223.3,1449.56,217.79,1455.33Z"/><path class="cls-2" d="M202,1484.16s-4.9,6.95-3.67,8.62,1,4.23,4.47,0,4.64-8,3.15-9.41S203.43,1482,202,1484.16Z"/><path class="cls-2" d="M201.32,1495.08s-6,11.34-8.15,10.28-.26-7.74,5.78-12.58S202.21,1493.46,201.32,1495.08Z"/><path class="cls-2" d="M210.58,1456.44s-14.66,18.8-14.27,21.24,2.69,4.72,4,2.9,4-10.73,9.78-14S215.58,1451.72,210.58,1456.44Z"/><path class="cls-2" d="M196.3,1480s-4.43,5.68-3.32,7,.87,3.43,4.05,0,4.2-6.55,2.85-7.69S197.59,1478.2,196.3,1480Z"/><path class="cls-2" d="M195.68,1488.9s-5.4,9.25-7.38,8.39-.24-6.32,5.23-10.26S196.49,1487.57,195.68,1488.9Z"/><path class="cls-2" d="M335.34,629.21s11.52.11,15.14-1.71,16.86-7.94,17.93-3.11,3.41,8.67,1.92,12.53-1.71,16.28-4.7,16.5-8.11,3.17-10.88,4.75-11.28,5-10.76,19.57-20.48,19.17-25.18,20l.91-68.56S330.66,629.3,335.34,629.21Z"/><path class="cls-2" d="M299,305.39s-10.65-1.54-16.78,0-53,15.73-49.16,21.1,23.42,22.6,64.49,14.29c0,0,24.86,3.39,6.3,12,0,0-14.27-1.86-20.71-1.24s-15.32,6.16-27.88-1.84-36.66-13.66-28.51-30.47,44.22-23.39,51.23-23.7S311.13,291.85,299,305.39Z"/><path class="cls-2" d="M293.22,316.16s14.4-2.77,15.93,0,4.29,10.16-8,9.85-49.65,5.54-62.83-16.62,1.53-26.16,6.74-29.23,15.63-3.39,15.94,0-10.73,7.07-13.18,9.23-12.26,4.21-4,12.72S272.07,317.39,293.22,316.16Z"/><path class="cls-2" d="M290.24,298.32s-55.46.3-32.68-35.09c0,0,13.84-20.15,45.47-7.44,0,0,5.21,13.59-14.41,4.67,0,0-21.52,1.42-19.61,11.69s-2.39,13.26,22.25,16.94S298,303,290.24,298.32Z"/><path class="cls-5" d="M303.81,400.18S279.73,413.41,275.14,419s-18.25,6.77-23.07,8.31-3.9,3.39-3.9,6.77,11.33,3.69,15.63,4.61,0,4.31-4.3,6.46-19.61.93-21.14,1.24-7.36,8.62-4,10.46,20.23,2.77,19.93,6.47,3.37,13.23-15.33,10.46c0,0-7.35-2.46-8.89,5.23s5.52,4.62,10.43,6.77,3.06,4.31.61,5.85-5.82,4.31-12.57,0S220.32,502,233,506.35s1.35,8.31-2.94,7.08-5.6-6.46-6.63-3.69-4.66,12,9.57,10.46,21.58-28,27.1-43.09,42-61.6,47.68-67.57S310.65,396.29,303.81,400.18Z"/><path class="cls-2" d="M334.87,432.13s2.72-1.27,7.61,1.45,21.54,19,30.59,20.69,14.66,33.85,5.43,21.31S356.78,454.67,350.26,449s-9.79-6.18-14.13-7.46S330.71,433,334.87,432.13Z"/><path class="cls-2" d="M333.42,456.86a62.94,62.94,0,0,0,12.31,7.08c6.88,2.91,40,19.08,43.63,24.17s5.78,16.34-3.9,10.54-37.11-26-44-28.71S322,453.58,333.42,456.86Z"/><path class="cls-2" d="M333.27,481.4s6.67-3.1,15,5.63,20.29,11.46,27.43,21.28,21.61,18.35,9.76,18.17-16.84-16-24.84-21.45S326.23,488.48,333.27,481.4Z"/><path class="cls-4" d="M453.46,314.37s-3.18,8.77-9.28,12.12-3.19,10.68-5.28,19.09-36.73,77-50.52,47.37-15.29-55.07-17.91-58.29-.27-23.1,0-26.2,5-13.95,15.3-16,26.67-4.19,29.23,0,8.9,1.28,12-.65,18.29-5.5,20.41,1.61S456.64,304.39,453.46,314.37Z"/><path class="cls-2" d="M442.26,291.05c.69,0,11.87.66,14.07-1.55s5.28-3.8,3.29-4.55a41.4,41.4,0,0,1-6.16-3.84s-3.78-8.09,6.8-5.26,14.09,5.7,6.18,13-8.37,10.82-13,11.26-7.69,1.1-9.23-1.1S434.34,290.89,442.26,291.05Z"/><path class="cls-2" d="M449.52,300.55s-5.5,4-3.08,11.91,15.82,15.89,20.22,64.24,10.77,115,6.59,127.6-16.7,24.29-5.05,29.8,11-.22,14.51-1.32,9.45.88,14.07,2,12.53-2.87,9.89-10.6,1.49-6.4.52-10.16-13.93-14.79-17.89-44.37S484.9,395.91,484,380s-9.89-46.8-3.29-60-3.74-18.53-7.48-19.42S455.89,292.61,449.52,300.55Z"/><path class="cls-2" d="M495,552.87s-4.4-11-4.4-13.69-3.08-6.09-8.13-2.72-11.88,1.17-10.56,6.47,24,59.17,33.86,100.45,25.94,92.72,27.69,92.93.23-2.21,1.77-4,11.87-3.31,7.26-10.59-24.41-68.44-28.15-79.7-20.22-72.84-19.78-76.82S497.19,558.63,495,552.87Z"/><path class="cls-2" d="M507.34,554.63s1-6,.38-9.27-1.93-11.34-6.11-10.3-12-.1-11,4.12,8,11,8.61,17.88-.48,21,6.78,30,22.2,55.19,27,71.09,12.53,56.73,12.09,67.33,7.91-.44,9.68-1.33,17.36,5.74,11.64-6.4-16.92-39.52-24.39-59.6S509.33,562.8,507.34,554.63Z"/><path class="cls-2" d="M579,750.22s6.59-.22,5.27-5.3-10.33-11.83-14.73-14.85-10.55-5.23-14.72-1.93-13.64,4-16.28,5.75-8.13,5.07-6.81,8.6,6.16,12.15,6.81,15,7.48,2.65,11.66,1.32,5.49-1.76,9-1.32,4-.89,5.5-2.87,2.64-4.64,5-3.32S577,749.12,579,750.22Z"/><path class="cls-2" d="M545.58,760.82s2.63,6.63,0,11-1,20.31.58,22.29,6.6,15.24.59,15.68-6-3.32-5.79-7.07-.87-20.52-3.3-23.62-4.39-10.59-3.07-13.24S538.77,754.2,545.58,760.82Z"/><path class="cls-2" d="M549.64,809.86s-.11,1.07,0,6.37a54.56,54.56,0,0,0,2.32,13c.66,2.43,2.47,7.29-1.19,7.73s-5.63.22-6.07-7.73S543.06,816,541.91,814s1.25-6.84,3.23-6.62S549.68,805.72,549.64,809.86Z"/><path class="cls-2" d="M553,837.11s1.6,14,2.47,16.21-2.63,3.75-4.61-1.32-5.59-16.13-3.57-17S552.5,833,553,837.11Z"/><path class="cls-2" d="M555.61,854.2s4.75,12.58,0,12.81S551.79,849.57,555.61,854.2Z"/><path class="cls-2" d="M557.73,758.44s-.5,6.13,1.7,7.9-4,6.62-1.44,13.24,12.3,27,9.73,30.28-5.9,5.27-9.73-1.58-2.14-19.2-6.83-27.26-4.33-15.38-4.7-17S550.09,754.75,557.73,758.44Z"/><path class="cls-2" d="M568.15,812s2.93-.89,2.49,4,.22,11.92,1.76,14.79,3.36,10.15-4.25,9.93-1.24-6-1.91-9.49-8.59-18.36-5.71-18.37S565.88,810.79,568.15,812Z"/><path class="cls-2" d="M572.24,839.68s3.47,2.59,3.68,8.78,5.05,11.7,3.08,14.12-5.39,4.2-6.76-3.3-4.81-11.35-5.4-14.51S569.59,835.86,572.24,839.68Z"/><path class="cls-2" d="M578.14,863.5s1.8.2,1.33,3.51.63,4.19,1.5,6-2.63,6.63-4.39,2.88-1.66-5.3-2.81-6.85S573.77,860.21,578.14,863.5Z"/><path class="cls-2" d="M566.84,751.82a29.23,29.23,0,0,0,2.27,7.95c1.75,3.7,2,3.92,2,9.22s10.9,32.23,13.37,34.65c1.45,1.44,2,5.76.52,8-1.05,1.54-3.13,2.09-6.63,0-8.58-5.12-4.18-9.76-6.6-15.28S566,771.42,563,769.43s-5.92-10.11-4-11S566.84,751.82,566.84,751.82Z"/><path class="cls-2" d="M585.87,813s3.68,1,3,4.55,0,12,1.75,16.6.28,10.33-2.38,9.22-.56-.66-3.81-8.38-2.75-12.37-5-15.46-2.82-7.55,0-6.53S584.85,812.57,585.87,813Z"/><path class="cls-2" d="M590.4,842.57s2-.82,2.44,2.2.67,11.64,1.77,14.29-1.12,6.53-3.2,3.59-.54-9.12-2.52-11.1-3.27-9.19-.88-9.08Z"/><path class="cls-2" d="M594.9,862.65s1.69,2.37,1.46,4.36,2.2,4.4,2.42,6-2.27,3.75-3.88,2-.74-3-2.28-5S591.45,861,594.9,862.65Z"/><path class="cls-2" d="M577.56,751.82c.3.23,5.61,3.59,5.83,7.95s.88,14.3,5.5,20.26,15.42,20.3,9.9,23-7.21-6-12.07-13.47-12.5-21.58-14.62-24.72-6.91-12.79-4-13S575,749.75,577.56,751.82Z"/><path class="cls-2" d="M599.56,802.43a34.28,34.28,0,0,1,3.18,10.43c.66,5.58,8.14,20.91,2,21.3s-4.59-8.22-5.93-13.07-8.78-11.32-7-13.94.45-3.28,7-4.16"/><path class="cls-2" d="M607.13,834.16s1.33.4,2,5.25,4.83,14.54,0,13.67-2.2-4.75-5.5-9.43-4.27-10.74-1.59-10.11S605.37,835.53,607.13,834.16Z"/><path class="cls-2" d="M611.41,853.08a12.66,12.66,0,0,0,0,3.77c.34,1.76,2.75,6,0,6.85s-.1-1.22-2.51-3.48-6-6.45-1.77-6.8Z"/><path class="cls-2" d="M585.87,747.13s4.77,2.21,7.2,5.74,18.24,13.25,11,19.21-5.12-3.09-9.15-6.19-11.8-9.07-13.78-11S580.2,749.34,585.87,747.13Z"/><path class="cls-2" d="M606,769.87s2.72-.22,5.46,2.65,14.41,8,5.39,11.64c0,0-1.54.5-5.39-5.45s-6.16-3.84-7.57-4.64"/><path class="cls-2" d="M621.21,781a48.62,48.62,0,0,1,4.61,4.14c1.54,1.71,8.14,7.23,2,7.45s-5.49-2.21-6.58-4.2S617.7,778,621.21,781Z"/><path class="cls-2" d="M416.1,512.3s8.17-9.44,1.2-16.88S387.24,464,385.92,461.8s5.83-7.94,17.1,4.48,30.06,23,21.32,40.23S415.11,517.1,416.1,512.3Z"/><path class="cls-2" d="M405.13,457.68s22.51,8.1,20.53,19.69-12.56,14.57-12.3,17.05,5.54,9.6,13.94-3.14,6.86-33.28-11.08-38.59-14.46,3.35-11.83,5.15"/><path class="cls-2" d="M406.7,476s4.94-4.8,10.39-10.59,13.35-12.09,7.74-17.88S399.78,434,401.09,430.84s3.93-7.45,12.27-2.81S438,438,432.42,453.69s-13.19,29.64-25.56,28.81C406.86,482.5,402.72,480,406.7,476Z"/><path class="cls-2" d="M403.24,448.89s3.95-1.82,11.21-8.28,18.95-10.78,7.58-18.22-30.5-14.45-30-17.49,10.68-4.85,17.37-1.54,27.67,10.76,25.1,23-15.66,27.9-24.32,30S397.63,453.86,403.24,448.89Z"/><path class="cls-2" d="M386.25,427.86a33.06,33.06,0,0,0,15.34-6.79c7.58-6,27.38-15.43,22.42-22s-13.52-13.77-27.53-15.76-12.15-5.62-11-6.62,9.42-3.48,19.28,0,38.4,10.27,27.19,28.15-29.35,32.12-43.36,29.8S386.25,427.86,386.25,427.86Z"/><path class="cls-2" d="M338.44,394s25,13.54,32,14.47,32.81-2.78,41.69-10.47,30-20,19.62-34.77-46.27-15.7-51-15.39-4.45,7.07,7.81,8.93S428.1,366,425,373.09s-26.65,28.32-44.28,24.32S327.24,370.94,338.44,394Z"/><path class="cls-2" d="M340.15,362.33s15,4.3,20.83,6.46,32.5,3.07,43.22-6.46,20.46-11,13-16.75-28.31-11.26-34.44-13.73-16.86-11.07-15-12,20.84,1.85,26,4.62,35.25,10.46,33.1,22.77-19.93,31.4-40.46,32.31-40.18-1.22-48-6.46S336.29,361.2,340.15,362.33Z"/><path class="cls-3" d="M368.28,628.37s-.38-8.19,3.93-12.71,55.75-22.73,76.2,22c0,0,10.55,40.07-12.2,37.09,0,0-11.21-2-11.54,6.63s-8.12,11.26-15.1,13.24S395,708.83,395.32,724.07s-8.9,8.69-15.5,6-27.65,1-34.43,13.07-19.65,5.53-21.95,4-6.67-17.21,7.21-20.63,39.94-18,36.31-36.87,7.26-13.58,9.24-16.23-9.24-16.56-14.52-20.86S366.76,632.34,368.28,628.37Z"/><path class="cls-2" d="M343.3,305.39s10.64-1.54,16.77,0,53,15.73,49.17,21.1-23.42,22.6-64.49,14.29c0,0-24.87,3.39-6.31,12,0,0,14.27-1.86,20.71-1.24s15.32,6.16,27.89-1.84,36.65-13.66,28.49-30.47-44.21-23.39-51.22-23.7S331.12,291.85,343.3,305.39Z"/><path class="cls-2" d="M349,316.16s-14.4-2.77-15.93,0-4.29,10.16,8,9.85,49.65,5.54,62.82-16.62-1.53-26.16-6.74-29.23-15.63-3.39-15.93,0,10.72,7.07,13.17,9.23,12.27,4.21,4,12.72S370.18,317.39,349,316.16Z"/><path class="cls-2" d="M352,298.32s55.46.3,32.68-35.09c0,0-13.84-20.15-45.46-7.44,0,0-5.21,13.59,14.4,4.67,0,0,21.52,1.42,19.61,11.69s2.39,13.26-22.25,16.94S344.26,303,352,298.32Z"/><path class="cls-5" d="M338.44,400.18s24.08,13.23,28.68,18.77,18.24,6.77,23.07,8.31,3.89,3.39,3.89,6.77-11.33,3.69-15.63,4.61,0,4.31,4.3,6.46,19.61.93,21.14,1.24,7.36,8.62,4,10.46-20.23,2.77-19.92,6.47-3.37,13.23,15.32,10.46c0,0,7.35-2.46,8.88,5.23s-5.51,4.62-10.41,6.77-3.07,4.31-.62,5.85,5.82,4.31,12.57,0,8.23,10.46-4.46,14.77-1.36,8.31,2.92,7.08,5.61-6.46,6.64-3.69,4.66,12-9.56,10.46-21.59-28-27.11-43.09-42-61.6-47.67-67.57S331.6,396.29,338.44,400.18Z"/><path class="cls-2" d="M288.81,284.87s-40.23-5.37-47.93-7-32.09.22-37.59,3.49-18.68.26-13.19-5.52,19.12-4.09,32.1-9,29,2.58,36.05,2.58,31.44-.88,34.3.44,6.82,3.69,6.37,8S293.72,285.53,288.81,284.87Z"/><path class="cls-2" d="M353.44,284.87s40.23-5.37,47.93-7,32.09.22,37.59,3.49,18.69.26,13.18-5.52-19.12-4.09-32.09-9-29,2.58-36.05,2.58-31.44-.88-34.29.44-6.82,3.69-6.38,8S348.53,285.53,353.44,284.87Z"/><path class="cls-3" d="M310.64,411.65s.64,77.3,0,89.56.23,42.05.29,46.69-1.91,50.67-2.25,56.62-6.92,30.14,0,33.45,38.92,7.7,39.25-2.28a117.34,117.34,0,0,0-2.64-26.53c-1.32-6.29-1.32-15.57-2.64-21.86s-1-15.23-1-23.17-1.32-30.14-2-34.45-3.29-31.48-3.62-41.57-2.31-62.07-1-69-3.3-13.12-6.27-14.18S312.6,397.59,310.64,411.65Z"/><path class="cls-5" d="M369.8,624.39c-1.06-4.83-14.29,1.28-17.92,3.11s-15.14,1.71-15.14,1.71c-4.69.09-15.61,0-15.61,0s-10.93.09-15.63,0c0,0-11.5.11-15.13-1.71s-16.86-7.94-17.92-3.11-3.42,8.67-1.93,12.53,1.71,16.28,4.7,16.5,8.11,3.17,10.88,4.75,9.67,5,9.15,19.57c-.47,13.15,16.28,18.17,21.73,19.66v.37s1-.11,1.37-.18,1.36.13,1.36.18v-.37c10.9-1.49,25-6.51,24.51-19.66-.52-14.57,8.58-18,11.35-19.57s8.18-4.54,11.17-4.75,3.35-12.64,4.84-16.5S370.88,629.21,369.8,624.39Z"/><path class="cls-5" d="M245.21,1096.24s-14.47,8-19.87-5.85-10.37-24.94,3-28.2,19.44-1.08,21.38,6.94S251.69,1092.12,245.21,1096.24Z"/><path class="cls-4" d="M341,359.5c0-3.08-4.06-6.26-3.86-14.42s-7.61-20.89-1.47-28.05,14.29-16.92,13.11-18.71-1.24-10.44-.74-12.63-2.76-7.06-5.63-9.25-20.56,2.47-20.56,2.47-17.69-4.66-20.57-2.47-6.12,7.06-5.63,9.25.46,10.84-.73,12.63,7,11.54,13.1,18.71-1.66,19.89-1.47,28.05-3.86,11.34-3.86,14.42,1.3,11.44-.49,17.21.4,9.46,1.89,12.94-.54,11.23,8.38,19.89c0,0,4.1,5.77,9.38,5.77s9.37-5.77,9.37-5.77c8.92-8.66,6.9-16.42,8.38-19.89s3.67-7.17,1.89-12.94S341,362.59,341,359.5Z"/><path class="cls-3" d="M335.24,210.41c-1.52-.83-2.85-4.93-2.85-4.93a24.87,24.87,0,0,0-10.09-.26,25,25,0,0,0-10.11.26s-1.33,4.1-2.86,4.93-4.57,3-3,4.29,2.67,3.46,4.76,3.46,3.24-.33,5,0c1,.2,3,.39,4.76.56a9,9,0,0,0,3.05,0c1.79-.17,3.72-.36,4.75-.56,1.72-.33,2.86,0,5,0s3.24-2.15,4.77-3.46S336.77,211.23,335.24,210.41Z"/><path class="cls-2" d="M335.24,223.65c-1.52-.82-2.85-4.92-2.85-4.92a25.09,25.09,0,0,0-10.09-.27,25.19,25.19,0,0,0-10.11.27s-1.33,4.1-2.86,4.92-4.57,3-3,4.29,2.67,3.46,4.76,3.46,3.24-.33,5,0c1,.2,3,.4,4.76.57a9,9,0,0,0,3.05,0c1.79-.17,3.72-.37,4.75-.57,1.72-.33,2.86,0,5,0s3.24-2.14,4.77-3.46S336.77,224.48,335.24,223.65Z"/><path class="cls-3" d="M335.24,236.9c-1.52-.82-2.85-4.93-2.85-4.93a25.05,25.05,0,0,0-10.09-.26,25.15,25.15,0,0,0-10.11.26s-1.33,4.11-2.86,4.93-4.57,3-3,4.29,2.67,3.46,4.76,3.46,3.24-.33,5,0c1,.2,3,.4,4.76.56a8.38,8.38,0,0,0,3.05,0c1.79-.16,3.72-.36,4.75-.56,1.72-.33,2.86,0,5,0s3.24-2.14,4.77-3.46S336.77,237.72,335.24,236.9Z"/><path class="cls-2" d="M335.24,250.15c-1.52-.83-2.85-4.93-2.85-4.93A24.87,24.87,0,0,0,322.3,245a25,25,0,0,0-10.11.26s-1.33,4.1-2.86,4.93-4.57,3-3,4.28,2.67,3.46,4.76,3.46,3.24-.33,5,0c1,.21,3,.4,4.76.56a8.38,8.38,0,0,0,3.05,0c1.79-.16,3.72-.35,4.75-.56,1.72-.33,2.86,0,5,0s3.24-2.14,4.77-3.46S336.77,251,335.24,250.15Z"/><path class="cls-1" d="M276.74,104.47s-.18,9.21,10.68,9.4S303,111.42,307.65,103s6-16.55,0-19.37S290.41,81.52,284,85.66s-5.43,7.33-5.8,9S276.74,104.47,276.74,104.47Z"/><path class="cls-1" d="M323.39,108.6a85.08,85.08,0,0,1,0,13c-.57,6.77,0,14.29-3,15s-8.63-3-6.09-9.59S320.58,103.34,323.39,108.6Z"/><path class="cls-1" d="M365.51,104.47s.19,9.21-10.68,9.4S339.3,111.42,334.61,103s-6-16.55,0-19.37,17.23-2.07,23.59,2.07,5.43,7.33,5.81,9S365.51,104.47,365.51,104.47Z"/><path class="cls-1" d="M321.5,108.6a85.08,85.08,0,0,0,0,13c.56,6.77,0,14.29,3,15s8.62-3,6.09-9.59S324.31,103.34,321.5,108.6Z"/><path class="cls-3" d="M348.29,156.43s.51-3.05,1.33-1.92,1.07,4.21.82,5.73-1.57,5.47-2.47,2.27A10.18,10.18,0,0,1,348.29,156.43Z"/><path class="cls-3" d="M346.33,166.43s-1.68-7-1.3-8.8,2.11-2.78,2.94-1.73a8.3,8.3,0,0,1,1,5C348.72,162.25,349,165.76,346.33,166.43Z"/><path class="cls-3" d="M341.5,168.85s-1.5-4.24-1.1-7.07,1-5,2.72-5.77,2.3,2.58,2.39,4.71S346.21,170.62,341.5,168.85Z"/><path class="cls-3" d="M333.89,166.43s1.32,3.37,2.23,3.95,4.45,2.24,4.28-6.6-3.57-8-4.66-6.13S333.32,158.1,333.89,166.43Z"/><path class="cls-3" d="M329.72,160.88s1.71-3.57,4.17-1.27c0,0,1.79,12.07-1.44,12.27s-3.41-.51-3.74-1.53S329.29,161.56,329.72,160.88Z"/><path class="cls-3" d="M323.44,172c-.38-.24-.78-11,.49-11.8s5.27-1.88,5.6,2.72S330.52,176.64,323.44,172Z"/><path class="cls-3" d="M297.82,156.43s-.51-3.05-1.33-1.92-1.07,4.21-.83,5.73,1.58,5.47,2.48,2.27A10.09,10.09,0,0,0,297.82,156.43Z"/><path class="cls-3" d="M299.78,166.43s1.68-7,1.29-8.8-2.1-2.78-2.93-1.73a8.23,8.23,0,0,0-1,5C297.39,162.25,297.15,165.76,299.78,166.43Z"/><path class="cls-3" d="M304.61,168.85s1.5-4.24,1.1-7.07-1-5-2.72-5.77-2.3,2.58-2.39,4.71S299.9,170.62,304.61,168.85Z"/><path class="cls-3" d="M312.21,166.43s-1.31,3.37-2.22,3.95-4.45,2.24-4.28-6.6,3.57-8,4.67-6.13S312.79,158.1,312.21,166.43Z"/><path class="cls-3" d="M316.39,160.88s-1.71-3.57-4.18-1.27c0,0-1.78,12.07,1.45,12.27s3.41-.51,3.74-1.53S316.82,161.56,316.39,160.88Z"/><path class="cls-3" d="M322.67,172c.38-.24.78-11-.49-11.8s-5.27-1.88-5.6,2.72S315.59,176.64,322.67,172Z"/><path class="cls-3" d="M348.59,154.37a12.72,12.72,0,0,1-1.35-3.51c-.16-1.39-.08-5.77,1.35-6s2.06,1.34,2.15,4.19S351,154.83,348.59,154.37Z"/><path class="cls-3" d="M344.21,153.67s-.41-6.46,0-7.4,2-3.07,2.91-1.47,1.13,4.72.71,7.53S344.76,156.58,344.21,153.67Z"/><path class="cls-3" d="M339.72,151.92s.68,3.82,1.72,3.93,2.54-.57,2.38-6.49-1.35-5.41-2.62-4.53S339.89,150.36,339.72,151.92Z"/><path class="cls-3" d="M336.25,154.56s.91,2.2,1.54,2.31,2.89-1.7,2.53-6.37-1.2-7.29-3.94-4.55S335.78,153.58,336.25,154.56Z"/><path class="cls-3" d="M329.88,149.47s.27-4,1.7-4.32a3.92,3.92,0,0,1,4.37,3.19c.32,2.38,1,10.13-2.38,10.24S329.92,155.17,329.88,149.47Z"/><path class="cls-3" d="M329.37,147.13s.76,7.34.42,8.63-.61,3.83-3.73,3.46-2.51-5.57-2.74-6.92.18-7.89,1.86-7.72S328.25,143.82,329.37,147.13Z"/><path class="cls-3" d="M297.52,154.37a12.72,12.72,0,0,0,1.35-3.51c.16-1.39.08-5.77-1.35-6s-2.07,1.34-2.15,4.19S295.13,154.83,297.52,154.37Z"/><path class="cls-3" d="M301.9,153.67s.41-6.46,0-7.4-2.05-3.07-2.91-1.47-1.12,4.72-.71,7.53S301.35,156.58,301.9,153.67Z"/><path class="cls-3" d="M306.39,151.92s-.68,3.82-1.72,3.93-2.54-.57-2.38-6.49,1.35-5.41,2.62-4.53S306.21,150.36,306.39,151.92Z"/><path class="cls-3" d="M309.86,154.56s-.91,2.2-1.55,2.31-2.88-1.7-2.52-6.37,1.2-7.29,3.94-4.55S310.32,153.58,309.86,154.56Z"/><path class="cls-3" d="M316.23,149.47s-.27-4-1.7-4.32a3.92,3.92,0,0,0-4.37,3.19c-.32,2.38-1,10.13,2.38,10.24S316.19,155.17,316.23,149.47Z"/><path class="cls-3" d="M316.74,147.13s-.76,7.34-.42,8.63.61,3.83,3.73,3.46,2.51-5.57,2.73-6.92-.17-7.89-1.85-7.72S317.86,143.82,316.74,147.13Z"/><g class="cls-6"><path class="cls-7" d="M319.15,504.39c0-.07-.09-.11-.12-.18a23.5,23.5,0,0,1-1.24-4.92,2.07,2.07,0,0,0-.18-.53,74.55,74.55,0,0,0-5.87-20.62,23.5,23.5,0,0,0-1.8-3.39c.37-2.87.38-5.37,1.56-8.18,1.27-3,3-6,4.53-8.88.83-1.54-1.28-2.55-2.37-1.54-3.17,3-7.76,7.66-9.25,12.6-3.53-2.8-7.65-4.88-12-7.7-1.4-.91-3.12,1-1.73,2,5.53,4.24,10.39,7.43,14.07,12.51,0,0,0,.09.06.13a2.82,2.82,0,0,0,.56.76,30.67,30.67,0,0,1,3,5.63c2.35,5.89,2.52,12.44,4.18,18.48a23.88,23.88,0,0,0-1.94-1.42c-3.87-2.51-8.66-3.24-13.34-2.9a9.75,9.75,0,0,0-1-.72,1.73,1.73,0,0,0-.57-.71c-10.27-7.45-22.95-4.9-29.95,5.5a19.41,19.41,0,0,0,3.67,26,10.28,10.28,0,0,0,11.31,1.14,14.19,14.19,0,0,0,5.26-4.8,40.42,40.42,0,0,1,8-9.28c3.88-3.3,6.69-8.31,6.06-12.53a19.39,19.39,0,0,1,9.41,4.44c3.72,3.24,4.62,8.57,9.21,10.89a1.86,1.86,0,0,0,1.37.09,2.73,2.73,0,0,0,2.67-2.28C322.81,510.21,320.41,507.78,319.15,504.39Z"/><path class="cls-8" d="M323.85,556.55s-24.28,2.77-20.69-14.69,16.55-26.6,30.9-24.11,57.94,0,65.11-1.65,19-6.38,17.66-1.39S403,536.32,392.4,536.32s-9.47,5.62-15.3,8.59-12.12,6.93-17.23,7.76S323.85,556.55,323.85,556.55Z"/><path class="cls-5" d="M388.16,441.4c0-.63.25-1.28.23-1.95,0-.39.25-.79.25-1.18v0a9.35,9.35,0,0,0-3.62-6.92,10.22,10.22,0,0,0-4.84-2.21,9.94,9.94,0,0,0-5,.46,10.28,10.28,0,0,0-2.47,1c-11.8-7.22-24.19-13.93-31.89-24.53-11.29-15.54-7.19-45.84-8.14-63.93-1.27-24.48-2.85-48.91-3.38-73.43-.21-9.55,3.2-76.11,3.83-85.67H321.4c-.78,9.94-4.22,76.89-4.5,86.83-.79,28,1.7,56.08,2.73,84,.68,18.38-1.75,40.5,7.66,57.17,8.2,14.54,23.75,22.25,37.91,31.3a11.31,11.31,0,0,0,3.89,8,11.58,11.58,0,0,0,8.55,2.71,10.93,10.93,0,0,0,1.65-.28c.94.85,1.85,1.71,2.73,2.62,6.48,6.69,16.06-4.52,9.39-11.08C390.37,443.34,389.28,442.36,388.16,441.4Z"/><path class="cls-5" d="M297.3,561.85a35.92,35.92,0,0,1-6.29-9.93c-2.28-5.36-3.86-14-1.82-19.71,3.05-8.44,12.78-13.59,19.09-19.32s11.77-12.82,18.6-18.13c6.07-4.71,31.46-11.92,37.52-19.39s-2.75-20.5,2.49-26.88,19-25.49,38.9-15.79,24,32.48,19.31,44.22-28.41,45.27-45,47.49-50.43,1.38-57.5,3.05-17,9.71-14.21,18.09c2.62,7.89,14.14,7.18,20.55,6.91,9.77-.41,19.47-2.31,29.09-3.92,3.1-.51,6.49-1.38,9.66-1.14,14.14,1.1,23.07,9.81,20.69,25.21-3.16,20.51-28.69,6.66-28.69,6.66s12.68-14.13,3.3-16.9-13.24,4.71-24.28,5.81c-8.68.88-17.38,2.82-26.16,1.93C306.49,569.49,301.3,566.27,297.3,561.85Z"/><path class="cls-9" d="M246.32,537.7S233.63,548,229.76,508.89s0-75.91,20.14-86.72,51.6-6.65,68.15-5.26,48-1.68,56.84-2,18.76.84,17.38,10.26-21.52,42.67-41.66,46.55S309.78,495,298.74,500.3,254.05,534.38,246.32,537.7Z"/><path class="cls-10" d="M375.65,628.25c8.14-1.67,11.05-8.68,8.37-16.85-2.3-7-10.7-15.68-18.72-13.84-4.42,1-7.12,3.59-9.71,7.26-.74,1-8.34,14.54-8.43,14.36-3.76-7.9-1.29-21-10.67-25.84-8.18-4.19-14.34.16-18.29,7.6-.5.94-.94,1.92-1.36,2.92a36.23,36.23,0,0,0-3.71-8.05c-3.53-5.58-11.77-7.27-16.22-1.71-.41.51-.79,1-1.15,1.56a39.65,39.65,0,0,0-7.39-10.76c-4.95-5.06-13.61-8.42-16.19,1.09-1.84,6.81-1.66,14-2.22,21,0,.58-.12,1.15-.18,1.73A15.37,15.37,0,0,0,257.72,605c-15.35,1.44-11.11,26.07-1.74,32.12,4.37,2.82,8,2.77,11,.95a35.59,35.59,0,0,0-4.48,10.17c-.87,3,1.49,5.5,4.21,6.19-2,4.54-1.15,9.5,2.5,15,6.32,9.53,6.83,16.87,8.48,27.78.66,4.39,3.49,7.48,6.45,10.47.45.45,1.14-.23.81-.74-6-9.06-3.8-19-5.66-29a13.33,13.33,0,0,0-1.71-4.63c-.74-1.15-1.47-2.3-2.2-3.46q-8-7.3,8.48-11c2.38,12.65-3.45,27.61,4.84,38.66,5.67,7.55,15.58.8,18.41-5.66a40.52,40.52,0,0,0,3.19-12.07c-.16,7,.84,14,5.59,17.33,9.64,6.75,14-4.91,16.41-12.72,1.78-5.85,6.19-21.52,4.15-26,2.1,4.64,1.69,11.43,2.21,16.42.8,7.62,2.81,19.56,12,21.13,15.1,2.57,16.91-17,16.22-32.36a12.94,12.94,0,0,0,4.12-.09C391.37,659.54,391,636.1,375.65,628.25Zm-9.75-9.53c-1.94,0-3.71.12-5.39.3,1-2.27,1.84-4.42,2.6-6C367.91,602.9,380.84,618.39,365.9,618.72Zm-72.74,21.46a14.28,14.28,0,0,1-5-3.28c4.84-2.61,9.33-5.62,11-11.65a15,15,0,0,0,7,3.79C303.88,636.65,299.7,642.61,293.16,640.18Zm31.26-12.7c5-1.08,7.41,2.45,7.81,7.06,0,.24-2.15,14.51-4.18,11.75-3.47-4.74-3.58-13-4-18.73Zm9.25-21c1.56,3.71,2.05,9.15,3.26,14.06a15.88,15.88,0,0,0-10.41-3.67,14.66,14.66,0,0,0-2,.1c0-.1,0-.21,0-.31C325,613.31,328.77,594.8,333.67,606.44Zm-26.34.95c.82,2.25,1.08,6.54.69,11.28a12.46,12.46,0,0,1-6.32-10.51C299.54,593.36,306.56,605.29,307.33,607.39Zm-27-6.24c.11-2.24.24-4.49.38-6.73.61-9.67,5,5,5.86,6.83,4.6,9.48,5.48,21.38-4.78,26.46-1.49-2.8-2.9-5.76-4.41-8.59A103.55,103.55,0,0,0,280.34,601.15ZM257.77,618.4c.47-5.37,5.44-.78,9.05,3.46C263.6,629.46,256.93,627.69,257.77,618.4Zm18.12,26.89a18.82,18.82,0,0,1,3.68-3.45c.2.27.37.57.58.84a23,23,0,0,0,2.13,2.53A11.38,11.38,0,0,0,275.89,645.29ZM300.45,682q-6.7,7.71-5.79.41c-.21-3.5.16-7,.25-10.53.15-6.32,0-12.32-2.42-18.19a12.12,12.12,0,0,0-1.69-2.83,15.28,15.28,0,0,0,8.54.66C296.36,659.9,301.45,674.77,300.45,682Zm11.13-16.81c-.19,2.3-.61,5.41-.92,8.8a50.83,50.83,0,0,0-1-9C308.48,658.81,312.75,651.62,311.58,665.19Zm-1-21.65a33.88,33.88,0,0,0,4-6.23c.3,1.63.63,3.21,1,4.72a22.31,22.31,0,0,0,1.48,4.09A8.82,8.82,0,0,0,310.59,643.54Zm11,39.89a30,30,0,0,1-.5-4.34c-.59-5.22.61-11.4.82-16.71a29.66,29.66,0,0,0-1.21-10.48,17.16,17.16,0,0,0,7,5.54C324.31,665.46,323.88,675.14,321.57,683.43ZM356,675.61c-.09.57-3.14,10.68-4.63,7.49-1.34-2.86-1.64-6.21-2.08-9.31-.7-4.85-.91-9.7-1.79-14.53-.57-3.11-3.38-9.93-7.29-12.06A34.66,34.66,0,0,0,341.9,630a9,9,0,0,0,2.54,1.42c-1.73,8.5,3.43,19.4,10.77,26.11C355.76,665.17,356.57,672.14,356,675.61Zm10-23.71-.13-.08c-.13-1.16-.26-2.2-.37-3-.43-3.43-2.17-17.07,8-9.7Z"/><path class="cls-5" d="M269.18,648c2.53-3.46,4.21-7.33,4-10.59a8.7,8.7,0,0,0-4.34-7.57,13.22,13.22,0,0,0,1.08-4.41c.28-4.19-1-7.08-3.2-9,3-4.5,5-9.88,1.89-14.41a9.23,9.23,0,0,0-2.83-2.7c1.93-4.21,1.57-9.32-2.14-12.7a5.63,5.63,0,0,0-1-.7c-.17-3.51-2.18-6.87-6-9.13-4.89-2.89-8.62-5.36-11.33-10.53a38.11,38.11,0,0,0-6.15-9.06c-4.71-4.88-9.09-.67-11.15,4a3.54,3.54,0,0,0-1.28,3,5.53,5.53,0,0,0,.15.75,33.51,33.51,0,0,0,.29,13.64,7.12,7.12,0,0,0-5.54,4.49c-1.66,3.77-.89,8.89.7,13.36A10.59,10.59,0,0,0,220,597.9c-5.57,4.58-4.22,12.34-.67,17.81a13.59,13.59,0,0,0-2.27,1.8c-4.84,4.93-2.06,14.5,2.09,20.17a6.09,6.09,0,0,0-2.26,2.67c-3,7.27,1,14.5,7.07,18.7a14.91,14.91,0,0,0-1.66,9.86c1.35,8.54,8.4,16.56,15.82,20.37,14.46,7.43,37-8.73,38-23.62C276.67,657.62,273.83,651.77,269.18,648Z"/><path class="cls-5" d="M413.51,647.88c-.26-.28-.55-.53-.83-.8,3.17-3.21,4.84-7.29,4.22-13a10,10,0,0,0-2.51-5.93c3.42-4.73,5.86-11.66,2.57-15.42a11.92,11.92,0,0,0-1.41-1.36,15.43,15.43,0,0,0,0-3.53c4-5.49,7.83-12.13,4.77-18.91-2.95-6.6-10.56-7-16.15-4-1.79,1-3.53,2-5.39,2.79-2.16,1-5.53-.38-7.85-.32a9.89,9.89,0,0,0-7.31,3,8.49,8.49,0,0,0-2.14,8.37,9.56,9.56,0,0,0-6.65,5.07,16.61,16.61,0,0,0-1,11.6c-1.54,1-2.59,2.64-2.77,5.57-.13,2.14,1,6.2,2.86,9.39-7.57,3.83-4.81,11.72-.38,17.17a10,10,0,0,0-1.7,7.82,14.79,14.79,0,0,0,5.57,9.3A19.14,19.14,0,0,0,372.9,671a11,11,0,0,0-5,7,5.73,5.73,0,0,0-.89,4.4,49.33,49.33,0,0,0-7.69,0c-5.5-5.13-13.48-7-19.71-4a12.75,12.75,0,0,0-4-1.46c-22.33-3.86-32.16,20-33.07,38.12-.79,15.83-1.9,32,2.07,47,.15,3.67,1,5.94,2.34,7.13a58.62,58.62,0,0,0,6.52,12.24,2.14,2.14,0,0,0,3.68-.2,4,4,0,0,0,2.44-.78c4.88-3.9,6.69-12.27,8.53-18,3.58-11.15,2.69-22.33,4.74-33.31a40.87,40.87,0,0,1,5-7.78c6,2.39,12,4.49,17.4,1.86a32.2,32.2,0,0,0,15.54,3.25,26.87,26.87,0,0,0,8.3-.53,21.71,21.71,0,0,0,10.51-5.61,10.21,10.21,0,0,0,2.23-.68,21.32,21.32,0,0,0,17.77-11,15.17,15.17,0,0,0,1.72-9.09c4.95-4.08,9.38-9.08,9.51-15.81a26.61,26.61,0,0,0-6.62-17.47C417,660.33,418.27,652.94,413.51,647.88Z"/><path class="cls-11" d="M420.84,557c-2.47-3.27-3.82-5.16-4.37-9.38-.34-2.63-.68-5.61-2.26-7.84-5.06-7.09-12-5-16.32.93-4.88-1.82-9.88,1.19-13,5.37-5.12-2.68-10.1.06-13.38,4.81a19.68,19.68,0,0,0-9.1-3.32c-4.68-.55-9.86,3.64-12.07,8.47-4.27-.58-7.94,2.85-11.19,6.73-4.19-6.68-15.51-4.09-20.18,1.83-3.53-2.67-8.73-3-12.05.13a11,11,0,0,0-5-4.77c-3.21-1.51-5.65-1.28-7.36-.11a10.26,10.26,0,0,0-5-7.24,11.62,11.62,0,0,0-8.2-1.31c-.05-11.6-13.86-11.88-22.22-12-9.67-.18-19.87,1.23-22.89,11.79-2.87,10,6.29,20.63,14.89,24.71.18,4.59,4.86,10.11,8.91,12.73,3.8,2.47,7.53,3.74,12,2.55a2.83,2.83,0,0,0,.4-.17c3.95,5.27,8.51,10.05,15.44,10.67a7.29,7.29,0,0,0,5.05-1.27c3.85,5.25,13.71,6.09,19.2,4.69a7.63,7.63,0,0,0,2.8-1.37c7.24,4.64,15.77,6.11,20.21-1.1,3.15,4,7.88,6.53,13.3,4.91,4.36-1.3,7-3.77,8.39-6.87,6,2.1,16.74,4,19.47-3.9.11-.34.17-.67.27-1a17.18,17.18,0,0,0,21.77-2.94c4.23,0,8.49-4.05,11.18-9.24a10.93,10.93,0,0,0,1.55,1.12c10,5.87,15.69-4.85,15.65-13.52C426.71,566,423.78,560.91,420.84,557Z"/></g><path class="cls-12" d="M294,702c0-.16-.05-.32-.08-.49a22.94,22.94,0,0,0-7.41,3.91c-2,1.5-3.83,3.16-5.75,4.74a35.7,35.7,0,0,1-5.32,3.77c-1.44-3.22-5.18-5.52-9.57-5.52-5.64,0-10.2,3.78-10.2,8.45s4.56,8.46,10.2,8.46,10.2-3.79,10.2-8.46c0-.15,0-.29,0-.44a33,33,0,0,0,5.24-3.65c3.7-3.09,7.14-6.81,11.52-9,.44-.22.88-.41,1.32-.58A7.13,7.13,0,0,1,294,702Z"/><path class="cls-13" d="M373.1,692.61c-16.09,13-22.58,3.74-22.58,3.74-17.85-13.8-32-12-32-12s-14.11-1.77-32,12c0,0-6.49,9.27-22.58-3.74,0,0-16.87-7.49-11.57,12,0,0,3.13,9.07,3.53,16a18.59,18.59,0,0,1,7.45-11.24s-10-4.89-5.5-11,7.46-.21,11.79,2.15,9,7.1,20.8-.59c0,0,5.11-4.53,3.14,9.46s10.8,20.7,11.58,23.26-7.06,10.45-4.9,20.7,10.2,16.72,11.58,22,1.37,4.71,1.37,4.71h10.56s0,.61,1.38-4.71,9.42-12.11,11.58-22.36-5.69-18-4.91-20.54,13.54-9.19,11.58-23.18,3.14-9.43,3.14-9.43c11.78,7.69,16.49,3,20.81.61s7.27-8.27,11.78-2.14-5.49,11-5.49,11a18.55,18.55,0,0,1,7.45,11.23c.39-6.89,3.53-16,3.53-16C390,685.12,373.1,692.61,373.1,692.61Z"/><path class="cls-14" d="M317,777.34a15.78,15.78,0,0,1-.43-2.13c-.77-3-2.64-6-4.82-9.18-2.63-3.91-5.63-8.45-6.72-13.6s1.18-9.52,3-13.09c1.44-2.86,2.68-5.36,1.83-8.12-.57-1.87-1.91-3.16-3.77-4.91a31.09,31.09,0,0,1-5.7-6.63,14.33,14.33,0,0,1-1.94-9.64c1-7,.51-11.09-1.6-13.53a8,8,0,0,0-.78-.76,51.06,51.06,0,0,1,10.86-4.93,33.9,33.9,0,0,1,10-1.71c.62,0,1,0,1.1,0l.66.1.5-.1c.11,0,.48,0,1.09,0a34,34,0,0,1,10,1.71,51.06,51.06,0,0,1,10.86,4.93,7,7,0,0,0-.78.76c-2.11,2.44-2.59,6.49-1.6,13.53a14.36,14.36,0,0,1-1.94,9.63,31.3,31.3,0,0,1-5.7,6.62c-1.86,1.76-3.2,3-3.77,4.9-.85,2.76.39,5.23,1.82,8.1,1.8,3.56,4,8,3,13s-4.08,9.59-6.72,13.5c-2.17,3.21-4,6.43-4.81,9.4a17.58,17.58,0,0,1-.43,2.13Z"/><path class="cls-12" d="M343.13,702l.09-.49a22.89,22.89,0,0,1,7.4,3.91c2,1.5,3.83,3.16,5.75,4.74a36.76,36.76,0,0,0,5.32,3.77c1.44-3.22,5.18-5.52,9.57-5.52,5.64,0,10.21,3.78,10.21,8.45s-4.57,8.46-10.21,8.46-10.2-3.79-10.2-8.46c0-.15,0-.29,0-.44a33,33,0,0,1-5.24-3.65c-3.7-3.09-7.14-6.81-11.51-9a14.09,14.09,0,0,0-1.33-.58A7.13,7.13,0,0,0,343.13,702Z"/><path class="cls-15" d="M228,444.12c-8.78-7.48-10.55-20.53-10.69-31.9-.43-35.43,7.88-73.88,23.19-105.84a95,95,0,0,1,9.25-15.76c6.13-8.22,11.23-18.29,19.15-24.93,8.56-7.18,19-5.14,24.17,4.86,5.69,11,5.43,24.81,4.66,36.83-.57,8.86,3.91,15.44,8.49,22.54a44.27,44.27,0,0,1,7.5,22.57,392,392,0,0,1,0,42.4c-.66,11.72-1.11,24.37-4.7,35.64-.9,2.84-2.52,7.56-5.36,9.17-10.36,5.9-22.58,8-34.27,9.3s-24.78,3.73-36-1.46A23.06,23.06,0,0,1,228,444.12Z"/><path class="cls-16" d="M409.12,444.12c8.77-7.48,10.55-20.53,10.68-31.9.43-35.43-7.87-73.88-23.19-105.84a94.92,94.92,0,0,0-9.24-15.76c-6.14-8.22-11.23-18.29-19.16-24.93-8.56-7.18-19-5.14-24.17,4.86-5.69,11-5.43,24.81-4.65,36.83.57,8.86-3.92,15.44-8.49,22.54a44.28,44.28,0,0,0-7.51,22.57,392,392,0,0,0,0,42.4c.66,11.72,1.11,24.37,4.7,35.64.89,2.84,2.52,7.56,5.36,9.17,10.36,5.9,22.57,8,34.26,9.3s24.78,3.73,36-1.46A23.48,23.48,0,0,0,409.12,444.12Z"/><path class="cls-17" d="M413,377.23c-10.46-2.11-17.39-10.49-24.69-17.57-.1-.19-.18-.38-.29-.57l-.15-.21a12.8,12.8,0,0,1,1.76-.77c2.47-.82,3.95.1,5.86,1.6a9.51,9.51,0,0,0,6.13,2.34c.25,0,.23-.34,0-.41-3.75-1.12-5-5.23-8.44-6.71a11,11,0,0,0-9.49.62c-6.45-5.25-14.61-9.49-22.85-6.36-.47-.86-.95-1.77-1.44-2.63a57.93,57.93,0,0,0-3-5.15h0c3.88,0,7-1,11-.43a37.41,37.41,0,0,0,9.21.46,39.55,39.55,0,0,0,2.88,2.9,29.86,29.86,0,0,0,5.22,4.64c2.89,1.88,6.1,2.61,9.07.47a.49.49,0,0,0-.44-.87c-3.55,1.27-6.73-2.27-9-4.58-.84-.87-1.82-2.27-2.89-3.54,3.86-1.24,7.55-3.56,8.95-7.34a.34.34,0,0,0-.41-.45c-2.88.64-5.22,2.83-8,3.82a22.89,22.89,0,0,1-10.72.84c-5.38-.72-11.05-2.33-16.13.4a1.68,1.68,0,0,0-.62.59q-2.61-4.19-5.44-8.23c2.94-1.25,5.09-4.49,7.93-6.06,4.06-2.25,8.29-2.29,12.8-2.33,7.39-.08,12.68-1.48,15.56-8.79,0,0,0-.07-.06,0-5.84,7-14,4.27-21.7,4.84.12-2.61,0-5.23.69-7.78a95.94,95.94,0,0,0,2.47-9.46.09.09,0,0,0-.16-.05c-1.29,3.1-3.5,5.64-4.93,8.67s-1.68,6.24-2.81,9.34c0,0,0,0,0,0a21.24,21.24,0,0,0-6.26,2.64c-2.18,1.38-4.83,2.9-6.31,5.09a131.09,131.09,0,0,1-11.37-17.72c-6.38-12.56-13.23-27.17-14.63-41.08-.78-7.73,2.17-47.92,2.32-54.85h-5c-1.07,3.1-1.25,27.58-1.23,30.78.25,8.7.15,17.75,0,24.81-.32,14-6.22,25.23-11.6,38.25a132.08,132.08,0,0,1-10,18.57c-1.64-2.08-4.4-3.39-6.68-4.59a21.21,21.21,0,0,0-6.45-2.14l0,0c-1.36-3-1.87-6.2-3.53-9.09s-4.05-5.27-5.59-8.25c0-.09-.17,0-.15.06.84,3.18,2.07,6.16,3.21,9.23.91,2.48,1,5.11,1.29,7.71-7.75,0-15.65,3.38-22-3.13,0,0-.08,0-.06,0,3.44,7.06,8.82,8.05,16.19,7.55,4.5-.31,8.72-.61,12.95,1.32,3,1.34,5.35,4.4,8.38,5.41q-2.5,4.26-4.79,8.64a1.55,1.55,0,0,0-.66-.54c-5.28-2.32-10.8-.28-16.11.87A23,23,0,0,1,260,338c-2.86-.77-5.36-2.77-8.28-3.18a.33.33,0,0,0-.37.48c1.68,3.66,5.55,5.68,9.49,6.61-1,1.35-1.84,2.83-2.61,3.76-2.07,2.49-5,6.26-8.6,5.27a.49.49,0,0,0-.37.9c3.12,1.91,6.27.94,9-1.17a29.94,29.94,0,0,0,4.85-5c.71-.88,1.89-2,2.64-3.09a37.51,37.51,0,0,0,9.15-1c3.89-.88,7.05-1.61,11-.18h0c-.89,0-1.78,3.31-2.63,5.12-.42.9-.82,1.67-1.23,2.57-8.45-2.48-16.26,2.35-22.28,8.08a11.08,11.08,0,0,0-9.51.11c-3.35,1.75-4.24,5.93-7.89,7.35-.2.08-.19.41,0,.39a9.47,9.47,0,0,0,5.93-2.82c1.78-1.63,3.19-2.66,5.72-2a11,11,0,0,1,1.81.63c0,.07-.09.13-.13.21s-.16.4-.25.59c-6.73,7.64-13,16.53-23.24,19.46-.05,0,0,.08,0,.08,9-1,15.46-7.31,21.64-13.37-.81,6.14.08,12.61-1.93,18.56,0,.09.11.14.15.07,4.25-7.27,3-16,6.73-23.38a41.92,41.92,0,0,1,8-5.92,25.22,25.22,0,0,1,6.49-2.45,20.52,20.52,0,0,1,6.4-.08c-1.63,4-3.15,8.09-4.7,12.15-2.91,7.63-5.58,15.37-6.65,23.51,0,.15.21.22.24.06,1.6-8,4.78-15.47,8.06-22.89,1.9-4.3,3.8-8.59,5.82-12.82a2.53,2.53,0,0,0,.63-.26,132.86,132.86,0,0,0,3.71,16.26,1.68,1.68,0,0,0-.24.29c-4.09,6.28-2.66,12.2-1.79,19.09a.13.13,0,0,0,.25,0c-.21-5,.51-10.94,3-15.51l.22.7c2.54,7.86,6.62,15,8,23.23a.16.16,0,0,0,.31,0c2.19-7.32-1-14.17-3.51-21a108.33,108.33,0,0,1-3.73-12.57c1.21.45,2.47.78,3.64,1.35,2.83,1.37,5.1,2.79,6.18,5.9a.29.29,0,0,0,.56-.15,16.47,16.47,0,0,0-3.73-6.71c-1-1-2.13-1.79-3.16-2.72a17.73,17.73,0,0,0-3.49-3,2.14,2.14,0,0,0-1.19-.27c-.58-3.06-1.06-6.13-1.46-9.18a2.19,2.19,0,0,0-1.09-1.65c.29-.57.59-1.14.89-1.7a206.53,206.53,0,0,1,12.14-19.8c4.18-6.09,8.5-11.85,11.77-18.51a104.41,104.41,0,0,0,8.21-24.12,106.29,106.29,0,0,0,11,26.64c3.78,6.39,8.54,11.79,13.18,17.53a209.61,209.61,0,0,1,13.64,18.79c.34.54.68,1.08,1,1.62a2.2,2.2,0,0,0-1,1.73c-.16,3.07-.4,6.17-.74,9.27a2.28,2.28,0,0,0-1.17.36,17.77,17.77,0,0,0-3.23,3.31c-1,1-2,1.89-2.93,3a16.26,16.26,0,0,0-3.2,7,.29.29,0,0,0,.56.11c.83-3.19,3-4.78,5.7-6.37a38.44,38.44,0,0,1,3.52-1.63,105.4,105.4,0,0,1-2.74,12.82c-2,7-4.61,14.1-1.86,21.23.05.15.3.15.31,0,.76-8.32,4.27-15.76,6.19-23.79.05-.24.11-.48.16-.72,2.81,4.37,4,10.21,4.16,15.23,0,.17.24.14.25,0,.34-6.94,1.29-13-3.27-18.89a1.76,1.76,0,0,0-.26-.28,131,131,0,0,0,2.43-16.5,2.32,2.32,0,0,0,.66.21c2.33,4.06,4.56,8.19,6.79,12.32,3.85,7.15,7.61,14.35,9.82,22.19,0,.16.26.08.23-.07-1.71-8-5-15.54-8.46-22.93-1.86-3.92-3.69-7.86-5.63-11.74a20.1,20.1,0,0,1,6.39-.41,24.56,24.56,0,0,1,6.66,1.92,42.23,42.23,0,0,1,8.39,5.29c4.24,7.09,3.72,15.86,8.52,22.77.05.07.18,0,.15-.07-2.47-5.79-2.09-12.3-3.37-18.36,6.63,5.56,13.59,11.38,22.61,11.63C413.08,377.31,413.08,377.24,413,377.23Z"/><path class="cls-18" d="M368.55,355.06c1-.37,2.1-.73,3.27-1.05a16.2,16.2,0,0,0-3,.4,3,3,0,0,0,1.59-2.3c-.35,1.33-1.92,2.2-2.8,2.6a26.32,26.32,0,0,0-7.1,3.18,23,23,0,0,0,1.73-8.77,9.78,9.78,0,0,0-2.12.25c-1.58,13.46-10.69,14.74-10.69,14.74-1.69-3.65-6.22-5.71-6.22-5.71-3,2.61-3.4,8.92-3.87,10.44s-2.4,1.64-6.49,2.4-3.89,2.12-7.69,2.34c-5.31.3-8.37-6.27-6-10.95,2.07-4,7.89-3.84,7.89-3.84,1.38-.33,2.49-2.36,4-5.21a12.25,12.25,0,0,1,4.71-4.43s-3.77-8.48-18-5.49S295.45,354.94,295,367c0,0-7.77,3.29-10.52,9.59s-2.45,35.81,11.78,46c0,0,4.08,15.9,15.81,20.1s16.13-3.2,22.81,3.16,16,13,29.64,8.3c10.25-3.54,20.82-9.5,19-25-1.26-10.75-6.32-22.71-11.47-31.88-5.08-9-11.44-17.2-18-25.07l-1.38-1.67-.4-1.66a8.77,8.77,0,0,0,4.4-3.89,45.78,45.78,0,0,0,2.83-4.92,30.12,30.12,0,0,1,7.24-4.28,9.36,9.36,0,0,1,7.87,2A7.6,7.6,0,0,0,368.55,355.06Z"/><path class="cls-19" d="M390.88,367.54s-5.07,1.32-10.91-4.11a84.77,84.77,0,0,0-7.93-6.68,12.54,12.54,0,0,0,11.76-4.08c-5.15,4.59-12,2.95-14.8,2-1.24-.77-2.54-1.5-3.87-2.17,9.39,1.27,11.33-5.09,11.33-5.09-3.46,6.45-13.54,3.42-13.54,3.42a10.69,10.69,0,0,0,3.61-1.75c4.64-3.18,4.26-8.37,4-8.7s-.5,4.81-4.5,7.66c-2.46,1.74-5.91,2-8.18,1.89a20.94,20.94,0,0,0-9.41.13C336.2,353.16,324,363.74,324,363.74a11.46,11.46,0,0,0-2.65,5.45c-.41,3-.72,5.16-1.81,5.91,0,0-5.16,1.77-5.63,6-.54,4.9,4.32,9.63,8.87,7.59,3.25-1.45,2.62-2.56,5.95-4.6s5-2.76,4.88-4.25-1.85-7.15-.08-10.43c2-6.56,8.68-11.55,11.79-13.53a9.17,9.17,0,0,1,1.78-.92s5.06-3.37,7.85-2.39a27.2,27.2,0,0,1,9.91,7.19c1.33,2,3,6.12-.87,10.52a7.58,7.58,0,0,0,2.65-8.26,23.4,23.4,0,0,1,4.14,10.79s2-11.28-10.92-19.52a45.92,45.92,0,0,1,13.34,8.2c.3,2.48,1.75,12.31,6.84,17.59A45.77,45.77,0,0,1,375.65,369a11.69,11.69,0,0,0,5.21,5.27,18.83,18.83,0,0,1-5.92-8.29,25.9,25.9,0,0,1-.32-3.14c4.77,4.73,8.74,11.31,8.34,20a9.69,9.69,0,0,0,.58-2.36c.07.88.16,1.92.23,3.16a23.23,23.23,0,0,0,1.42,7.09,37.15,37.15,0,0,1-.87-7.85,26.13,26.13,0,0,0-.74-6.11c-.08-.73-.21-1.53-.39-2.38,5.24,6.81,10.16,9.1,10.16,9.1a36,36,0,0,1-6.51-6c5.31,3.24,8.71,1.39,8.71,1.39-3.83,1.13-7.68-1.08-9.95-2.82-1.2-1.4-2.22-2.7-2.93-3.62a31,31,0,0,0-4.1-8.14S386.66,369.65,390.88,367.54Z"/><path class="cls-20" d="M448.36,1527.14c-4.09-7.16-8.74-25.22-12.37-39.51-2.9-11.38-6.81-23.2-8.29-27.56-.72-2.89-1.48-5.68-2.24-8.27,1.33,1.88,2,1,4.28,3.32,3.08,3.06,3.65,8.38,4.28,12.64s.13-1,.13-1c-.73-10.79-4-13.26-6.69-15.5a15.25,15.25,0,0,1-3.56-4.61c-1.7-5.42-3.15-9.49-3.58-11.15-1.11-4.29-1.64-8.32-2.65-18s-4.35-30-4.9-33.36a31.27,31.27,0,0,1-.31-4c0-.34.08-.66.12-1,.86,9.18,5,10.41,6.93,14.26,2.73,5.37,4.37,8.86,4.18,16.19-1.38,9.34-2.2,22.13-1.76,27.47.47,5.74.24.74.24.74-.4-5.56.66-16.62,1.32-22.68a74.77,74.77,0,0,0,.94,16.29c1.29,7.69,3.48,12.12,1.8,6.93s-2.64-16.29-1.61-28.71a33.66,33.66,0,0,0,0-6,51.25,51.25,0,0,1,3.88,17.62c.37-7-2.91-17-4.48-21.42-1.48-6.4-4.94-10.71-8-15.17-2-3-2.55-9.11-2.57-14.45,1.1-11.73,1.75-23.31,2-34.81a470.09,470.09,0,0,0-2.49-62.21c-.57-6.23-1.38-12.52-2.29-18.81,2.15,7.54,5.82,18.18,9.48,35.23,0,.09,0,.15-.05.26s1.81,7.88,2.17,22.35c-8,46.89-6.06,59.28-6.06,59.28-1.19-12.88,4.49-46.65,6.12-56a242.59,242.59,0,0,1-2.37,34.92s4.38-24.37,2.87-47a198.14,198.14,0,0,1,2.15,50.91c3.23-29.74-1.31-63.74-9.64-88.78a250.89,250.89,0,0,1-6.91-26c0,.35.06.63.09.95-2.44-14.95-5-29.84-6.31-44.26-.25-3-.48-5.92-.61-8.83a123.71,123.71,0,0,1,1.28-22.49c-.17,4.41.16,12.54,3.32,23.77,3,10.49,7.72,22.49,11.65,34.53-.62,53.53,6.34,61.43,6.34,61.43-5.72-20-5.67-51.33-5.56-59a148.7,148.7,0,0,1,4.75,18.45c2.85,16,1.3,24,5.83,35.74A77.5,77.5,0,0,1,426,1261.6a156.66,156.66,0,0,0-2.39-23.56,203.86,203.86,0,0,1,7.34,31.7c-.52-11.44-5.8-28.93-8.6-37.5-.84-3.45-1.85-7.08-3.18-11-3.47-10.18-8.69-25.78-11.71-41.79,1.73-6.46,3.07-11.87,4.09-16.46,3.69-14.78,5-23.07,1.06-41.64-2.06-12.33-1.45-11-5.31-32.27-.65-3.7-1.2-7.47-1.72-11.27-2.63-20-3.82-43.54-3.82-43.54s0,.72,0,2.07c-1.07-18.64-1.58-37.56-2.38-55.91-1.46-33.26,3.17-66-.15-98.84-2.27-22.42-4-45.28-4.12-68.23,1.91,8.38,5,21.34,7.87,31.46,6.47,22.65,13.62,47.75,10,73.86-1.34,9.8-2.59,20.53-3.28,31.5-.46,6.81-.66,13.69-.53,20.49,0,.27,0,.55,0,.83,0,.84,0,1.68.08,2.53a147.07,147.07,0,0,0,3.42,28.44,162.4,162.4,0,0,1,3.52,22.5,38.17,38.17,0,0,1-.69,7.64c-1.14,5.42-3.54,12.55-4.88,21-1.06,4.67-2.33,10.22-3.34,14.44,0,0,1-3.21,2.91-11.41a64.91,64.91,0,0,0,.79,21.47s-1.5-12.14.08-22.88c.08-.52.17-1,.26-1.51-2.65,17.58,3.21,29.16,3.21,29.16-6.25-15.14-1.59-36-.75-39.49a99.12,99.12,0,0,0,2.91-11.74c.65,10.52.7,21.34.77,32.76.05,5.84.28,11.59.44,17.17.12,4.19.5,9.91-.56,13-1,2.79-2.7,1.42-4.44-.26,1.82,3.63,3.75,4.36,4.76.84-.64,4-3.05,5.8-5.2,1.52-2.71-5.37-4.62-14.12-5.79-20.7,1.11,7.11,2.87,16.87,6,22.48.9,1.62,1.5,3.07,4.1,3.71-3.57,2-6.91-9.25-8.34-13.58a41.19,41.19,0,0,0,4.56,12.79c3.25,5.52,5.83,2.72,6.95-2.57a51.86,51.86,0,0,0,.84-8.43c.46,5.8.07,11.6-2.34,14,4.74-1.53,3.34-15.24,2.77-23.26-1.4-19.58,0-40.6-2.55-60,1.22,4.49,2.8,10.09,4.82,18.19,3.4,13.64,4.35,35.85,4.35,35.85.07-8.7-.63-24.88-2.92-35.15-1.94-8.71-7.3-27.65-8.88-33.19-1.19-5.3-2.43-10.52-3.36-16.36A144.59,144.59,0,0,1,411,963.74c.2-7.13.83-14.24,1.58-21.35-.37,9.45,0,19.37,2.39,27.93.25.89.47,1.71.71,2.56a177.4,177.4,0,0,1,2.16,23.06,160,160,0,0,0-1.2-19.6c3,10.86,4.8,18.26,4.8,18.26-.3-4.18-3.45-15.85-5-22.66S413,958.45,413.78,941s2.16-33.13,2.16-33.13c-.14,1.63-.28,3-.43,4.33q.4-6.15.39-12.31c1.38,4.15,2.92,8.45,4.46,13.18,4.77,14.61,4,37.8,3.86,40.91a150.4,150.4,0,0,0-2.75-41,18.23,18.23,0,0,0,3.06,3.66c2.76,2.71,4.63,11.21,4.63,11.21-.59-3.86-1.84-9.52-4.78-12.77-1.88-2-3.8-6.89-4.49-8.76-.71-2.69-1.47-5.33-2.31-7.87-.76-2.27-1.4-4.57-1.95-6.86a104.59,104.59,0,0,0-2.56-17.3c-1-4-2-8.07-3-12.11-.53-2.16-1-4.07-1.45-5.7-5.28-20.68-10.68-41.62-13.2-63.81.41-18.21.35-32.7.24-43.53,0-4.12,0-6.93,0-7.3s0-.79,0-1.19c.41,1.51.87,3,1.37,4.46,2.82,8.8,6.65,17,10.26,24.95.83,4,1.67,11.25.8,23.15-1.45,19.76-2.94,35.66,1.53,54.5a124.66,124.66,0,0,1-2.42-32.93c.45-6.36,1.17-12.63,1.7-18.73-.17,16.25-1.56,27-.41,16.74.12-1.06.23-2.17.32-3.3.22,2.83.54,6,1.08,9.46,1.9,12.38,4.38,17.57,4.38,17.57-3-8.9-4.63-22.42-5.23-30a.08.08,0,0,0,0,0c.48-7.64.49-15.7.46-19.7a79.75,79.75,0,0,0-.51-13c1.4,3.16,2.75,6.28,3.94,9.39l.82,2.19c1.26,5.48,3.39,17.2,4,35.44a77.49,77.49,0,0,1-1.55,13.58c-1.61,7.68-3,16-1.41,22.61a49.07,49.07,0,0,1,.39-13.94c1-5.6,2.22-9.49,2.78-15.08.48,15.93,1.8,25.21,2.62,29.4,0,0-1.5-12.84-1.82-26.72-.23-10.5.23-23.28-1.93-36.3C421,808.07,423.19,822.41,423,844a193.06,193.06,0,0,0,1.46,26.84c-2.58,25.62-.47,32.23-.47,32.23-1.47-8.18.17-24.28.81-29.84a62.51,62.51,0,0,0,2.18,10c-3.06-13.61-1.93-39.66-3-61.23.1.62.19,1.18.29,1.83,1.15,7.47,2.2,10.89,3.47,13.56a106.8,106.8,0,0,1,2.86,24.17s.83-9.39-2.13-22.73c.73,1.36,1.55,2.67,2.49,4.46a36.4,36.4,0,0,1,3.62,12c0-5.9-2.95-12.8-5.17-16.46s-3.16-7.43-4.6-17c-1-6.65-1.94-12.66-2.38-15.43l0-.21-.22-1.41h-.05A145.88,145.88,0,0,0,416,781.92a62.08,62.08,0,0,0,7.24,8.36c8.51,8.17,9.9,21.94,10.06,23.85-1-18.19-8.72-23.59-14-30a58.52,58.52,0,0,1-5.56-8.4c-4.21-10.87-9.1-21.05-13.43-30.57a38.81,38.81,0,0,1-1.64-4.58h0a89,89,0,0,1-2.8-17c2.36,11.5,7.52,15.85,10.86,19.36,1.21,1.28,2.43,2.73,3.62,4.2a101.45,101.45,0,0,1,3.3,18.81s.36,2.87.08-1.28a117.93,117.93,0,0,0-2.27-16.15,53.77,53.77,0,0,0,4.57,5.16,27.79,27.79,0,0,1,3.66,9.49c1.18,6.56,1.84,21.66,4.37,24.25,0,0-1.63-3.13-2.54-13.08-.63-6.91-1-10.77-1.7-13.57-.32-1.21-.35-1.2,1,1.31s5.87,12.35,6.88,14.39-2.53-7.06-5-12.35c-1.45-3.06-3.49-6.61-5-9.1a4,4,0,0,0,2.5.85c6.71-.67,11.85,9.19,11.85,9.19-4.75-11.88-10.81-10.47-13-11.22s-6.26-7-14.41-15.83c-5.26-5.74-7.79-19.36-8.92-28.32,0-1.2,0-2.38,0-3.53,0-6.23,0-12.41-.07-17.87-.1-4.64-1.23-11.81-2.74-19.56-.27-1.63-.56-3.27-.86-4.9,2.29-5.92,8.93-21.17,16.27-20.57,9.11.74,1.59,29.65,1.59,29.65a38.39,38.39,0,0,0,1.89-5.54c6.55,16-5.84,39.61-5.84,39.61s9.24-12.23,10-25.81c.58-10.26-2.08-15.48-3.3-17.32,2.19-10.15,2.85-23.71-4.55-24.25-8.39-.6-15.35,12.54-17.5,17.11-2.36-10.92-5.33-21.83-8.11-32.24-7.49-30.95-10.45-67.65-11.59-101-1.74-50.57-.84-94.74-.57-143.91.23-12.44.51-20.77.51-20.77-4.62,0-5.23,0-9.85,0h-.45c1.15,81.32-1.68,138,1.81,188.5,1.24,23.63,3.57,43.77,8,60.93,5.66,22,9.88,43.25,13.57,61.32,1.07,6.58,2,13.3,2.72,20.59,2.17,24.44,2.51,43.8,2.56,50.29,0-.14.06-.3.09-.45.11,6.28.19,13,.22,20.27,0,4.33.11,8.71.23,13.13q-.08,9.18,0,18.28a107.89,107.89,0,0,1-5.17,28c-.33.95-.65,1.91-1,2.86-1,2.35-3.25,7.45-5.41,9.85a30.33,30.33,0,0,0-6.34,12.8s2.68-7.68,6.06-11.09a33.53,33.53,0,0,0,3.14-3.55c-4.2,13.88-7,28-5.28,42.85,0,0-1.19-19.92,5.36-37.65,3.21-8.67,6.07-16.06,8.06-23.15-.61,8.67-1.64,21.89-3.15,37.61a257.27,257.27,0,0,1-3.66,26.14c-.06.23-.11.49-.16.69l.07-.23a135.22,135.22,0,0,0-3,21.63s.73-8.21,5-27.6c.18-.81.31-1.57.48-2.37-.12,4.1-.44,11.4-1.35,20.81-1.43,14.85-2.85,23.47-2.83,27.88a212.56,212.56,0,0,0,3-21.91c1.29-14,2.24-21.85,2.2-31.79.44-2.45.82-4.83,1.15-7.16,0,6,0,12.35.05,19,0,13.64-1,33.12-2.07,50.66-.36,4.14-.75,8.42-1.2,13,0,0,.43-3.81,1-10.05-1.38,21.06-2.88,38.6-2.86,38.61s2.66-22.3,4.67-51.25c.16,3.6.74,7.53,1.4,16.52,1.4,18.89,1.33,43.74,1.33,43.74,1.33-16.1-.62-51.06-1.38-57.38a125.06,125.06,0,0,1-.62-14.25c.84-14.28,1.44-29.57,1.47-44.28,0-9.15.11-17.07.21-23.14.36-4.74.61-8.89.88-12.3.28,2.33,1,8.38,1.85,16.52.79,11.47,1.8,22.94,3.12,34.46.13,1.17.26,2.3.38,3.43.23,3,.44,6,.62,9,.34,12.71.33,25.11-.28,37-3.13,60.13,1.84,120.63,8.88,180.26,1.67,14.2.12,26.64-1.9,38.76a69.35,69.35,0,0,1-4,12.84,70.82,70.82,0,0,0-4.94,14.06c-1.43,4.78-3.73,13.73-3.56,21.82a90.31,90.31,0,0,1,2.63-16.79,57.47,57.47,0,0,0,1.71,24.19,65,65,0,0,1,2-34.14c1.56-4.47,3-8.15,4.36-11.43-2.08,12.2-3.81,24.51-2.34,38.4,1.85,15.84,4.11,31.45,6.28,47l3.77,134.06c-.32,4.86-.5,9.36-.42,13.14,0,0,.11-4.11.5-10.27l.34,12.27c-1.77,14.28-3.8,28.43-5.44,43.21,0,0,0,.49-.08,1.27a145.19,145.19,0,0,0-.52,20.83c.64,14.52.05,18.87.85,23.32.07.44.13.76.17,1a72.33,72.33,0,0,1-.35-10.33c.17-5.56-.06-9.91-.19-14,0,.4.1.79.16,1.13,1.11,6.43,2.6,9.76,3.83,21.92s3.23,24.9,6.32,35.4c3.75,12.76,4.73,26.55,4.68,23.8-.07-4-1.93-16.26-4.75-26.33-.16-.58-.33-1.23-.49-1.91,1.59,4.54,3.55,6.15,5,8.58a29.62,29.62,0,0,1,3,7.15c-.91-6.12-3.8-9.48-6-13.31a42.26,42.26,0,0,1-3.36-9.21,298.41,298.41,0,0,1-3.94-31.32s3.06,5.28,6.81,25.6c2.29,12.39,4.37,16.12,8.23,20.17,3.57,3.71,12.73,12.68,18,27.56a55,55,0,0,0-4.53-11.81,114.47,114.47,0,0,1-3.17-18.52c2.29,16.36,7,26.38,4.34,18.17-3.21-9.8-4.23-19.39-4.82-29.36,0-.47,0-.72,0-.72,0-.16-.05-.25-.08-.38-.41-7.29-.64-14.78-1.36-22.73-.25-2.67-.63-5.38-1.09-8.08,1.53,4.67,3.73,11.61,5.15,16.56.86,3,2.07,7.48,3.39,12.25a2.66,2.66,0,0,0-.11-.28c1.81,20.73,8.83,32.6,8.83,32.6-5.91-12.1-7.61-25.94-8-29.64,2.14,7.68,4.47,15.62,6.06,19.3C448.08,1528,452.43,1534.26,448.36,1527.14ZM405.65,1148.3a157.17,157.17,0,0,0,2.88-23.25,119.16,119.16,0,0,0-.11-18.29c1.07,6.48,3,16.26,4.68,27.09,2.52,16-2.64,30.26-4.14,36.74-.47,2.06-1.16,5.1-1.71,7.62C405.39,1167.91,404.52,1157.51,405.65,1148.3ZM389.82,825c0-.21,0-.45.05-.65.26-3.09.36-6.44.38-9.59q.44,12.06,1.24,24.09C390.71,832,390.08,827,389.82,825Zm5.56,56.52c.1.89.19,1.78.28,2.65,0,1.13.07,2.26.1,3.39C395.64,885.53,395.52,883.51,395.38,881.51Zm9.22,358.92c4,28.49,7.68,56.88,8.15,86.27-.32,4.89-.86,11.77-1.69,19.35-1,9.35-2.1,19.4-2.68,28.24C407.31,1336.05,405.16,1260.18,404.6,1240.43Zm3.86,136.75c.34-5.36.88-12.23,1.76-19.35.95-7.76,1.94-14.67,2.56-21,0,3.88-.12,7.78-.29,11.7-.62,14.21-2,27.68-3.69,41C408.71,1386.33,408.59,1382.13,408.46,1377.18Zm14.63,129c0,.21,0,.42-.09.64-2.64,14.8-1.91,24.22-1.59,27-2.27-8.07-5.82-15-8.22-20.65-3.8-9-3.95-6.91-3.7-28.53s-1.69-18.48-2.18-32.33c-.48-13.43,8.75-34.08,18.25-61.29.44,2.49,1.22,5.7-.48,23.71-.09,1-.19,2-.28,3.06-.52,1.85-1.29,4.63-2.18,8-.11.29-9.11,25.37-11.91,41.56s3.75-18.75,8.94-30.13c1.13-4.6,1.73-6.94,2.9-11.17-1.86,7-4.21,16.42-5.88,25-3.18,16.37-4.3,28.19-3.18,35.77s-1.32-7.26,1.9-24.19c2.39-12.61,6.78-30,8.77-37.19-.06.79-.13,1.57-.19,2.37a79.13,79.13,0,0,0-.17,12.32c.57,5.83,1.61,10.87,2.22,17.73a111.67,111.67,0,0,1,.68,16.91,77.51,77.51,0,0,1-2.44,10.17c-3.2,10.57-7.78,25.43-7.52,33.62,0-1.17.34-6.14,2.7-15.38,2.62-10.3,5.35-16.54,7-23.66C425.86,1486.64,424.88,1493.73,423.09,1506.22Z"/><path class="cls-21" d="M335.73,94.54h0c1.94-.84,3.91-1.71,5.88-2.58,14.51-6.43,31.37-5.8,37.5-5.3,3.54-2.16,7.15-7.72,6.52-21.59a57.32,57.32,0,0,0-5.3-21.47c-.57.71-1.17,1.39-1.76,2.06-2,2.23-4,4.53-5.09,8.27a1.86,1.86,0,0,1-1.76,1.41,1.7,1.7,0,0,1-.54-.09,2,2,0,0,1-1.22-2.5c1.32-4.64,3.78-7.41,6-9.85a29.78,29.78,0,0,0,2.48-3A51.87,51.87,0,0,0,359.1,20.55a34.63,34.63,0,0,0-6.38,9.55,1.83,1.83,0,0,1-1.66,1.13,1.77,1.77,0,0,1-.8-.19,2.08,2.08,0,0,1-.86-2.67,38.92,38.92,0,0,1,6.23-9.69,62.31,62.31,0,0,0-6.39-2.74,2.33,2.33,0,0,1-.36.34A15.7,15.7,0,0,1,340,19.23a10.75,10.75,0,0,1-6.68-2.15,2.1,2.1,0,0,1-.42-2.78,1.76,1.76,0,0,1,2.57-.45c2.19,1.7-1,17.79,8.86.47s-10.51-2.52-16.69-3.1l-.36,0C326.48,18,321.8,24,316.08,27.86c2.9,1.32,6.81,2.21,10.08-.26a1.75,1.75,0,0,1,2.56.5,2.1,2.1,0,0,1-.46,2.78,11.2,11.2,0,0,1-6.86,2.25,17.7,17.7,0,0,1-8.76-2.64c-1.67,2.21-1.53,5-1.17,9,.29,3.28.62,7-.88,10.39A1.81,1.81,0,0,1,308.93,51a1.77,1.77,0,0,1-.8-.19,2.09,2.09,0,0,1-.86-2.67c1-2.26.82-5,.57-7.82-1.94-1.06-4.57-2.05-6.61-1.09-1.48.71-2.57,2.43-3.24,5.13a1.87,1.87,0,0,1-1.77,1.48,1.59,1.59,0,0,1-.48-.07,2,2,0,0,1-1.31-2.44c1-3.92,2.76-6.53,5.32-7.75,2.23-1.06,4.85-1,7.8.25,0-3.54.7-7.09,4.19-9.89l0,0,.05-.05.13-.08.12-.08c5.84-3.23,10.73-8.62,11.49-14.8a81.4,81.4,0,0,0-10.66.21c-1.44,5.3-5.66,8.65-9.53,11.69-3.21,2.53-6.24,4.91-7.93,8.22a1.82,1.82,0,0,1-1.61,1,1.72,1.72,0,0,1-.89-.25,2.09,2.09,0,0,1-.72-2.71c2.08-4.1,5.59-6.86,9-9.52,3.21-2.53,6.15-4.84,7.59-8a67.64,67.64,0,0,0-25.23,8.74c1.59,5.49-.95,9.64-3.82,13.13,5.25,2.88,7.5,7.57,6.35,13.39a1.88,1.88,0,0,1-1.8,1.58,1.69,1.69,0,0,1-.38,0A2,2,0,0,1,282.49,46c.86-4.33-.93-7.43-5.4-9.48-3.17,3.7-4.91,6.42-3.77,10.12a2,2,0,0,1-1.16,2.53,1.69,1.69,0,0,1-.58.1A1.86,1.86,0,0,1,269.83,48c-2-6.6,1.94-11.14,5.46-15.14s5.61-6.71,5-10.38a65.33,65.33,0,0,0-21.45,23.94,22.74,22.74,0,0,1,8.67,7.48,2.12,2.12,0,0,1-.35,2.8,1.72,1.72,0,0,1-1.12.41,1.78,1.78,0,0,1-1.46-.79,18.75,18.75,0,0,0-7.38-6.36A39.25,39.25,0,0,0,254.68,58c-1.45,8.13-.77,15.79,3.46,21.39a10.93,10.93,0,0,0,2.12-4.15,1.83,1.83,0,0,1,2.26-1.4,2,2,0,0,1,1.3,2.44,15.26,15.26,0,0,1-3,5.92,24.93,24.93,0,0,0,11.46,5.27c-1.16-3-1.51-7.65,1.65-14.73.83-1.87,1.63-4.43.64-6-1.42-2.19-6-2.2-7.53-2a1.88,1.88,0,0,1-2-1.78,2,2,0,0,1,1.63-2.19c.81-.09,8-.78,10.93,3.7a7.06,7.06,0,0,1,1.1,3.41c3.36.61,5.84.07,7-1.59s1-4.94-.63-8.6a2.06,2.06,0,0,1,.83-2.67,1.78,1.78,0,0,1,2.47.9c2.32,5.08,2.41,9.74.25,12.8-1,1.4-3.17,3.4-7.5,3.4a16.72,16.72,0,0,1-2.91-.3,19.37,19.37,0,0,1-1,2.64c-4.66,10.46-.14,13.58.06,13.71,0,0,0,0,0,0a63.23,63.23,0,0,0,9,.09A52.25,52.25,0,0,1,300,79.82a12.22,12.22,0,0,0-4.51-.77h0a2.15,2.15,0,0,1-1.84-2.19,2,2,0,0,1,1.81-2.15,14.44,14.44,0,0,1,4.92.76c-1.13-5.25.51-9.83,5-14.15a1.74,1.74,0,0,1,2.6.17,2.11,2.11,0,0,1-.16,2.81c-4.51,4.33-5.26,8.25-2.63,13.84a2,2,0,0,1,.23-.06,89.36,89.36,0,0,0,17.38-6.15,22.55,22.55,0,0,1,0-7.51h0c-5.38-1.33-8-6.36-6.92-13.28A1.8,1.8,0,0,1,318,49.57a2,2,0,0,1,1.52,2.33c-.51,3.4-.2,7.73,4.21,9l.19.09a17.09,17.09,0,0,1,3.65-5.62,1.74,1.74,0,0,1,2.6.08,2.12,2.12,0,0,1-.07,2.83,14.93,14.93,0,0,0-3.83,12.1c7.51-4,12.36-8.25,13-10.83a1.82,1.82,0,0,1,2.25-1.4,2,2,0,0,1,1.3,2.44C340.19,71,315,79.92,306.14,82c-7.47,1.73-13.88,6.38-17,8.94-1.12,3-1.77,7.73,2.7,11.5,7.16,6,25.44,0,25.44,0l.08,0c5-2.12,11.49-4.88,18.37-7.88Zm30.56-46.72a1.76,1.76,0,0,1,2.59-.36,2.11,2.11,0,0,1,.32,2.8c-2.39,3.35-3.33,6.3-2.77,8.76.49,2.2,2.23,4.14,5.13,5.78,2.13-1.81,3.89-3.6,4.8-6.15a1.8,1.8,0,0,1,2.38-1.14,2.05,2.05,0,0,1,1.06,2.58c-1.52,4.25-4.65,6.79-7.68,9.26-3.56,2.9-6.93,5.64-8.14,11.14A1.88,1.88,0,0,1,362.19,82a1.89,1.89,0,0,1-1.8-2.46c1.32-6,4.68-9.36,8-12.15A12.33,12.33,0,0,1,362.85,60C362,56.26,363.17,52.17,366.29,47.82Zm-25.48-5c-4.89-2.19-8.06-3.36-11.58,0a1.73,1.73,0,0,1-2.6-.17,2.1,2.1,0,0,1,.16-2.81c5.42-5.2,10.74-2.82,15.43-.71,1,.46,2,.91,3,1.27a8,8,0,0,0-1.54-5.16A7.24,7.24,0,0,0,338.26,33a1.94,1.94,0,0,1-1.76-2.08,1.92,1.92,0,0,1,1.92-1.9,10.61,10.61,0,0,1,8,3.54c1.8,2.14,2.65,5.07,2.51,8.71,2.82.11,5.54-1.34,8.56-6.21a1.76,1.76,0,0,1,2.55-.54,2.1,2.1,0,0,1,.51,2.77c-3.81,6.13-7.64,8-11.25,8C346.27,45.22,343.39,43.93,340.81,42.77Zm-37,53.36a1.75,1.75,0,0,1-1.24.53,1.8,1.8,0,0,1-1.36-.65,2.12,2.12,0,0,1,.12-2.82c5.43-5.37,14.49-7.2,24.09-9.15,6.05-1.23,12.24-2.5,17.4-4.69a12.85,12.85,0,0,1,4.32-13.75,1.74,1.74,0,0,1-.18-.33,12.34,12.34,0,0,1-.21-9,10.44,10.44,0,0,1,6.05-5.67,1.81,1.81,0,0,1,2.37,1.17,2.06,2.06,0,0,1-1.08,2.57,6.72,6.72,0,0,0-4,3.55,8.13,8.13,0,0,0,.27,5.9,1.9,1.9,0,0,1,.12.62,2.66,2.66,0,0,0,2.39-.82,1.74,1.74,0,0,1,2.6-.09,2.11,2.11,0,0,1,.09,2.82,6,6,0,0,1-4.67,2.11,7,7,0,0,1-1-.08c-3.24,2.48-4.55,5.81-3.69,9.32a21.45,21.45,0,0,0,3.66-2.63,1.74,1.74,0,0,1,2.59.26,2.11,2.11,0,0,1-.23,2.81C345.76,84,335.76,86,326.1,88,317,89.8,308.47,91.54,303.81,96.13Z"/></g></g></svg>